SplineFontDB: 3.0
FontName: Pragati-Regular
FullName: Pragati
FamilyName: Pragati
Weight: Book
Copyright: Copyright (c) 2012-2015, Omnibus-Type (www.omnibus-type.com omnibus.type@gmail.com)
Version: 1.005
ItalicAngle: 0
UnderlinePosition: -50
UnderlineWidth: 50
Ascent: 800
Descent: 200
InvalidEm: 0
sfntRevision: 0x00010147
LayerCount: 2
Layer: 0 1 "Back" 1
Layer: 1 1 "Fore" 0
XUID: [1021 505 -982332716 2508753]
FSType: 0
OS2Version: 3
OS2_WeightWidthSlopeOnly: 0
OS2_UseTypoMetrics: 1
CreationTime: 1422350126
ModificationTime: 1422352009
PfmFamily: 17
TTFWeight: 400
TTFWidth: 5
LineGap: 0
VLineGap: 0
Panose: 2 11 5 6 2 2 2 2 11 4
OS2TypoAscent: 733
OS2TypoAOffset: 0
OS2TypoDescent: -267
OS2TypoDOffset: 0
OS2TypoLinegap: 0
OS2WinAscent: 733
OS2WinAOffset: 0
OS2WinDescent: 267
OS2WinDOffset: 0
HheadAscent: 733
HheadAOffset: 0
HheadDescent: -267
HheadDOffset: 0
OS2SubXSize: 428
OS2SubYSize: 395
OS2SubXOff: 0
OS2SubYOff: 49
OS2SupXSize: 428
OS2SupYSize: 395
OS2SupXOff: 0
OS2SupYOff: 230
OS2StrikeYSize: 50
OS2StrikeYPos: 183
OS2CapHeight: 0
OS2XHeight: 0
OS2Vendor: 'OMNI'
OS2CodePages: 20000093.00000000
OS2UnicodeRanges: 00008007.00000000.00000000.00000000
Lookup: 1 0 0 "'aalt' Access All Alternates lookup 0" { "'aalt' Access All Alternates lookup 0 subtable"  } ['aalt' ('DFLT' <'dflt' > 'dev2' <'MAR ' 'NEP ' 'dflt' > 'deva' <'MAR ' 'NEP ' 'dflt' > 'grek' <'dflt' > 'latn' <'CAT ' 'MOL ' 'ROM ' 'dflt' > ) ]
Lookup: 3 0 0 "'aalt' Access All Alternates lookup 1" { "'aalt' Access All Alternates lookup 1 subtable"  } ['aalt' ('DFLT' <'dflt' > 'dev2' <'MAR ' 'NEP ' 'dflt' > 'deva' <'MAR ' 'NEP ' 'dflt' > 'grek' <'dflt' > 'latn' <'CAT ' 'MOL ' 'ROM ' 'dflt' > ) ]
Lookup: 4 0 0 "Ligature Substitution lookup 2" { "Ligature Substitution lookup 2 subtable"  } []
Lookup: 4 0 0 "Ligature Substitution lookup 3" { "Ligature Substitution lookup 3 subtable"  } []

StartChar: .notdef
Encoding: 65536 -1 0
Width: 291
VWidth: 659
Flags: W
LayerCount: 2
Back
Fore
SplineSet
0 408 m 1,0,-1
 291 408 l 1,1,-1
 291 0 l 1,2,-1
 0 0 l 1,3,-1
 0 408 l 1,0,-1
244 379 m 1,4,-1
 47 379 l 1,5,-1
 146 230 l 1,6,-1
 244 379 l 1,4,-1
29 353 m 1,7,-1
 29 55 l 1,8,-1
 128 204 l 1,9,-1
 29 353 l 1,7,-1
262 353 m 1,10,-1
 163 204 l 1,11,-1
 262 55 l 1,12,-1
 262 353 l 1,10,-1
146 178 m 1,13,-1
 47 29 l 1,14,-1
 244 29 l 1,15,-1
 146 178 l 1,13,-1
EndSplineSet
Validated: 1
EndChar

StartChar: A
Encoding: 65 65 4
Width: 319
VWidth: 659
GlyphClass: 2
Flags: W
AnchorPoint: "Anchor-1" 0 0 basechar 0
AnchorPoint: "Anchor-0" 159 399 basechar 0
LayerCount: 2
Back
Fore
SplineSet
264 0 m 1,0,-1
 237 89 l 1,1,-1
 78 89 l 1,2,-1
 51 0 l 1,3,-1
 -1 0 l 1,4,-1
 127 399 l 1,5,-1
 192 399 l 1,6,-1
 319 0 l 1,7,-1
 264 0 l 1,0,-1
152 337.5 m 128,-1,9
 149 322 149 322 147 314 c 2,10,-1
 92 136 l 1,11,-1
 222 136 l 1,12,-1
 168 314 l 2,13,14
 165 322 165 322 162 337.5 c 128,-1,15
 159 353 159 353 158 358 c 1,16,-1
 156 358 l 1,17,8
 155 353 155 353 152 337.5 c 128,-1,9
EndSplineSet
Validated: 1
Substitution2: "Single Substitution lookup 42 subtable" ordfeminine
Substitution2: "'aalt' Access All Alternates lookup 0 subtable" ordfeminine
Position2: "'cpsp' Capital Spacing lookup 0 subtable" dx=5 dy=0 dh=10 dv=0
EndChar

StartChar: Aacute
Encoding: 193 193 5
Width: 319
VWidth: 659
GlyphClass: 2
Flags: W
LayerCount: 2
Back
Fore
SplineSet
165 438 m 1,0,-1
 125 438 l 1,1,-1
 175 515 l 1,2,-1
 227 515 l 1,3,-1
 228 513 l 1,4,-1
 165 438 l 1,0,-1
264 0 m 1,5,-1
 237 89 l 1,6,-1
 78 89 l 1,7,-1
 51 0 l 1,8,-1
 -1 0 l 1,9,-1
 127 399 l 1,10,-1
 192 399 l 1,11,-1
 319 0 l 1,12,-1
 264 0 l 1,5,-1
152 337.5 m 128,-1,14
 149 322 149 322 147 314 c 2,15,-1
 92 136 l 1,16,-1
 222 136 l 1,17,-1
 168 314 l 2,18,19
 165 322 165 322 162 337.5 c 128,-1,20
 159 353 159 353 158 358 c 1,21,-1
 156 358 l 1,22,13
 155 353 155 353 152 337.5 c 128,-1,14
EndSplineSet
Validated: 1
Position2: "'cpsp' Capital Spacing lookup 0 subtable" dx=5 dy=0 dh=10 dv=0
EndChar

StartChar: Abreve
Encoding: 258 258 6
Width: 319
VWidth: 659
GlyphClass: 2
Flags: W
LayerCount: 2
Back
Fore
SplineSet
211 475.5 m 128,-1,1
 191 458 191 458 159 458 c 0,2,3
 128 458 128 458 108 475.5 c 128,-1,4
 88 493 88 493 88 515 c 1,5,-1
 125 515 l 1,6,7
 127 508 127 508 136.5 501.5 c 128,-1,8
 146 495 146 495 159 495 c 0,9,10
 173 495 173 495 183 501.5 c 128,-1,11
 193 508 193 508 194 515 c 1,12,-1
 231 515 l 1,13,0
 231 493 231 493 211 475.5 c 128,-1,1
264 0 m 1,14,-1
 237 89 l 1,15,-1
 78 89 l 1,16,-1
 51 0 l 1,17,-1
 -1 0 l 1,18,-1
 127 399 l 1,19,-1
 192 399 l 1,20,-1
 319 0 l 1,21,-1
 264 0 l 1,14,-1
152 337.5 m 128,-1,23
 149 322 149 322 147 314 c 2,24,-1
 92 136 l 1,25,-1
 222 136 l 1,26,-1
 168 314 l 2,27,28
 165 322 165 322 162 337.5 c 128,-1,29
 159 353 159 353 158 358 c 1,30,-1
 156 358 l 1,31,22
 155 353 155 353 152 337.5 c 128,-1,23
EndSplineSet
Validated: 1
Position2: "'cpsp' Capital Spacing lookup 0 subtable" dx=5 dy=0 dh=10 dv=0
EndChar

StartChar: Acircumflex
Encoding: 194 194 7
Width: 319
VWidth: 659
GlyphClass: 2
Flags: W
LayerCount: 2
Back
Fore
SplineSet
185 435 m 1,0,-1
 159 481 l 1,1,-1
 133 435 l 1,2,-1
 87 435 l 1,3,-1
 137 514 l 1,4,-1
 183 514 l 1,5,-1
 232 435 l 1,6,-1
 185 435 l 1,0,-1
264 0 m 1,7,-1
 237 89 l 1,8,-1
 78 89 l 1,9,-1
 51 0 l 1,10,-1
 -1 0 l 1,11,-1
 127 399 l 1,12,-1
 192 399 l 1,13,-1
 319 0 l 1,14,-1
 264 0 l 1,7,-1
152 337.5 m 128,-1,16
 149 322 149 322 147 314 c 2,17,-1
 92 136 l 1,18,-1
 222 136 l 1,19,-1
 168 314 l 2,20,21
 165 322 165 322 162 337.5 c 128,-1,22
 159 353 159 353 158 358 c 1,23,-1
 156 358 l 1,24,15
 155 353 155 353 152 337.5 c 128,-1,16
EndSplineSet
Validated: 1
Position2: "'cpsp' Capital Spacing lookup 0 subtable" dx=5 dy=0 dh=10 dv=0
EndChar

StartChar: Adieresis
Encoding: 196 196 8
Width: 319
VWidth: 659
GlyphClass: 2
Flags: W
LayerCount: 2
Back
Fore
SplineSet
90 459 m 1,0,-1
 90 515 l 1,1,-1
 141 515 l 1,2,-1
 141 459 l 1,3,-1
 90 459 l 1,0,-1
178 459 m 1,4,-1
 178 515 l 1,5,-1
 229 515 l 1,6,-1
 229 459 l 1,7,-1
 178 459 l 1,4,-1
264 0 m 1,8,-1
 237 89 l 1,9,-1
 78 89 l 1,10,-1
 51 0 l 1,11,-1
 -1 0 l 1,12,-1
 127 399 l 1,13,-1
 192 399 l 1,14,-1
 319 0 l 1,15,-1
 264 0 l 1,8,-1
152 337.5 m 128,-1,17
 149 322 149 322 147 314 c 2,18,-1
 92 136 l 1,19,-1
 222 136 l 1,20,-1
 168 314 l 2,21,22
 165 322 165 322 162 337.5 c 128,-1,23
 159 353 159 353 158 358 c 1,24,-1
 156 358 l 1,25,16
 155 353 155 353 152 337.5 c 128,-1,17
EndSplineSet
Validated: 1
Position2: "'cpsp' Capital Spacing lookup 0 subtable" dx=5 dy=0 dh=10 dv=0
EndChar

StartChar: Agrave
Encoding: 192 192 9
Width: 319
VWidth: 659
GlyphClass: 2
Flags: W
LayerCount: 2
Back
Fore
SplineSet
154 438 m 1,0,-1
 91 513 l 1,1,-1
 92 515 l 1,2,-1
 144 515 l 1,3,-1
 194 438 l 1,4,-1
 154 438 l 1,0,-1
264 0 m 1,5,-1
 237 89 l 1,6,-1
 78 89 l 1,7,-1
 51 0 l 1,8,-1
 -1 0 l 1,9,-1
 127 399 l 1,10,-1
 192 399 l 1,11,-1
 319 0 l 1,12,-1
 264 0 l 1,5,-1
152 337.5 m 128,-1,14
 149 322 149 322 147 314 c 2,15,-1
 92 136 l 1,16,-1
 222 136 l 1,17,-1
 168 314 l 2,18,19
 165 322 165 322 162 337.5 c 128,-1,20
 159 353 159 353 158 358 c 1,21,-1
 156 358 l 1,22,13
 155 353 155 353 152 337.5 c 128,-1,14
EndSplineSet
Validated: 1
Position2: "'cpsp' Capital Spacing lookup 0 subtable" dx=5 dy=0 dh=10 dv=0
EndChar

StartChar: Amacron
Encoding: 256 256 10
Width: 319
VWidth: 659
GlyphClass: 2
Flags: W
LayerCount: 2
Back
Fore
SplineSet
86 442 m 1,0,-1
 86 484 l 1,1,-1
 233 484 l 1,2,-1
 233 442 l 1,3,-1
 86 442 l 1,0,-1
264 0 m 1,4,-1
 237 89 l 1,5,-1
 78 89 l 1,6,-1
 51 0 l 1,7,-1
 -1 0 l 1,8,-1
 127 399 l 1,9,-1
 192 399 l 1,10,-1
 319 0 l 1,11,-1
 264 0 l 1,4,-1
152 337.5 m 128,-1,13
 149 322 149 322 147 314 c 2,14,-1
 92 136 l 1,15,-1
 222 136 l 1,16,-1
 168 314 l 2,17,18
 165 322 165 322 162 337.5 c 128,-1,19
 159 353 159 353 158 358 c 1,20,-1
 156 358 l 1,21,12
 155 353 155 353 152 337.5 c 128,-1,13
EndSplineSet
Validated: 1
Position2: "'cpsp' Capital Spacing lookup 0 subtable" dx=5 dy=0 dh=10 dv=0
EndChar

StartChar: Aogonek
Encoding: 260 260 11
Width: 319
VWidth: 659
GlyphClass: 2
Flags: W
LayerCount: 2
Back
Fore
SplineSet
350 -68 m 1,0,-1
 350 -98 l 1,1,2
 331 -106 331 -106 314 -106 c 0,3,4
 292 -106 292 -106 276 -93.5 c 128,-1,5
 260 -81 260 -81 260 -53 c 0,6,7
 260 -37 260 -37 265.5 -26 c 128,-1,8
 271 -15 271 -15 281 -3 c 0,9,10
 281 -2 281 -2 283 0 c 2,11,-1
 264 0 l 1,12,-1
 237 89 l 1,13,-1
 78 89 l 1,14,-1
 51 0 l 1,15,-1
 -1 0 l 1,16,-1
 127 399 l 1,17,-1
 192 399 l 1,18,-1
 319 0 l 1,19,-1
 318 -1 l 1,20,21
 305 -21 305 -21 305 -36 c 0,22,23
 305 -42 305 -42 306 -45 c 0,24,25
 310 -68 310 -68 332 -68 c 2,26,-1
 350 -68 l 1,0,-1
222 136 m 1,27,-1
 168 314 l 2,28,29
 165 322 165 322 162 337.5 c 128,-1,30
 159 353 159 353 158 358 c 1,31,-1
 156 358 l 1,32,33
 155 353 155 353 152 337.5 c 128,-1,34
 149 322 149 322 147 314 c 2,35,-1
 92 136 l 1,36,-1
 222 136 l 1,27,-1
EndSplineSet
Validated: 1
Position2: "'cpsp' Capital Spacing lookup 0 subtable" dx=5 dy=0 dh=10 dv=0
EndChar

StartChar: Aring
Encoding: 197 197 12
Width: 319
VWidth: 659
GlyphClass: 2
Flags: W
LayerCount: 2
Back
Fore
SplineSet
199 516.5 m 128,-1,1
 215 500 215 500 215 477 c 256,2,3
 215 454 215 454 198.5 437.5 c 128,-1,4
 182 421 182 421 159 421 c 256,5,6
 136 421 136 421 119.5 437 c 128,-1,7
 103 453 103 453 103 477 c 0,8,9
 103 500 103 500 119.5 516.5 c 128,-1,10
 136 533 136 533 159 533 c 0,11,0
 183 533 183 533 199 516.5 c 128,-1,1
138 498.5 m 128,-1,13
 129 490 129 490 129 477 c 0,14,15
 129 465 129 465 138 456 c 128,-1,16
 147 447 147 447 159 447 c 256,17,18
 171 447 171 447 179.5 456 c 128,-1,19
 188 465 188 465 188 477 c 0,20,21
 188 490 188 490 179.5 498.5 c 128,-1,22
 171 507 171 507 159 507 c 256,23,12
 147 507 147 507 138 498.5 c 128,-1,13
264 0 m 1,24,-1
 237 89 l 1,25,-1
 78 89 l 1,26,-1
 51 0 l 1,27,-1
 -1 0 l 1,28,-1
 127 399 l 1,29,-1
 192 399 l 1,30,-1
 319 0 l 1,31,-1
 264 0 l 1,24,-1
152 337.5 m 128,-1,33
 149 322 149 322 147 314 c 2,34,-1
 92 136 l 1,35,-1
 222 136 l 1,36,-1
 168 314 l 2,37,38
 165 322 165 322 162 337.5 c 128,-1,39
 159 353 159 353 158 358 c 1,40,-1
 156 358 l 1,41,32
 155 353 155 353 152 337.5 c 128,-1,33
EndSplineSet
Validated: 1
Position2: "'cpsp' Capital Spacing lookup 0 subtable" dx=5 dy=0 dh=10 dv=0
EndChar

StartChar: Aringacute
Encoding: 506 506 13
Width: 319
VWidth: 659
GlyphClass: 2
Flags: W
LayerCount: 2
Back
Fore
SplineSet
142 494 m 1,0,-1
 183 558 l 1,1,-1
 235 558 l 1,2,-1
 236 555 l 1,3,-1
 182 494 l 1,4,-1
 142 494 l 1,0,-1
199 462.5 m 128,-1,6
 215 447 215 447 215 424 c 0,7,8
 215 400 215 400 197 384 c 1,9,-1
 319 0 l 1,10,-1
 264 0 l 1,11,-1
 237 89 l 1,12,-1
 78 89 l 1,13,-1
 51 0 l 1,14,-1
 -1 0 l 1,15,-1
 122 385 l 1,16,17
 114 392 114 392 108.5 402.5 c 128,-1,18
 103 413 103 413 103 424 c 0,19,20
 103 447 103 447 119.5 462.5 c 128,-1,21
 136 478 136 478 159 478 c 0,22,5
 183 478 183 478 199 462.5 c 128,-1,6
138.5 444.5 m 128,-1,24
 130 436 130 436 130 424 c 0,25,26
 130 413 130 413 138.5 404.5 c 128,-1,27
 147 396 147 396 159 396 c 256,28,29
 171 396 171 396 180 404.5 c 128,-1,30
 189 413 189 413 189 424 c 0,31,32
 189 436 189 436 180 444.5 c 128,-1,33
 171 453 171 453 159 453 c 256,34,23
 147 453 147 453 138.5 444.5 c 128,-1,24
152 337.5 m 128,-1,36
 149 322 149 322 147 314 c 2,37,-1
 92 136 l 1,38,-1
 222 136 l 1,39,-1
 168 314 l 2,40,41
 165 322 165 322 162 337.5 c 128,-1,42
 159 353 159 353 158 358 c 1,43,-1
 156 358 l 1,44,35
 155 353 155 353 152 337.5 c 128,-1,36
EndSplineSet
Validated: 1
Position2: "'cpsp' Capital Spacing lookup 0 subtable" dx=5 dy=0 dh=10 dv=0
EndChar

StartChar: Atilde
Encoding: 195 195 14
Width: 319
VWidth: 659
GlyphClass: 2
Flags: W
LayerCount: 2
Back
Fore
SplineSet
231.5 472.5 m 128,-1,1
 219 454 219 454 194 454 c 0,2,3
 183 454 183 454 172 458 c 128,-1,4
 161 462 161 462 159 463 c 0,5,6
 141 472 141 472 128 472 c 0,7,8
 109 472 109 472 108 454 c 1,9,-1
 74 454 l 1,10,11
 74 477 74 477 86.5 496 c 128,-1,12
 99 515 99 515 123 515 c 0,13,14
 134 515 134 515 145 511 c 128,-1,15
 156 507 156 507 159 506 c 0,16,17
 177 497 177 497 190 497 c 0,18,19
 207 497 207 497 210 515 c 1,20,-1
 244 515 l 1,21,0
 244 491 244 491 231.5 472.5 c 128,-1,1
264 0 m 1,22,-1
 237 89 l 1,23,-1
 78 89 l 1,24,-1
 51 0 l 1,25,-1
 -1 0 l 1,26,-1
 127 399 l 1,27,-1
 192 399 l 1,28,-1
 319 0 l 1,29,-1
 264 0 l 1,22,-1
152 337.5 m 128,-1,31
 149 322 149 322 147 314 c 2,32,-1
 92 136 l 1,33,-1
 222 136 l 1,34,-1
 168 314 l 2,35,36
 165 322 165 322 162 337.5 c 128,-1,37
 159 353 159 353 158 358 c 1,38,-1
 156 358 l 1,39,30
 155 353 155 353 152 337.5 c 128,-1,31
EndSplineSet
Validated: 1
Position2: "'cpsp' Capital Spacing lookup 0 subtable" dx=5 dy=0 dh=10 dv=0
EndChar

StartChar: AE
Encoding: 198 198 15
Width: 478
VWidth: 659
GlyphClass: 2
Flags: W
AnchorPoint: "Anchor-1" 0 0 basechar 0
AnchorPoint: "Anchor-0" 239 399 basechar 0
LayerCount: 2
Back
Fore
SplineSet
239 353 m 1,0,-1
 268 228 l 1,1,-1
 427 228 l 1,2,-1
 427 181 l 1,3,-1
 278 181 l 1,4,-1
 308 47 l 1,5,-1
 456 47 l 1,6,-1
 456 0 l 1,7,-1
 264 0 l 1,8,-1
 244 89 l 1,9,-1
 85 89 l 1,10,-1
 51 0 l 1,11,-1
 -1 0 l 1,12,-1
 163 399 l 1,13,-1
 453 399 l 1,14,-1
 453 353 l 1,15,-1
 239 353 l 1,0,-1
185 350.5 m 128,-1,17
 185 349 185 349 184 348 c 0,18,19
 179 329 179 329 173 316 c 2,20,-1
 103 136 l 1,21,-1
 234 136 l 1,22,-1
 194 316 l 1,23,-1
 188 353 l 1,24,-1
 186 353 l 2,25,16
 185 352 185 352 185 350.5 c 128,-1,17
EndSplineSet
Validated: 1
Position2: "'cpsp' Capital Spacing lookup 0 subtable" dx=5 dy=0 dh=10 dv=0
EndChar

StartChar: AEacute
Encoding: 508 508 16
Width: 478
VWidth: 659
GlyphClass: 2
Flags: W
LayerCount: 2
Back
Fore
SplineSet
301 438 m 1,0,-1
 261 438 l 1,1,-1
 311 515 l 1,2,-1
 364 515 l 1,3,-1
 364 513 l 1,4,-1
 301 438 l 1,0,-1
239 353 m 1,5,-1
 268 228 l 1,6,-1
 427 228 l 1,7,-1
 427 181 l 1,8,-1
 278 181 l 1,9,-1
 308 47 l 1,10,-1
 456 47 l 1,11,-1
 456 0 l 1,12,-1
 264 0 l 1,13,-1
 244 89 l 1,14,-1
 85 89 l 1,15,-1
 51 0 l 1,16,-1
 -1 0 l 1,17,-1
 163 399 l 1,18,-1
 453 399 l 1,19,-1
 453 353 l 1,20,-1
 239 353 l 1,5,-1
185 350.5 m 128,-1,22
 185 349 185 349 184 348 c 0,23,24
 179 329 179 329 173 316 c 2,25,-1
 103 136 l 1,26,-1
 234 136 l 1,27,-1
 194 316 l 1,28,-1
 188 353 l 1,29,-1
 186 353 l 2,30,21
 185 352 185 352 185 350.5 c 128,-1,22
EndSplineSet
Validated: 1
Position2: "'cpsp' Capital Spacing lookup 0 subtable" dx=5 dy=0 dh=10 dv=0
EndChar

StartChar: B
Encoding: 66 66 17
Width: 319
VWidth: 659
GlyphClass: 2
Flags: W
LayerCount: 2
Back
Fore
SplineSet
263.5 372 m 128,-1,1
 293 345 293 345 293 302 c 0,2,3
 293 269 293 269 275.5 244 c 128,-1,4
 258 219 258 219 231 210 c 1,5,-1
 231 208 l 1,6,7
 262 198 262 198 282 171 c 128,-1,8
 302 144 302 144 302 106 c 0,9,10
 302 57 302 57 269.5 28.5 c 128,-1,11
 237 0 237 0 189 0 c 2,12,-1
 38 0 l 1,13,-1
 38 399 l 1,14,-1
 189 399 l 2,15,0
 234 399 234 399 263.5 372 c 128,-1,1
174 228 m 2,16,17
 203 228 203 228 221 246.5 c 128,-1,18
 239 265 239 265 239 291 c 0,19,20
 239 322 239 322 222.5 337.5 c 128,-1,21
 206 353 206 353 178 353 c 2,22,-1
 89 353 l 1,23,-1
 89 228 l 1,24,-1
 174 228 l 2,16,17
183 47 m 2,25,26
 212 47 212 47 230 64.5 c 128,-1,27
 248 82 248 82 248 113 c 0,28,29
 248 141 248 141 229 161 c 128,-1,30
 210 181 210 181 179 181 c 2,31,-1
 89 181 l 1,32,-1
 89 47 l 1,33,-1
 183 47 l 2,25,26
EndSplineSet
Validated: 1
Position2: "'cpsp' Capital Spacing lookup 0 subtable" dx=5 dy=0 dh=10 dv=0
EndChar

StartChar: C
Encoding: 67 67 18
Width: 345
VWidth: 659
GlyphClass: 2
Flags: W
AnchorPoint: "Anchor-1" 173 0 basechar 0
AnchorPoint: "Anchor-0" 173 399 basechar 0
LayerCount: 2
Back
Fore
SplineSet
283.5 368 m 128,-1,1
 321 329 321 329 321 255 c 1,2,-1
 269 255 l 1,3,4
 269 306 269 306 245.5 332.5 c 128,-1,5
 222 359 222 359 182 359 c 0,6,7
 129 359 129 359 103.5 323 c 128,-1,8
 78 287 78 287 78 214 c 2,9,-1
 78 185 l 2,10,11
 78 40 78 40 182 40 c 0,12,13
 223 40 223 40 246.5 66 c 128,-1,14
 270 92 270 92 270 143 c 1,15,-1
 321 143 l 1,16,17
 321 68 321 68 283.5 30.5 c 128,-1,18
 246 -7 246 -7 182 -7 c 0,19,20
 24 -7 24 -7 24 200 c 256,21,22
 24 407 24 407 182 407 c 0,23,0
 246 407 246 407 283.5 368 c 128,-1,1
EndSplineSet
Validated: 1
Position2: "'cpsp' Capital Spacing lookup 0 subtable" dx=5 dy=0 dh=10 dv=0
EndChar

StartChar: Cacute
Encoding: 262 262 19
Width: 345
VWidth: 659
GlyphClass: 2
Flags: W
LayerCount: 2
Back
Fore
SplineSet
186 438 m 1,0,-1
 146 438 l 1,1,-1
 196 515 l 1,2,-1
 248 515 l 1,3,-1
 249 513 l 1,4,-1
 186 438 l 1,0,-1
283.5 368 m 128,-1,6
 321 329 321 329 321 255 c 1,7,-1
 269 255 l 1,8,9
 269 306 269 306 245.5 332.5 c 128,-1,10
 222 359 222 359 182 359 c 0,11,12
 129 359 129 359 103.5 323 c 128,-1,13
 78 287 78 287 78 214 c 2,14,-1
 78 185 l 2,15,16
 78 40 78 40 182 40 c 0,17,18
 223 40 223 40 246.5 66 c 128,-1,19
 270 92 270 92 270 143 c 1,20,-1
 321 143 l 1,21,22
 321 68 321 68 283.5 30.5 c 128,-1,23
 246 -7 246 -7 182 -7 c 0,24,25
 24 -7 24 -7 24 200 c 256,26,27
 24 407 24 407 182 407 c 0,28,5
 246 407 246 407 283.5 368 c 128,-1,6
EndSplineSet
Validated: 1
Position2: "'cpsp' Capital Spacing lookup 0 subtable" dx=5 dy=0 dh=10 dv=0
EndChar

StartChar: Ccaron
Encoding: 268 268 20
Width: 345
VWidth: 659
GlyphClass: 2
Flags: W
LayerCount: 2
Back
Fore
SplineSet
100 515 m 1,0,-1
 146 515 l 1,1,-1
 173 469 l 1,2,-1
 198 515 l 1,3,-1
 245 515 l 1,4,-1
 194 436 l 1,5,-1
 149 436 l 1,6,-1
 100 515 l 1,0,-1
283.5 368 m 128,-1,8
 321 329 321 329 321 255 c 1,9,-1
 269 255 l 1,10,11
 269 306 269 306 245.5 332.5 c 128,-1,12
 222 359 222 359 182 359 c 0,13,14
 129 359 129 359 103.5 323 c 128,-1,15
 78 287 78 287 78 214 c 2,16,-1
 78 185 l 2,17,18
 78 40 78 40 182 40 c 0,19,20
 223 40 223 40 246.5 66 c 128,-1,21
 270 92 270 92 270 143 c 1,22,-1
 321 143 l 1,23,24
 321 68 321 68 283.5 30.5 c 128,-1,25
 246 -7 246 -7 182 -7 c 0,26,27
 24 -7 24 -7 24 200 c 256,28,29
 24 407 24 407 182 407 c 0,30,7
 246 407 246 407 283.5 368 c 128,-1,8
EndSplineSet
Validated: 1
Position2: "'cpsp' Capital Spacing lookup 0 subtable" dx=5 dy=0 dh=10 dv=0
EndChar

StartChar: Ccedilla
Encoding: 199 199 21
Width: 345
VWidth: 659
GlyphClass: 2
Flags: W
LayerCount: 2
Back
Fore
SplineSet
283.5 368 m 128,-1,1
 321 329 321 329 321 255 c 1,2,-1
 269 255 l 1,3,4
 269 306 269 306 245.5 332.5 c 128,-1,5
 222 359 222 359 182 359 c 0,6,7
 129 359 129 359 103.5 323 c 128,-1,8
 78 287 78 287 78 214 c 2,9,-1
 78 185 l 2,10,11
 78 40 78 40 182 40 c 0,12,13
 223 40 223 40 246.5 66 c 128,-1,14
 270 92 270 92 270 143 c 1,15,-1
 321 143 l 1,16,17
 321 68 321 68 283.5 30.5 c 128,-1,18
 246 -7 246 -7 182 -7 c 1,19,-1
 180 -21 l 1,20,21
 201 -22 201 -22 214 -31 c 128,-1,22
 227 -40 227 -40 227 -59 c 0,23,24
 227 -85 227 -85 208.5 -95.5 c 128,-1,25
 190 -106 190 -106 167 -106 c 0,26,27
 141 -106 141 -106 118 -101 c 1,28,-1
 118 -73 l 1,29,-1
 162 -73 l 2,30,31
 183 -73 183 -73 183 -59 c 0,32,33
 183 -51 183 -51 179 -48 c 128,-1,34
 175 -45 175 -45 163 -45 c 2,35,-1
 144 -45 l 1,36,-1
 150 -5 l 1,37,38
 24 15 24 15 24 200 c 0,39,40
 24 407 24 407 182 407 c 0,41,0
 246 407 246 407 283.5 368 c 128,-1,1
EndSplineSet
Validated: 1
Position2: "'cpsp' Capital Spacing lookup 0 subtable" dx=5 dy=0 dh=10 dv=0
EndChar

StartChar: Ccircumflex
Encoding: 264 264 22
Width: 345
VWidth: 659
GlyphClass: 2
Flags: W
LayerCount: 2
Back
Fore
SplineSet
173 481 m 1,0,-1
 146 435 l 1,1,-1
 100 435 l 1,2,-1
 150 514 l 1,3,-1
 195 514 l 1,4,-1
 245 435 l 1,5,-1
 198 435 l 1,6,-1
 173 481 l 1,0,-1
283.5 368 m 128,-1,8
 321 329 321 329 321 255 c 1,9,-1
 269 255 l 1,10,11
 269 306 269 306 245.5 332.5 c 128,-1,12
 222 359 222 359 182 359 c 0,13,14
 129 359 129 359 103.5 323 c 128,-1,15
 78 287 78 287 78 214 c 2,16,-1
 78 185 l 2,17,18
 78 40 78 40 182 40 c 0,19,20
 223 40 223 40 246.5 66 c 128,-1,21
 270 92 270 92 270 143 c 1,22,-1
 321 143 l 1,23,24
 321 68 321 68 283.5 30.5 c 128,-1,25
 246 -7 246 -7 182 -7 c 0,26,27
 24 -7 24 -7 24 200 c 256,28,29
 24 407 24 407 182 407 c 0,30,7
 246 407 246 407 283.5 368 c 128,-1,8
EndSplineSet
Validated: 1
Position2: "'cpsp' Capital Spacing lookup 0 subtable" dx=5 dy=0 dh=10 dv=0
EndChar

StartChar: Cdotaccent
Encoding: 266 266 23
Width: 345
VWidth: 659
GlyphClass: 2
Flags: W
LayerCount: 2
Back
Fore
SplineSet
147 515 m 1,0,-1
 198 515 l 1,1,-1
 198 459 l 1,2,-1
 147 459 l 1,3,-1
 147 515 l 1,0,-1
283.5 368 m 128,-1,5
 321 329 321 329 321 255 c 1,6,-1
 269 255 l 1,7,8
 269 306 269 306 245.5 332.5 c 128,-1,9
 222 359 222 359 182 359 c 0,10,11
 129 359 129 359 103.5 323 c 128,-1,12
 78 287 78 287 78 214 c 2,13,-1
 78 185 l 2,14,15
 78 40 78 40 182 40 c 0,16,17
 223 40 223 40 246.5 66 c 128,-1,18
 270 92 270 92 270 143 c 1,19,-1
 321 143 l 1,20,21
 321 68 321 68 283.5 30.5 c 128,-1,22
 246 -7 246 -7 182 -7 c 0,23,24
 24 -7 24 -7 24 200 c 256,25,26
 24 407 24 407 182 407 c 0,27,4
 246 407 246 407 283.5 368 c 128,-1,5
EndSplineSet
Validated: 1
Position2: "'cpsp' Capital Spacing lookup 0 subtable" dx=5 dy=0 dh=10 dv=0
EndChar

StartChar: D
Encoding: 68 68 24
Width: 345
VWidth: 659
GlyphClass: 2
Flags: W
AnchorPoint: "Anchor-1" 0 0 basechar 0
AnchorPoint: "Anchor-0" 173 399 basechar 0
LayerCount: 2
Back
Fore
SplineSet
165 399 m 2,0,1
 237 399 237 399 276.5 350 c 128,-1,2
 316 301 316 301 316 206 c 0,3,4
 316 105 316 105 276.5 52.5 c 128,-1,5
 237 0 237 0 165 0 c 2,6,-1
 41 0 l 1,7,-1
 41 399 l 1,8,-1
 165 399 l 2,0,1
160 47 m 2,9,10
 208 47 208 47 235.5 83.5 c 128,-1,11
 263 120 263 120 263 191 c 2,12,-1
 263 220 l 2,13,14
 263 285 263 285 235.5 319 c 128,-1,15
 208 353 208 353 160 353 c 2,16,-1
 92 353 l 1,17,-1
 92 47 l 1,18,-1
 160 47 l 2,9,10
EndSplineSet
Validated: 1
Position2: "'cpsp' Capital Spacing lookup 0 subtable" dx=5 dy=0 dh=10 dv=0
EndChar

StartChar: Eth
Encoding: 208 208 25
Width: 345
VWidth: 659
GlyphClass: 2
Flags: W
LayerCount: 2
Back
Fore
SplineSet
41 399 m 1,0,-1
 165 399 l 2,1,2
 237 399 237 399 276.5 350 c 128,-1,3
 316 301 316 301 316 206 c 0,4,5
 316 105 316 105 276.5 52.5 c 128,-1,6
 237 0 237 0 165 0 c 2,7,-1
 41 0 l 1,8,-1
 41 188 l 1,9,-1
 3 188 l 1,10,-1
 3 225 l 1,11,-1
 41 225 l 1,12,-1
 41 399 l 1,0,-1
183 225 m 1,13,-1
 183 188 l 1,14,-1
 92 188 l 1,15,-1
 92 47 l 1,16,-1
 160 47 l 2,17,18
 208 47 208 47 235.5 83.5 c 128,-1,19
 263 120 263 120 263 191 c 2,20,-1
 263 220 l 2,21,22
 263 285 263 285 235.5 319 c 128,-1,23
 208 353 208 353 160 353 c 2,24,-1
 92 353 l 1,25,-1
 92 225 l 1,26,-1
 183 225 l 1,13,-1
EndSplineSet
Validated: 1
Position2: "'cpsp' Capital Spacing lookup 0 subtable" dx=5 dy=0 dh=10 dv=0
EndChar

StartChar: Dcaron
Encoding: 270 270 26
Width: 345
VWidth: 659
GlyphClass: 2
Flags: W
LayerCount: 2
Back
Fore
SplineSet
100 515 m 1,0,-1
 146 515 l 1,1,-1
 173 469 l 1,2,-1
 198 515 l 1,3,-1
 245 515 l 1,4,-1
 194 436 l 1,5,-1
 149 436 l 1,6,-1
 100 515 l 1,0,-1
165 399 m 2,7,8
 237 399 237 399 276.5 350 c 128,-1,9
 316 301 316 301 316 206 c 0,10,11
 316 105 316 105 276.5 52.5 c 128,-1,12
 237 0 237 0 165 0 c 2,13,-1
 41 0 l 1,14,-1
 41 399 l 1,15,-1
 165 399 l 2,7,8
160 47 m 2,16,17
 208 47 208 47 235.5 83.5 c 128,-1,18
 263 120 263 120 263 191 c 2,19,-1
 263 220 l 2,20,21
 263 285 263 285 235.5 319 c 128,-1,22
 208 353 208 353 160 353 c 2,23,-1
 92 353 l 1,24,-1
 92 47 l 1,25,-1
 160 47 l 2,16,17
EndSplineSet
Validated: 1
Position2: "'cpsp' Capital Spacing lookup 0 subtable" dx=5 dy=0 dh=10 dv=0
EndChar

StartChar: Dcroat
Encoding: 272 272 27
Width: 345
VWidth: 659
GlyphClass: 2
Flags: W
LayerCount: 2
Back
Fore
SplineSet
41 399 m 1,0,-1
 165 399 l 2,1,2
 237 399 237 399 276.5 350 c 128,-1,3
 316 301 316 301 316 206 c 0,4,5
 316 105 316 105 276.5 52.5 c 128,-1,6
 237 0 237 0 165 0 c 2,7,-1
 41 0 l 1,8,-1
 41 188 l 1,9,-1
 3 188 l 1,10,-1
 3 225 l 1,11,-1
 41 225 l 1,12,-1
 41 399 l 1,0,-1
183 225 m 1,13,-1
 183 188 l 1,14,-1
 92 188 l 1,15,-1
 92 47 l 1,16,-1
 160 47 l 2,17,18
 208 47 208 47 235.5 83.5 c 128,-1,19
 263 120 263 120 263 191 c 2,20,-1
 263 220 l 2,21,22
 263 285 263 285 235.5 319 c 128,-1,23
 208 353 208 353 160 353 c 2,24,-1
 92 353 l 1,25,-1
 92 225 l 1,26,-1
 183 225 l 1,13,-1
EndSplineSet
Validated: 1
Position2: "'cpsp' Capital Spacing lookup 0 subtable" dx=5 dy=0 dh=10 dv=0
EndChar

StartChar: E
Encoding: 69 69 28
Width: 319
VWidth: 659
GlyphClass: 2
Flags: W
AnchorPoint: "Anchor-1" 159 0 basechar 0
AnchorPoint: "Anchor-0" 159 399 basechar 0
LayerCount: 2
Back
Fore
SplineSet
287 399 m 1,0,-1
 287 353 l 1,1,-1
 92 353 l 1,2,-1
 92 228 l 1,3,-1
 262 228 l 1,4,-1
 262 181 l 1,5,-1
 92 181 l 1,6,-1
 92 47 l 1,7,-1
 291 47 l 1,8,-1
 291 0 l 1,9,-1
 41 0 l 1,10,-1
 41 399 l 1,11,-1
 287 399 l 1,0,-1
EndSplineSet
Validated: 1
Position2: "'cpsp' Capital Spacing lookup 0 subtable" dx=5 dy=0 dh=10 dv=0
EndChar

StartChar: Eacute
Encoding: 201 201 29
Width: 319
VWidth: 659
GlyphClass: 2
Flags: W
LayerCount: 2
Back
Fore
SplineSet
165 438 m 1,0,-1
 125 438 l 1,1,-1
 175 515 l 1,2,-1
 227 515 l 1,3,-1
 228 513 l 1,4,-1
 165 438 l 1,0,-1
92 353 m 1,5,-1
 92 228 l 1,6,-1
 262 228 l 1,7,-1
 262 181 l 1,8,-1
 92 181 l 1,9,-1
 92 47 l 1,10,-1
 291 47 l 1,11,-1
 291 0 l 1,12,-1
 41 0 l 1,13,-1
 41 399 l 1,14,-1
 287 399 l 1,15,-1
 287 353 l 1,16,-1
 92 353 l 1,5,-1
EndSplineSet
Validated: 1
Position2: "'cpsp' Capital Spacing lookup 0 subtable" dx=5 dy=0 dh=10 dv=0
EndChar

StartChar: Ebreve
Encoding: 276 276 30
Width: 319
VWidth: 659
GlyphClass: 2
Flags: W
LayerCount: 2
Back
Fore
SplineSet
211 475.5 m 128,-1,1
 191 458 191 458 159 458 c 0,2,3
 128 458 128 458 108 475.5 c 128,-1,4
 88 493 88 493 88 515 c 1,5,-1
 125 515 l 1,6,7
 127 508 127 508 136.5 501.5 c 128,-1,8
 146 495 146 495 159 495 c 0,9,10
 173 495 173 495 183 501.5 c 128,-1,11
 193 508 193 508 194 515 c 1,12,-1
 231 515 l 1,13,0
 231 493 231 493 211 475.5 c 128,-1,1
287 399 m 1,14,-1
 287 353 l 1,15,-1
 92 353 l 1,16,-1
 92 228 l 1,17,-1
 262 228 l 1,18,-1
 262 181 l 1,19,-1
 92 181 l 1,20,-1
 92 47 l 1,21,-1
 291 47 l 1,22,-1
 291 0 l 1,23,-1
 41 0 l 1,24,-1
 41 399 l 1,25,-1
 287 399 l 1,14,-1
EndSplineSet
Validated: 1
Position2: "'cpsp' Capital Spacing lookup 0 subtable" dx=5 dy=0 dh=10 dv=0
EndChar

StartChar: Ecaron
Encoding: 282 282 31
Width: 319
VWidth: 659
GlyphClass: 2
Flags: W
LayerCount: 2
Back
Fore
SplineSet
87 515 m 1,0,-1
 133 515 l 1,1,-1
 159 469 l 1,2,-1
 185 515 l 1,3,-1
 232 515 l 1,4,-1
 182 436 l 1,5,-1
 136 436 l 1,6,-1
 87 515 l 1,0,-1
287 399 m 1,7,-1
 287 353 l 1,8,-1
 92 353 l 1,9,-1
 92 228 l 1,10,-1
 262 228 l 1,11,-1
 262 181 l 1,12,-1
 92 181 l 1,13,-1
 92 47 l 1,14,-1
 291 47 l 1,15,-1
 291 0 l 1,16,-1
 41 0 l 1,17,-1
 41 399 l 1,18,-1
 287 399 l 1,7,-1
EndSplineSet
Validated: 1
Position2: "'cpsp' Capital Spacing lookup 0 subtable" dx=5 dy=0 dh=10 dv=0
EndChar

StartChar: Ecircumflex
Encoding: 202 202 32
Width: 319
VWidth: 659
GlyphClass: 2
Flags: W
LayerCount: 2
Back
Fore
SplineSet
159 481 m 1,0,-1
 133 435 l 1,1,-1
 87 435 l 1,2,-1
 137 514 l 1,3,-1
 183 514 l 1,4,-1
 232 435 l 1,5,-1
 185 435 l 1,6,-1
 159 481 l 1,0,-1
287 399 m 1,7,-1
 287 353 l 1,8,-1
 92 353 l 1,9,-1
 92 228 l 1,10,-1
 262 228 l 1,11,-1
 262 181 l 1,12,-1
 92 181 l 1,13,-1
 92 47 l 1,14,-1
 291 47 l 1,15,-1
 291 0 l 1,16,-1
 41 0 l 1,17,-1
 41 399 l 1,18,-1
 287 399 l 1,7,-1
EndSplineSet
Validated: 1
Position2: "'cpsp' Capital Spacing lookup 0 subtable" dx=5 dy=0 dh=10 dv=0
EndChar

StartChar: Edieresis
Encoding: 203 203 33
Width: 319
VWidth: 659
GlyphClass: 2
Flags: W
LayerCount: 2
Back
Fore
SplineSet
90 459 m 1,0,-1
 90 515 l 1,1,-1
 141 515 l 1,2,-1
 141 459 l 1,3,-1
 90 459 l 1,0,-1
178 459 m 1,4,-1
 178 515 l 1,5,-1
 229 515 l 1,6,-1
 229 459 l 1,7,-1
 178 459 l 1,4,-1
92 353 m 1,8,-1
 92 228 l 1,9,-1
 262 228 l 1,10,-1
 262 181 l 1,11,-1
 92 181 l 1,12,-1
 92 47 l 1,13,-1
 291 47 l 1,14,-1
 291 0 l 1,15,-1
 41 0 l 1,16,-1
 41 399 l 1,17,-1
 287 399 l 1,18,-1
 287 353 l 1,19,-1
 92 353 l 1,8,-1
EndSplineSet
Validated: 1
Position2: "'cpsp' Capital Spacing lookup 0 subtable" dx=5 dy=0 dh=10 dv=0
EndChar

StartChar: Edotaccent
Encoding: 278 278 34
Width: 319
VWidth: 659
GlyphClass: 2
Flags: W
LayerCount: 2
Back
Fore
SplineSet
134 515 m 1,0,-1
 185 515 l 1,1,-1
 185 459 l 1,2,-1
 134 459 l 1,3,-1
 134 515 l 1,0,-1
287 399 m 1,4,-1
 287 353 l 1,5,-1
 92 353 l 1,6,-1
 92 228 l 1,7,-1
 262 228 l 1,8,-1
 262 181 l 1,9,-1
 92 181 l 1,10,-1
 92 47 l 1,11,-1
 291 47 l 1,12,-1
 291 0 l 1,13,-1
 41 0 l 1,14,-1
 41 399 l 1,15,-1
 287 399 l 1,4,-1
EndSplineSet
Validated: 1
Position2: "'cpsp' Capital Spacing lookup 0 subtable" dx=5 dy=0 dh=10 dv=0
EndChar

StartChar: Egrave
Encoding: 200 200 35
Width: 319
VWidth: 659
GlyphClass: 2
Flags: W
LayerCount: 2
Back
Fore
SplineSet
154 438 m 1,0,-1
 91 513 l 1,1,-1
 92 515 l 1,2,-1
 144 515 l 1,3,-1
 194 438 l 1,4,-1
 154 438 l 1,0,-1
92 353 m 1,5,-1
 92 228 l 1,6,-1
 262 228 l 1,7,-1
 262 181 l 1,8,-1
 92 181 l 1,9,-1
 92 47 l 1,10,-1
 291 47 l 1,11,-1
 291 0 l 1,12,-1
 41 0 l 1,13,-1
 41 399 l 1,14,-1
 287 399 l 1,15,-1
 287 353 l 1,16,-1
 92 353 l 1,5,-1
EndSplineSet
Validated: 1
Position2: "'cpsp' Capital Spacing lookup 0 subtable" dx=5 dy=0 dh=10 dv=0
EndChar

StartChar: Emacron
Encoding: 274 274 36
Width: 319
VWidth: 659
GlyphClass: 2
Flags: W
LayerCount: 2
Back
Fore
SplineSet
86 484 m 1,0,-1
 233 484 l 1,1,-1
 233 442 l 1,2,-1
 86 442 l 1,3,-1
 86 484 l 1,0,-1
287 399 m 1,4,-1
 287 353 l 1,5,-1
 92 353 l 1,6,-1
 92 228 l 1,7,-1
 262 228 l 1,8,-1
 262 181 l 1,9,-1
 92 181 l 1,10,-1
 92 47 l 1,11,-1
 291 47 l 1,12,-1
 291 0 l 1,13,-1
 41 0 l 1,14,-1
 41 399 l 1,15,-1
 287 399 l 1,4,-1
EndSplineSet
Validated: 1
Position2: "'cpsp' Capital Spacing lookup 0 subtable" dx=5 dy=0 dh=10 dv=0
EndChar

StartChar: Eogonek
Encoding: 280 280 37
Width: 319
VWidth: 659
GlyphClass: 2
Flags: W
LayerCount: 2
Back
Fore
SplineSet
92 228 m 1,0,-1
 262 228 l 1,1,-1
 262 181 l 1,2,-1
 92 181 l 1,3,-1
 92 47 l 1,4,-1
 291 47 l 1,5,-1
 291 0 l 1,6,7
 277 -18 277 -18 277 -36 c 0,8,9
 277 -50 277 -50 283.5 -59 c 128,-1,10
 290 -68 290 -68 304 -68 c 2,11,-1
 322 -68 l 1,12,-1
 322 -98 l 1,13,14
 301 -106 301 -106 286 -106 c 0,15,16
 264 -106 264 -106 247.5 -93.5 c 128,-1,17
 231 -81 231 -81 231 -53 c 0,18,19
 231 -24 231 -24 253 0 c 1,20,-1
 41 0 l 1,21,-1
 41 399 l 1,22,-1
 287 399 l 1,23,-1
 287 353 l 1,24,-1
 92 353 l 1,25,-1
 92 228 l 1,0,-1
EndSplineSet
Validated: 1
Position2: "'cpsp' Capital Spacing lookup 0 subtable" dx=5 dy=0 dh=10 dv=0
EndChar

StartChar: F
Encoding: 70 70 38
Width: 292
VWidth: 659
GlyphClass: 2
Flags: W
LayerCount: 2
Back
Fore
SplineSet
272 399 m 1,0,-1
 272 353 l 1,1,-1
 92 353 l 1,2,-1
 92 223 l 1,3,-1
 250 223 l 1,4,-1
 250 177 l 1,5,-1
 92 177 l 1,6,-1
 92 0 l 1,7,-1
 41 0 l 1,8,-1
 41 399 l 1,9,-1
 272 399 l 1,0,-1
EndSplineSet
Validated: 1
Position2: "'cpsp' Capital Spacing lookup 0 subtable" dx=5 dy=0 dh=10 dv=0
EndChar

StartChar: G
Encoding: 71 71 39
Width: 372
VWidth: 659
GlyphClass: 2
Flags: W
AnchorPoint: "Anchor-1" 186 0 basechar 0
AnchorPoint: "Anchor-0" 186 399 basechar 0
LayerCount: 2
Back
Fore
SplineSet
178 208 m 1,0,-1
 334 208 l 1,1,-1
 334 0 l 1,2,-1
 300 0 l 1,3,-1
 289 44 l 1,4,5
 254 -7 254 -7 186 -7 c 0,6,7
 109 -7 109 -7 68.5 45 c 128,-1,8
 28 97 28 97 28 200 c 0,9,10
 28 302 28 302 70 354.5 c 128,-1,11
 112 407 112 407 188 407 c 0,12,13
 254 407 254 407 294 370.5 c 128,-1,14
 334 334 334 334 334 264 c 1,15,-1
 281 264 l 1,16,17
 281 311 281 311 256 335 c 128,-1,18
 231 359 231 359 188 359 c 0,19,20
 138 359 138 359 110 322.5 c 128,-1,21
 82 286 82 286 82 214 c 2,22,-1
 82 185 l 2,23,24
 82 113 82 113 108.5 76.5 c 128,-1,25
 135 40 135 40 186 40 c 0,26,27
 235 40 235 40 258 68 c 128,-1,28
 281 96 281 96 281 154 c 2,29,-1
 281 163 l 1,30,-1
 178 163 l 1,31,-1
 178 208 l 1,0,-1
EndSplineSet
Validated: 1
Position2: "'cpsp' Capital Spacing lookup 0 subtable" dx=5 dy=0 dh=10 dv=0
EndChar

StartChar: Gbreve
Encoding: 286 286 40
Width: 372
VWidth: 659
GlyphClass: 2
Flags: W
LayerCount: 2
Back
Fore
SplineSet
134.5 475.5 m 128,-1,1
 114 493 114 493 114 515 c 1,2,-1
 152 515 l 1,3,4
 153 508 153 508 163 501.5 c 128,-1,5
 173 495 173 495 186 495 c 0,6,7
 200 495 200 495 209.5 501 c 128,-1,8
 219 507 219 507 221 515 c 1,9,-1
 258 515 l 1,10,11
 258 493 258 493 238 475.5 c 128,-1,12
 218 458 218 458 186 458 c 0,13,0
 155 458 155 458 134.5 475.5 c 128,-1,1
178 208 m 1,14,-1
 334 208 l 1,15,-1
 334 0 l 1,16,-1
 300 0 l 1,17,-1
 289 44 l 1,18,19
 254 -7 254 -7 186 -7 c 0,20,21
 109 -7 109 -7 68.5 45 c 128,-1,22
 28 97 28 97 28 200 c 0,23,24
 28 302 28 302 70 354.5 c 128,-1,25
 112 407 112 407 188 407 c 0,26,27
 254 407 254 407 294 370.5 c 128,-1,28
 334 334 334 334 334 264 c 1,29,-1
 281 264 l 1,30,31
 281 311 281 311 256 335 c 128,-1,32
 231 359 231 359 188 359 c 0,33,34
 138 359 138 359 110 322.5 c 128,-1,35
 82 286 82 286 82 214 c 2,36,-1
 82 185 l 2,37,38
 82 113 82 113 108.5 76.5 c 128,-1,39
 135 40 135 40 186 40 c 0,40,41
 235 40 235 40 258 68 c 128,-1,42
 281 96 281 96 281 154 c 2,43,-1
 281 163 l 1,44,-1
 178 163 l 1,45,-1
 178 208 l 1,14,-1
EndSplineSet
Validated: 1
Position2: "'cpsp' Capital Spacing lookup 0 subtable" dx=5 dy=0 dh=10 dv=0
EndChar

StartChar: Gcircumflex
Encoding: 284 284 41
Width: 372
VWidth: 659
GlyphClass: 2
Flags: W
LayerCount: 2
Back
Fore
SplineSet
160 435 m 1,0,-1
 113 435 l 1,1,-1
 163 514 l 1,2,-1
 209 514 l 1,3,-1
 258 435 l 1,4,-1
 212 435 l 1,5,-1
 186 481 l 1,6,-1
 160 435 l 1,0,-1
178 208 m 1,7,-1
 334 208 l 1,8,-1
 334 0 l 1,9,-1
 300 0 l 1,10,-1
 289 44 l 1,11,12
 254 -7 254 -7 186 -7 c 0,13,14
 109 -7 109 -7 68.5 45 c 128,-1,15
 28 97 28 97 28 200 c 0,16,17
 28 302 28 302 70 354.5 c 128,-1,18
 112 407 112 407 188 407 c 0,19,20
 254 407 254 407 294 370.5 c 128,-1,21
 334 334 334 334 334 264 c 1,22,-1
 281 264 l 1,23,24
 281 311 281 311 256 335 c 128,-1,25
 231 359 231 359 188 359 c 0,26,27
 138 359 138 359 110 322.5 c 128,-1,28
 82 286 82 286 82 214 c 2,29,-1
 82 185 l 2,30,31
 82 113 82 113 108.5 76.5 c 128,-1,32
 135 40 135 40 186 40 c 0,33,34
 235 40 235 40 258 68 c 128,-1,35
 281 96 281 96 281 154 c 2,36,-1
 281 163 l 1,37,-1
 178 163 l 1,38,-1
 178 208 l 1,7,-1
EndSplineSet
Validated: 1
Position2: "'cpsp' Capital Spacing lookup 0 subtable" dx=5 dy=0 dh=10 dv=0
EndChar

StartChar: Gcommaaccent
Encoding: 290 290 42
Width: 372
VWidth: 659
GlyphClass: 2
Flags: W
LayerCount: 2
Back
Fore
SplineSet
178 208 m 1,0,-1
 334 208 l 1,1,-1
 334 0 l 1,2,-1
 300 0 l 1,3,-1
 289 44 l 1,4,5
 254 -7 254 -7 186 -7 c 0,6,7
 109 -7 109 -7 68.5 45 c 128,-1,8
 28 97 28 97 28 200 c 0,9,10
 28 302 28 302 70 354.5 c 128,-1,11
 112 407 112 407 188 407 c 0,12,13
 254 407 254 407 294 370.5 c 128,-1,14
 334 334 334 334 334 264 c 1,15,-1
 281 264 l 1,16,17
 281 311 281 311 256 335 c 128,-1,18
 231 359 231 359 188 359 c 0,19,20
 138 359 138 359 110 322.5 c 128,-1,21
 82 286 82 286 82 214 c 2,22,-1
 82 185 l 2,23,24
 82 113 82 113 108.5 76.5 c 128,-1,25
 135 40 135 40 186 40 c 0,26,27
 235 40 235 40 258 68 c 128,-1,28
 281 96 281 96 281 154 c 2,29,-1
 281 163 l 1,30,-1
 178 163 l 1,31,-1
 178 208 l 1,0,-1
161 -35 m 1,32,-1
 211 -35 l 1,33,-1
 211 -84 l 1,34,-1
 194 -129 l 1,35,-1
 168 -129 l 1,36,-1
 181 -88 l 1,37,-1
 161 -88 l 1,38,-1
 161 -35 l 1,32,-1
EndSplineSet
Validated: 1
Position2: "'cpsp' Capital Spacing lookup 0 subtable" dx=5 dy=0 dh=10 dv=0
EndChar

StartChar: Gdotaccent
Encoding: 288 288 43
Width: 372
VWidth: 659
GlyphClass: 2
Flags: W
LayerCount: 2
Back
Fore
SplineSet
212 459 m 1,0,-1
 161 459 l 1,1,-1
 161 515 l 1,2,-1
 212 515 l 1,3,-1
 212 459 l 1,0,-1
178 208 m 1,4,-1
 334 208 l 1,5,-1
 334 0 l 1,6,-1
 300 0 l 1,7,-1
 289 44 l 1,8,9
 254 -7 254 -7 186 -7 c 0,10,11
 109 -7 109 -7 68.5 45 c 128,-1,12
 28 97 28 97 28 200 c 0,13,14
 28 302 28 302 70 354.5 c 128,-1,15
 112 407 112 407 188 407 c 0,16,17
 254 407 254 407 294 370.5 c 128,-1,18
 334 334 334 334 334 264 c 1,19,-1
 281 264 l 1,20,21
 281 311 281 311 256 335 c 128,-1,22
 231 359 231 359 188 359 c 0,23,24
 138 359 138 359 110 322.5 c 128,-1,25
 82 286 82 286 82 214 c 2,26,-1
 82 185 l 2,27,28
 82 113 82 113 108.5 76.5 c 128,-1,29
 135 40 135 40 186 40 c 0,30,31
 235 40 235 40 258 68 c 128,-1,32
 281 96 281 96 281 154 c 2,33,-1
 281 163 l 1,34,-1
 178 163 l 1,35,-1
 178 208 l 1,4,-1
EndSplineSet
Validated: 1
Position2: "'cpsp' Capital Spacing lookup 0 subtable" dx=5 dy=0 dh=10 dv=0
EndChar

StartChar: H
Encoding: 72 72 44
Width: 345
VWidth: 659
GlyphClass: 2
Flags: W
AnchorPoint: "Anchor-1" 0 0 basechar 0
AnchorPoint: "Anchor-0" 173 399 basechar 0
LayerCount: 2
Back
Fore
SplineSet
253 0 m 1,0,-1
 253 181 l 1,1,-1
 92 181 l 1,2,-1
 92 0 l 1,3,-1
 41 0 l 1,4,-1
 41 399 l 1,5,-1
 92 399 l 1,6,-1
 92 228 l 1,7,-1
 253 228 l 1,8,-1
 253 399 l 1,9,-1
 304 399 l 1,10,-1
 304 0 l 1,11,-1
 253 0 l 1,0,-1
EndSplineSet
Validated: 1
Position2: "'cpsp' Capital Spacing lookup 0 subtable" dx=5 dy=0 dh=10 dv=0
EndChar

StartChar: Hbar
Encoding: 294 294 45
Width: 345
VWidth: 659
GlyphClass: 2
Flags: W
LayerCount: 2
Back
Fore
SplineSet
304 0 m 1,0,-1
 253 0 l 1,1,-1
 253 179 l 1,2,-1
 92 179 l 1,3,-1
 92 0 l 1,4,-1
 41 0 l 1,5,-1
 41 285 l 1,6,-1
 12 285 l 1,7,-1
 12 328 l 1,8,-1
 41 328 l 1,9,-1
 41 399 l 1,10,-1
 92 399 l 1,11,-1
 92 328 l 1,12,-1
 253 328 l 1,13,-1
 253 399 l 1,14,-1
 304 399 l 1,15,-1
 304 328 l 1,16,-1
 333 328 l 1,17,-1
 333 285 l 1,18,-1
 304 285 l 1,19,-1
 304 0 l 1,0,-1
92 285 m 1,20,-1
 92 225 l 1,21,-1
 253 225 l 1,22,-1
 253 285 l 1,23,-1
 92 285 l 1,20,-1
EndSplineSet
Validated: 1
Position2: "'cpsp' Capital Spacing lookup 0 subtable" dx=5 dy=0 dh=10 dv=0
EndChar

StartChar: Hcircumflex
Encoding: 292 292 46
Width: 345
VWidth: 659
GlyphClass: 2
Flags: W
LayerCount: 2
Back
Fore
SplineSet
198 435 m 1,0,-1
 173 481 l 1,1,-1
 146 435 l 1,2,-1
 100 435 l 1,3,-1
 150 514 l 1,4,-1
 195 514 l 1,5,-1
 245 435 l 1,6,-1
 198 435 l 1,0,-1
253 0 m 1,7,-1
 253 181 l 1,8,-1
 92 181 l 1,9,-1
 92 0 l 1,10,-1
 41 0 l 1,11,-1
 41 399 l 1,12,-1
 92 399 l 1,13,-1
 92 228 l 1,14,-1
 253 228 l 1,15,-1
 253 399 l 1,16,-1
 304 399 l 1,17,-1
 304 0 l 1,18,-1
 253 0 l 1,7,-1
EndSplineSet
Validated: 1
Position2: "'cpsp' Capital Spacing lookup 0 subtable" dx=5 dy=0 dh=10 dv=0
EndChar

StartChar: I
Encoding: 73 73 47
Width: 133
VWidth: 659
GlyphClass: 2
Flags: W
AnchorPoint: "Anchor-1" 0 0 basechar 0
AnchorPoint: "Anchor-0" 67 399 basechar 0
LayerCount: 2
Back
Fore
SplineSet
41 399 m 1,0,-1
 92 399 l 1,1,-1
 92 0 l 1,2,-1
 41 0 l 1,3,-1
 41 399 l 1,0,-1
EndSplineSet
Validated: 1
Position2: "'cpsp' Capital Spacing lookup 0 subtable" dx=5 dy=0 dh=10 dv=0
EndChar

StartChar: IJ
Encoding: 306 306 48
Width: 372
VWidth: 659
GlyphClass: 2
Flags: W
LayerCount: 2
Back
Fore
SplineSet
41 0 m 1,0,-1
 41 399 l 1,1,-1
 92 399 l 1,2,-1
 92 0 l 1,3,-1
 41 0 l 1,0,-1
309 19 m 128,-1,5
 284 -7 284 -7 237 -7 c 0,6,7
 191 -7 191 -7 165.5 19 c 128,-1,8
 140 45 140 45 140 95 c 2,9,-1
 140 121 l 1,10,-1
 192 121 l 1,11,-1
 192 92 l 2,12,13
 192 67 192 67 203.5 53.5 c 128,-1,14
 215 40 215 40 237 40 c 256,15,16
 259 40 259 40 271 53.5 c 128,-1,17
 283 67 283 67 283 92 c 2,18,-1
 283 399 l 1,19,-1
 334 399 l 1,20,-1
 334 95 l 2,21,4
 334 45 334 45 309 19 c 128,-1,5
EndSplineSet
Validated: 1
Position2: "'cpsp' Capital Spacing lookup 0 subtable" dx=5 dy=0 dh=10 dv=0
EndChar

StartChar: Iacute
Encoding: 205 205 49
Width: 133
VWidth: 659
GlyphClass: 2
Flags: W
LayerCount: 2
Back
Fore
SplineSet
72 438 m 1,0,-1
 32 438 l 1,1,-1
 82 515 l 1,2,-1
 134 515 l 1,3,-1
 134 513 l 1,4,-1
 72 438 l 1,0,-1
41 0 m 1,5,-1
 41 399 l 1,6,-1
 92 399 l 1,7,-1
 92 0 l 1,8,-1
 41 0 l 1,5,-1
EndSplineSet
Validated: 1
Position2: "'cpsp' Capital Spacing lookup 0 subtable" dx=5 dy=0 dh=10 dv=0
EndChar

StartChar: Ibreve
Encoding: 300 300 50
Width: 133
VWidth: 659
GlyphClass: 2
Flags: W
LayerCount: 2
Back
Fore
SplineSet
118 475.5 m 128,-1,1
 98 458 98 458 67 458 c 0,2,3
 35 458 35 458 14.5 475.5 c 128,-1,4
 -6 493 -6 493 -6 515 c 1,5,-1
 32 515 l 1,6,7
 34 507 34 507 43.5 501 c 128,-1,8
 53 495 53 495 67 495 c 0,9,10
 80 495 80 495 90 501.5 c 128,-1,11
 100 508 100 508 101 515 c 1,12,-1
 138 515 l 1,13,0
 138 493 138 493 118 475.5 c 128,-1,1
41 399 m 1,14,-1
 92 399 l 1,15,-1
 92 0 l 1,16,-1
 41 0 l 1,17,-1
 41 399 l 1,14,-1
EndSplineSet
Validated: 1
Position2: "'cpsp' Capital Spacing lookup 0 subtable" dx=5 dy=0 dh=10 dv=0
EndChar

StartChar: Icircumflex
Encoding: 206 206 51
Width: 133
VWidth: 659
GlyphClass: 2
Flags: W
LayerCount: 2
Back
Fore
SplineSet
67 481 m 1,0,-1
 41 435 l 1,1,-1
 -7 435 l 1,2,-1
 44 514 l 1,3,-1
 90 514 l 1,4,-1
 139 435 l 1,5,-1
 93 435 l 1,6,-1
 67 481 l 1,0,-1
41 399 m 1,7,-1
 92 399 l 1,8,-1
 92 0 l 1,9,-1
 41 0 l 1,10,-1
 41 399 l 1,7,-1
EndSplineSet
Validated: 1
Position2: "'cpsp' Capital Spacing lookup 0 subtable" dx=5 dy=0 dh=10 dv=0
EndChar

StartChar: Idieresis
Encoding: 207 207 52
Width: 133
VWidth: 659
GlyphClass: 2
Flags: W
LayerCount: 2
Back
Fore
SplineSet
-3 459 m 1,0,-1
 -3 515 l 1,1,-1
 48 515 l 1,2,-1
 48 459 l 1,3,-1
 -3 459 l 1,0,-1
85 459 m 1,4,-1
 85 515 l 1,5,-1
 136 515 l 1,6,-1
 136 459 l 1,7,-1
 85 459 l 1,4,-1
41 0 m 1,8,-1
 41 399 l 1,9,-1
 92 399 l 1,10,-1
 92 0 l 1,11,-1
 41 0 l 1,8,-1
EndSplineSet
Validated: 1
Position2: "'cpsp' Capital Spacing lookup 0 subtable" dx=5 dy=0 dh=10 dv=0
EndChar

StartChar: Idotaccent
Encoding: 304 304 53
Width: 133
VWidth: 659
GlyphClass: 2
Flags: W
LayerCount: 2
Back
Fore
SplineSet
42 515 m 1,0,-1
 92 515 l 1,1,-1
 92 459 l 1,2,-1
 42 459 l 1,3,-1
 42 515 l 1,0,-1
41 399 m 1,4,-1
 92 399 l 1,5,-1
 92 0 l 1,6,-1
 41 0 l 1,7,-1
 41 399 l 1,4,-1
EndSplineSet
Validated: 1
Position2: "'cpsp' Capital Spacing lookup 0 subtable" dx=5 dy=0 dh=10 dv=0
EndChar

StartChar: Igrave
Encoding: 204 204 54
Width: 133
VWidth: 659
GlyphClass: 2
Flags: W
LayerCount: 2
Back
Fore
SplineSet
61 438 m 1,0,-1
 -2 513 l 1,1,-1
 -1 515 l 1,2,-1
 51 515 l 1,3,-1
 101 438 l 1,4,-1
 61 438 l 1,0,-1
41 0 m 1,5,-1
 41 399 l 1,6,-1
 92 399 l 1,7,-1
 92 0 l 1,8,-1
 41 0 l 1,5,-1
EndSplineSet
Validated: 1
Position2: "'cpsp' Capital Spacing lookup 0 subtable" dx=5 dy=0 dh=10 dv=0
EndChar

StartChar: Imacron
Encoding: 298 298 55
Width: 133
VWidth: 659
GlyphClass: 2
Flags: W
LayerCount: 2
Back
Fore
SplineSet
-7 484 m 1,0,-1
 140 484 l 1,1,-1
 140 442 l 1,2,-1
 -7 442 l 1,3,-1
 -7 484 l 1,0,-1
41 399 m 1,4,-1
 92 399 l 1,5,-1
 92 0 l 1,6,-1
 41 0 l 1,7,-1
 41 399 l 1,4,-1
EndSplineSet
Validated: 1
Position2: "'cpsp' Capital Spacing lookup 0 subtable" dx=5 dy=0 dh=10 dv=0
EndChar

StartChar: Iogonek
Encoding: 302 302 56
Width: 133
VWidth: 659
GlyphClass: 2
Flags: W
LayerCount: 2
Back
Fore
SplineSet
91 -1 m 1,0,1
 78 -21 78 -21 78 -36 c 0,2,3
 78 -50 78 -50 85 -59 c 128,-1,4
 92 -68 92 -68 105 -68 c 2,5,-1
 123 -68 l 1,6,-1
 123 -98 l 1,7,8
 104 -106 104 -106 88 -106 c 0,9,10
 66 -106 66 -106 49.5 -93.5 c 128,-1,11
 33 -81 33 -81 33 -53 c 0,12,13
 33 -23 33 -23 54 0 c 1,14,-1
 41 0 l 1,15,-1
 41 399 l 1,16,-1
 92 399 l 1,17,-1
 92 0 l 1,18,-1
 91 -1 l 1,0,1
EndSplineSet
Validated: 1
Position2: "'cpsp' Capital Spacing lookup 0 subtable" dx=5 dy=0 dh=10 dv=0
EndChar

StartChar: Itilde
Encoding: 296 296 57
Width: 133
VWidth: 659
GlyphClass: 2
Flags: W
LayerCount: 2
Back
Fore
SplineSet
139 473 m 128,-1,1
 126 454 126 454 102 454 c 0,2,3
 91 454 91 454 80 458 c 128,-1,4
 69 462 69 462 67 463 c 0,5,6
 49 472 49 472 35 472 c 0,7,8
 18 472 18 472 15 454 c 1,9,-1
 -18 454 l 1,10,11
 -18 477 -18 477 -5.5 496 c 128,-1,12
 7 515 7 515 31 515 c 0,13,14
 42 515 42 515 53 511 c 128,-1,15
 64 507 64 507 66 506 c 0,16,17
 84 497 84 497 98 497 c 0,18,19
 115 497 115 497 118 515 c 1,20,-1
 152 515 l 1,21,0
 152 492 152 492 139 473 c 128,-1,1
41 399 m 1,22,-1
 92 399 l 1,23,-1
 92 0 l 1,24,-1
 41 0 l 1,25,-1
 41 399 l 1,22,-1
EndSplineSet
Validated: 1
Position2: "'cpsp' Capital Spacing lookup 0 subtable" dx=5 dy=0 dh=10 dv=0
EndChar

StartChar: J
Encoding: 74 74 58
Width: 239
VWidth: 659
GlyphClass: 2
Flags: W
AnchorPoint: "Anchor-1" 0 0 basechar 0
AnchorPoint: "Anchor-0" 119 399 basechar 0
LayerCount: 2
Back
Fore
SplineSet
175.5 19 m 128,-1,1
 150 -7 150 -7 104 -7 c 256,2,3
 58 -7 58 -7 32.5 19 c 128,-1,4
 7 45 7 45 7 95 c 2,5,-1
 7 121 l 1,6,-1
 59 121 l 1,7,-1
 59 92 l 2,8,9
 59 67 59 67 70.5 53.5 c 128,-1,10
 82 40 82 40 104 40 c 256,11,12
 126 40 126 40 138 53.5 c 128,-1,13
 150 67 150 67 150 92 c 2,14,-1
 150 399 l 1,15,-1
 201 399 l 1,16,-1
 201 95 l 2,17,0
 201 45 201 45 175.5 19 c 128,-1,1
EndSplineSet
Validated: 1
Position2: "'cpsp' Capital Spacing lookup 0 subtable" dx=5 dy=0 dh=10 dv=0
EndChar

StartChar: Jcircumflex
Encoding: 308 308 59
Width: 239
VWidth: 659
GlyphClass: 2
Flags: W
LayerCount: 2
Back
Fore
SplineSet
202 435 m 1,0,-1
 177 481 l 1,1,-1
 150 435 l 1,2,-1
 103 435 l 1,3,-1
 153 514 l 1,4,-1
 198 514 l 1,5,-1
 248 435 l 1,6,-1
 202 435 l 1,0,-1
175.5 19 m 128,-1,8
 150 -7 150 -7 104 -7 c 256,9,10
 58 -7 58 -7 32.5 19 c 128,-1,11
 7 45 7 45 7 95 c 2,12,-1
 7 121 l 1,13,-1
 59 121 l 1,14,-1
 59 92 l 2,15,16
 59 67 59 67 70.5 53.5 c 128,-1,17
 82 40 82 40 104 40 c 256,18,19
 126 40 126 40 138 53.5 c 128,-1,20
 150 67 150 67 150 92 c 2,21,-1
 150 399 l 1,22,-1
 201 399 l 1,23,-1
 201 95 l 2,24,7
 201 45 201 45 175.5 19 c 128,-1,8
EndSplineSet
Validated: 1
Position2: "'cpsp' Capital Spacing lookup 0 subtable" dx=5 dy=0 dh=10 dv=0
EndChar

StartChar: K
Encoding: 75 75 60
Width: 319
VWidth: 659
GlyphClass: 2
Flags: W
AnchorPoint: "Anchor-1" 159 0 basechar 0
AnchorPoint: "Anchor-0" 159 399 basechar 0
LayerCount: 2
Back
Fore
SplineSet
308 399 m 1,0,-1
 188 239 l 1,1,-1
 312 0 l 1,2,-1
 254 0 l 1,3,-1
 156 195 l 1,4,-1
 92 124 l 1,5,-1
 92 0 l 1,6,-1
 41 0 l 1,7,-1
 41 399 l 1,8,-1
 92 399 l 1,9,-1
 92 188 l 1,10,-1
 250 399 l 1,11,-1
 308 399 l 1,0,-1
EndSplineSet
Validated: 1
Position2: "'cpsp' Capital Spacing lookup 0 subtable" dx=5 dy=0 dh=10 dv=0
EndChar

StartChar: Kcommaaccent
Encoding: 310 310 61
Width: 319
VWidth: 659
GlyphClass: 2
Flags: W
LayerCount: 2
Back
Fore
SplineSet
308 399 m 1,0,-1
 188 239 l 1,1,-1
 312 0 l 1,2,-1
 254 0 l 1,3,-1
 156 195 l 1,4,-1
 92 124 l 1,5,-1
 92 0 l 1,6,-1
 41 0 l 1,7,-1
 41 399 l 1,8,-1
 92 399 l 1,9,-1
 92 188 l 1,10,-1
 250 399 l 1,11,-1
 308 399 l 1,0,-1
142 -129 m 1,12,-1
 154 -88 l 1,13,-1
 134 -88 l 1,14,-1
 134 -35 l 1,15,-1
 184 -35 l 1,16,-1
 184 -84 l 1,17,-1
 167 -129 l 1,18,-1
 142 -129 l 1,12,-1
EndSplineSet
Validated: 1
Position2: "'cpsp' Capital Spacing lookup 0 subtable" dx=5 dy=0 dh=10 dv=0
EndChar

StartChar: L
Encoding: 76 76 62
Width: 266
VWidth: 659
GlyphClass: 2
Flags: W
AnchorPoint: "Anchor-1" 133 0 basechar 0
AnchorPoint: "Anchor-0" 133 399 basechar 0
LayerCount: 2
Back
Fore
SplineSet
255 47 m 1,0,-1
 255 0 l 1,1,-1
 41 0 l 1,2,-1
 41 399 l 1,3,-1
 92 399 l 1,4,-1
 92 47 l 1,5,-1
 255 47 l 1,0,-1
EndSplineSet
Validated: 1
Position2: "'cpsp' Capital Spacing lookup 0 subtable" dx=5 dy=0 dh=10 dv=0
EndChar

StartChar: Lacute
Encoding: 313 313 63
Width: 266
VWidth: 659
GlyphClass: 2
Flags: W
LayerCount: 2
Back
Fore
SplineSet
71 438 m 1,0,-1
 30 438 l 1,1,-1
 80 515 l 1,2,-1
 132 515 l 1,3,-1
 133 513 l 1,4,-1
 71 438 l 1,0,-1
255 47 m 1,5,-1
 255 0 l 1,6,-1
 41 0 l 1,7,-1
 41 399 l 1,8,-1
 92 399 l 1,9,-1
 92 47 l 1,10,-1
 255 47 l 1,5,-1
EndSplineSet
Validated: 1
Position2: "'cpsp' Capital Spacing lookup 0 subtable" dx=5 dy=0 dh=10 dv=0
EndChar

StartChar: Lcaron
Encoding: 317 317 64
Width: 266
VWidth: 659
GlyphClass: 2
Flags: W
LayerCount: 2
Back
Fore
SplineSet
255 47 m 1,0,-1
 255 0 l 1,1,-1
 41 0 l 1,2,-1
 41 399 l 1,3,-1
 92 399 l 1,4,-1
 92 47 l 1,5,-1
 255 47 l 1,0,-1
216 264 m 1,6,-1
 186 264 l 1,7,-1
 209 337 l 1,8,-1
 186 337 l 1,9,-1
 186 399 l 1,10,-1
 244 399 l 1,11,-1
 244 342 l 1,12,-1
 216 264 l 1,6,-1
EndSplineSet
Validated: 1
Position2: "'cpsp' Capital Spacing lookup 0 subtable" dx=5 dy=0 dh=10 dv=0
EndChar

StartChar: Lcommaaccent
Encoding: 315 315 65
Width: 266
VWidth: 659
GlyphClass: 2
Flags: W
LayerCount: 2
Back
Fore
SplineSet
255 47 m 1,0,-1
 255 0 l 1,1,-1
 41 0 l 1,2,-1
 41 399 l 1,3,-1
 92 399 l 1,4,-1
 92 47 l 1,5,-1
 255 47 l 1,0,-1
141 -129 m 1,6,-1
 115 -129 l 1,7,-1
 128 -88 l 1,8,-1
 108 -88 l 1,9,-1
 108 -35 l 1,10,-1
 158 -35 l 1,11,-1
 158 -84 l 1,12,-1
 141 -129 l 1,6,-1
EndSplineSet
Validated: 1
Position2: "'cpsp' Capital Spacing lookup 0 subtable" dx=5 dy=0 dh=10 dv=0
EndChar

StartChar: Ldot
Encoding: 319 319 66
Width: 266
VWidth: 659
GlyphClass: 2
Flags: W
LayerCount: 2
Back
Fore
SplineSet
255 47 m 1,0,-1
 255 0 l 1,1,-1
 41 0 l 1,2,-1
 41 399 l 1,3,-1
 92 399 l 1,4,-1
 92 47 l 1,5,-1
 255 47 l 1,0,-1
172 241 m 1,6,-1
 172 306 l 1,7,-1
 231 306 l 1,8,-1
 231 241 l 1,9,-1
 172 241 l 1,6,-1
EndSplineSet
Validated: 1
Ligature2: "Ligature Substitution lookup 41 subtable" L periodcentered
Position2: "'cpsp' Capital Spacing lookup 0 subtable" dx=5 dy=0 dh=10 dv=0
EndChar

StartChar: Lslash
Encoding: 321 321 67
Width: 266
VWidth: 659
GlyphClass: 2
Flags: W
LayerCount: 2
Back
Fore
SplineSet
172 301 m 1,0,-1
 172 258 l 1,1,-1
 92 188 l 1,2,-1
 92 47 l 1,3,-1
 255 47 l 1,4,-1
 255 0 l 1,5,-1
 41 0 l 1,6,-1
 41 143 l 1,7,-1
 0 107 l 1,8,-1
 0 148 l 1,9,-1
 41 185 l 1,10,-1
 41 399 l 1,11,-1
 92 399 l 1,12,-1
 92 230 l 1,13,-1
 172 301 l 1,0,-1
EndSplineSet
Validated: 1
Position2: "'cpsp' Capital Spacing lookup 0 subtable" dx=5 dy=0 dh=10 dv=0
EndChar

StartChar: M
Encoding: 77 77 68
Width: 398
VWidth: 659
GlyphClass: 2
Flags: W
LayerCount: 2
Back
Fore
SplineSet
310 0 m 1,0,-1
 310 290 l 2,1,2
 310 306 310 306 311.5 325 c 128,-1,3
 313 344 313 344 314 352 c 1,4,-1
 312 352 l 1,5,6
 304 310 304 310 299 290 c 2,7,-1
 219 0 l 1,8,-1
 173 0 l 1,9,-1
 93 290 l 2,10,11
 87 318 87 318 85 332 c 0,12,13
 83 340 83 340 81 352 c 1,14,-1
 78 352 l 1,15,16
 79 344 79 344 80.5 324.5 c 128,-1,17
 82 305 82 305 82 290 c 2,18,-1
 82 0 l 1,19,-1
 36 0 l 1,20,-1
 36 399 l 1,21,-1
 114 399 l 1,22,-1
 185 138 l 2,23,24
 189 119 189 119 193 88 c 128,-1,25
 197 57 197 57 198 47 c 1,26,-1
 200 47 l 1,27,28
 201 57 201 57 205 88.5 c 128,-1,29
 209 120 209 120 214 138 c 2,30,-1
 284 399 l 1,31,-1
 362 399 l 1,32,-1
 362 0 l 1,33,-1
 310 0 l 1,0,-1
EndSplineSet
Validated: 1
Position2: "'cpsp' Capital Spacing lookup 0 subtable" dx=5 dy=0 dh=10 dv=0
EndChar

StartChar: N
Encoding: 78 78 69
Width: 345
VWidth: 659
GlyphClass: 2
Flags: W
AnchorPoint: "Anchor-1" 173 0 basechar 0
AnchorPoint: "Anchor-0" 173 399 basechar 0
LayerCount: 2
Back
Fore
SplineSet
262 0 m 1,0,-1
 112 254 l 2,1,2
 103 270 103 270 96 286 c 128,-1,3
 89 302 89 302 86 308 c 1,4,-1
 84 308 l 1,5,6
 84 302 84 302 85.5 286 c 128,-1,7
 87 270 87 270 87 254 c 2,8,-1
 87 0 l 1,9,-1
 41 0 l 1,10,-1
 41 399 l 1,11,-1
 85 399 l 1,12,-1
 233 148 l 2,13,14
 239 139 239 139 247.5 120 c 128,-1,15
 256 101 256 101 258 95 c 1,16,-1
 260 96 l 1,17,-1
 258 148 l 1,18,-1
 258 399 l 1,19,-1
 304 399 l 1,20,-1
 304 0 l 1,21,-1
 262 0 l 1,0,-1
EndSplineSet
Validated: 1
Position2: "'cpsp' Capital Spacing lookup 0 subtable" dx=5 dy=0 dh=10 dv=0
EndChar

StartChar: Nacute
Encoding: 323 323 70
Width: 345
VWidth: 659
GlyphClass: 2
Flags: W
LayerCount: 2
Back
Fore
SplineSet
179 438 m 1,0,-1
 138 438 l 1,1,-1
 188 515 l 1,2,-1
 240 515 l 1,3,-1
 241 513 l 1,4,-1
 179 438 l 1,0,-1
262 0 m 1,5,-1
 112 254 l 2,6,7
 103 270 103 270 96 286 c 128,-1,8
 89 302 89 302 86 308 c 1,9,-1
 84 308 l 1,10,11
 84 302 84 302 85.5 286 c 128,-1,12
 87 270 87 270 87 254 c 2,13,-1
 87 0 l 1,14,-1
 41 0 l 1,15,-1
 41 399 l 1,16,-1
 85 399 l 1,17,-1
 233 148 l 2,18,19
 239 139 239 139 247.5 120 c 128,-1,20
 256 101 256 101 258 95 c 1,21,-1
 260 96 l 1,22,-1
 258 148 l 1,23,-1
 258 399 l 1,24,-1
 304 399 l 1,25,-1
 304 0 l 1,26,-1
 262 0 l 1,5,-1
EndSplineSet
Validated: 1
Position2: "'cpsp' Capital Spacing lookup 0 subtable" dx=5 dy=0 dh=10 dv=0
EndChar

StartChar: Ncaron
Encoding: 327 327 71
Width: 345
VWidth: 659
GlyphClass: 2
Flags: W
LayerCount: 2
Back
Fore
SplineSet
149 436 m 1,0,-1
 100 515 l 1,1,-1
 146 515 l 1,2,-1
 173 469 l 1,3,-1
 198 515 l 1,4,-1
 245 515 l 1,5,-1
 194 436 l 1,6,-1
 149 436 l 1,0,-1
262 0 m 1,7,-1
 112 254 l 2,8,9
 103 270 103 270 96 286 c 128,-1,10
 89 302 89 302 86 308 c 1,11,-1
 84 308 l 1,12,13
 84 302 84 302 85.5 286 c 128,-1,14
 87 270 87 270 87 254 c 2,15,-1
 87 0 l 1,16,-1
 41 0 l 1,17,-1
 41 399 l 1,18,-1
 85 399 l 1,19,-1
 233 148 l 2,20,21
 239 139 239 139 247.5 120 c 128,-1,22
 256 101 256 101 258 95 c 1,23,-1
 260 96 l 1,24,-1
 258 148 l 1,25,-1
 258 399 l 1,26,-1
 304 399 l 1,27,-1
 304 0 l 1,28,-1
 262 0 l 1,7,-1
EndSplineSet
Validated: 1
Position2: "'cpsp' Capital Spacing lookup 0 subtable" dx=5 dy=0 dh=10 dv=0
EndChar

StartChar: Ncommaaccent
Encoding: 325 325 72
Width: 345
VWidth: 659
GlyphClass: 2
Flags: W
LayerCount: 2
Back
Fore
SplineSet
262 0 m 1,0,-1
 112 254 l 2,1,2
 103 270 103 270 96 286 c 128,-1,3
 89 302 89 302 86 308 c 1,4,-1
 84 308 l 1,5,6
 84 302 84 302 85.5 286 c 128,-1,7
 87 270 87 270 87 254 c 2,8,-1
 87 0 l 1,9,-1
 41 0 l 1,10,-1
 41 399 l 1,11,-1
 85 399 l 1,12,-1
 233 148 l 2,13,14
 239 139 239 139 247.5 120 c 128,-1,15
 256 101 256 101 258 95 c 1,16,-1
 260 96 l 1,17,-1
 258 148 l 1,18,-1
 258 399 l 1,19,-1
 304 399 l 1,20,-1
 304 0 l 1,21,-1
 262 0 l 1,0,-1
181 -129 m 1,22,-1
 154 -129 l 1,23,-1
 168 -88 l 1,24,-1
 148 -88 l 1,25,-1
 148 -35 l 1,26,-1
 198 -35 l 1,27,-1
 198 -84 l 1,28,-1
 181 -129 l 1,22,-1
EndSplineSet
Validated: 1
Position2: "'cpsp' Capital Spacing lookup 0 subtable" dx=5 dy=0 dh=10 dv=0
EndChar

StartChar: Eng
Encoding: 330 330 73
Width: 345
VWidth: 659
GlyphClass: 2
Flags: W
LayerCount: 2
Back
Fore
SplineSet
290 -86 m 128,-1,1
 276 -106 276 -106 244 -106 c 0,2,3
 222 -106 222 -106 204 -99 c 1,4,-1
 204 -66 l 1,5,-1
 229 -66 l 2,6,7
 256 -66 256 -66 256 -38 c 2,8,-1
 256 9 l 1,9,-1
 112 254 l 2,10,11
 103 270 103 270 96 286 c 128,-1,12
 89 302 89 302 86 308 c 1,13,-1
 84 308 l 1,14,15
 84 302 84 302 85.5 286 c 128,-1,16
 87 270 87 270 87 254 c 2,17,-1
 87 0 l 1,18,-1
 41 0 l 1,19,-1
 41 399 l 1,20,-1
 85 399 l 1,21,-1
 233 148 l 2,22,23
 239 139 239 139 247.5 120 c 128,-1,24
 256 101 256 101 258 95 c 1,25,-1
 260 96 l 1,26,-1
 258 148 l 1,27,-1
 256 399 l 1,28,-1
 304 399 l 1,29,-1
 304 -36 l 2,30,0
 304 -66 304 -66 290 -86 c 128,-1,1
EndSplineSet
Validated: 1
Position2: "'cpsp' Capital Spacing lookup 0 subtable" dx=5 dy=0 dh=10 dv=0
EndChar

StartChar: Ntilde
Encoding: 209 209 74
Width: 345
VWidth: 659
GlyphClass: 2
Flags: W
LayerCount: 2
Back
Fore
SplineSet
245 473 m 128,-1,1
 232 454 232 454 208 454 c 0,2,3
 197 454 197 454 186 458 c 128,-1,4
 175 462 175 462 172 463 c 0,5,6
 154 472 154 472 141 472 c 0,7,8
 124 472 124 472 121 454 c 1,9,-1
 88 454 l 1,10,11
 88 477 88 477 100.5 496 c 128,-1,12
 113 515 113 515 137 515 c 0,13,14
 148 515 148 515 159 511 c 128,-1,15
 170 507 170 507 172 506 c 0,16,17
 190 497 190 497 204 497 c 0,18,19
 222 497 222 497 223 515 c 1,20,-1
 258 515 l 1,21,0
 258 492 258 492 245 473 c 128,-1,1
262 0 m 1,22,-1
 112 254 l 2,23,24
 103 270 103 270 96 286 c 128,-1,25
 89 302 89 302 86 308 c 1,26,-1
 84 308 l 1,27,28
 84 302 84 302 85.5 286 c 128,-1,29
 87 270 87 270 87 254 c 2,30,-1
 87 0 l 1,31,-1
 41 0 l 1,32,-1
 41 399 l 1,33,-1
 85 399 l 1,34,-1
 233 148 l 2,35,36
 239 139 239 139 247.5 120 c 128,-1,37
 256 101 256 101 258 95 c 1,38,-1
 260 96 l 1,39,-1
 258 148 l 1,40,-1
 258 399 l 1,41,-1
 304 399 l 1,42,-1
 304 0 l 1,43,-1
 262 0 l 1,22,-1
EndSplineSet
Validated: 1
Position2: "'cpsp' Capital Spacing lookup 0 subtable" dx=5 dy=0 dh=10 dv=0
EndChar

StartChar: O
Encoding: 79 79 75
Width: 372
VWidth: 659
GlyphClass: 2
Flags: W
AnchorPoint: "Anchor-1" 0 0 basechar 0
AnchorPoint: "Anchor-0" 186 399 basechar 0
LayerCount: 2
Back
Fore
SplineSet
302 354.5 m 128,-1,1
 343 302 343 302 343 200 c 256,2,3
 343 98 343 98 302 45.5 c 128,-1,4
 261 -7 261 -7 186 -7 c 256,5,6
 111 -7 111 -7 69.5 45.5 c 128,-1,7
 28 98 28 98 28 200 c 256,8,9
 28 302 28 302 69.5 354.5 c 128,-1,10
 111 407 111 407 186 407 c 256,11,0
 261 407 261 407 302 354.5 c 128,-1,1
109.5 322.5 m 128,-1,13
 82 286 82 286 82 214 c 2,14,-1
 82 185 l 2,15,16
 82 114 82 114 109.5 77 c 128,-1,17
 137 40 137 40 186 40 c 256,18,19
 235 40 235 40 262 77 c 128,-1,20
 289 114 289 114 289 185 c 2,21,-1
 289 214 l 2,22,23
 289 286 289 286 262 322.5 c 128,-1,24
 235 359 235 359 186 359 c 256,25,12
 137 359 137 359 109.5 322.5 c 128,-1,13
EndSplineSet
Validated: 1
Substitution2: "Single Substitution lookup 42 subtable" ordmasculine
Substitution2: "'aalt' Access All Alternates lookup 0 subtable" ordmasculine
Position2: "'cpsp' Capital Spacing lookup 0 subtable" dx=5 dy=0 dh=10 dv=0
EndChar

StartChar: Oacute
Encoding: 211 211 76
Width: 372
VWidth: 659
GlyphClass: 2
Flags: W
LayerCount: 2
Back
Fore
SplineSet
192 438 m 1,0,-1
 152 438 l 1,1,-1
 202 515 l 1,2,-1
 254 515 l 1,3,-1
 254 513 l 1,4,-1
 192 438 l 1,0,-1
302 354.5 m 128,-1,6
 343 302 343 302 343 200 c 256,7,8
 343 98 343 98 302 45.5 c 128,-1,9
 261 -7 261 -7 186 -7 c 256,10,11
 111 -7 111 -7 69.5 45.5 c 128,-1,12
 28 98 28 98 28 200 c 256,13,14
 28 302 28 302 69.5 354.5 c 128,-1,15
 111 407 111 407 186 407 c 256,16,5
 261 407 261 407 302 354.5 c 128,-1,6
109.5 322.5 m 128,-1,18
 82 286 82 286 82 214 c 2,19,-1
 82 185 l 2,20,21
 82 114 82 114 109.5 77 c 128,-1,22
 137 40 137 40 186 40 c 256,23,24
 235 40 235 40 262 77 c 128,-1,25
 289 114 289 114 289 185 c 2,26,-1
 289 214 l 2,27,28
 289 286 289 286 262 322.5 c 128,-1,29
 235 359 235 359 186 359 c 256,30,17
 137 359 137 359 109.5 322.5 c 128,-1,18
EndSplineSet
Validated: 1
Position2: "'cpsp' Capital Spacing lookup 0 subtable" dx=5 dy=0 dh=10 dv=0
EndChar

StartChar: Obreve
Encoding: 334 334 77
Width: 372
VWidth: 659
GlyphClass: 2
Flags: W
LayerCount: 2
Back
Fore
SplineSet
238 475.5 m 128,-1,1
 218 458 218 458 186 458 c 0,2,3
 155 458 155 458 134.5 475.5 c 128,-1,4
 114 493 114 493 114 515 c 1,5,-1
 152 515 l 1,6,7
 153 508 153 508 163 501.5 c 128,-1,8
 173 495 173 495 186 495 c 0,9,10
 200 495 200 495 209.5 501 c 128,-1,11
 219 507 219 507 221 515 c 1,12,-1
 258 515 l 1,13,0
 258 493 258 493 238 475.5 c 128,-1,1
302 354.5 m 128,-1,15
 343 302 343 302 343 200 c 256,16,17
 343 98 343 98 302 45.5 c 128,-1,18
 261 -7 261 -7 186 -7 c 256,19,20
 111 -7 111 -7 69.5 45.5 c 128,-1,21
 28 98 28 98 28 200 c 256,22,23
 28 302 28 302 69.5 354.5 c 128,-1,24
 111 407 111 407 186 407 c 256,25,14
 261 407 261 407 302 354.5 c 128,-1,15
109.5 322.5 m 128,-1,27
 82 286 82 286 82 214 c 2,28,-1
 82 185 l 2,29,30
 82 114 82 114 109.5 77 c 128,-1,31
 137 40 137 40 186 40 c 256,32,33
 235 40 235 40 262 77 c 128,-1,34
 289 114 289 114 289 185 c 2,35,-1
 289 214 l 2,36,37
 289 286 289 286 262 322.5 c 128,-1,38
 235 359 235 359 186 359 c 256,39,26
 137 359 137 359 109.5 322.5 c 128,-1,27
EndSplineSet
Validated: 1
Position2: "'cpsp' Capital Spacing lookup 0 subtable" dx=5 dy=0 dh=10 dv=0
EndChar

StartChar: Ocircumflex
Encoding: 212 212 78
Width: 372
VWidth: 659
GlyphClass: 2
Flags: W
LayerCount: 2
Back
Fore
SplineSet
186 481 m 1,0,-1
 160 435 l 1,1,-1
 113 435 l 1,2,-1
 163 514 l 1,3,-1
 209 514 l 1,4,-1
 258 435 l 1,5,-1
 212 435 l 1,6,-1
 186 481 l 1,0,-1
302 354.5 m 128,-1,8
 343 302 343 302 343 200 c 256,9,10
 343 98 343 98 302 45.5 c 128,-1,11
 261 -7 261 -7 186 -7 c 256,12,13
 111 -7 111 -7 69.5 45.5 c 128,-1,14
 28 98 28 98 28 200 c 256,15,16
 28 302 28 302 69.5 354.5 c 128,-1,17
 111 407 111 407 186 407 c 256,18,7
 261 407 261 407 302 354.5 c 128,-1,8
109.5 322.5 m 128,-1,20
 82 286 82 286 82 214 c 2,21,-1
 82 185 l 2,22,23
 82 114 82 114 109.5 77 c 128,-1,24
 137 40 137 40 186 40 c 256,25,26
 235 40 235 40 262 77 c 128,-1,27
 289 114 289 114 289 185 c 2,28,-1
 289 214 l 2,29,30
 289 286 289 286 262 322.5 c 128,-1,31
 235 359 235 359 186 359 c 256,32,19
 137 359 137 359 109.5 322.5 c 128,-1,20
EndSplineSet
Validated: 1
Position2: "'cpsp' Capital Spacing lookup 0 subtable" dx=5 dy=0 dh=10 dv=0
EndChar

StartChar: Odieresis
Encoding: 214 214 79
Width: 372
VWidth: 659
GlyphClass: 2
Flags: W
LayerCount: 2
Back
Fore
SplineSet
117 459 m 1,0,-1
 117 515 l 1,1,-1
 168 515 l 1,2,-1
 168 459 l 1,3,-1
 117 459 l 1,0,-1
204 459 m 1,4,-1
 204 515 l 1,5,-1
 255 515 l 1,6,-1
 255 459 l 1,7,-1
 204 459 l 1,4,-1
302 354.5 m 128,-1,9
 343 302 343 302 343 200 c 256,10,11
 343 98 343 98 302 45.5 c 128,-1,12
 261 -7 261 -7 186 -7 c 256,13,14
 111 -7 111 -7 69.5 45.5 c 128,-1,15
 28 98 28 98 28 200 c 256,16,17
 28 302 28 302 69.5 354.5 c 128,-1,18
 111 407 111 407 186 407 c 256,19,8
 261 407 261 407 302 354.5 c 128,-1,9
109.5 322.5 m 128,-1,21
 82 286 82 286 82 214 c 2,22,-1
 82 185 l 2,23,24
 82 114 82 114 109.5 77 c 128,-1,25
 137 40 137 40 186 40 c 256,26,27
 235 40 235 40 262 77 c 128,-1,28
 289 114 289 114 289 185 c 2,29,-1
 289 214 l 2,30,31
 289 286 289 286 262 322.5 c 128,-1,32
 235 359 235 359 186 359 c 256,33,20
 137 359 137 359 109.5 322.5 c 128,-1,21
EndSplineSet
Validated: 1
Position2: "'cpsp' Capital Spacing lookup 0 subtable" dx=5 dy=0 dh=10 dv=0
EndChar

StartChar: Ograve
Encoding: 210 210 80
Width: 372
VWidth: 659
GlyphClass: 2
Flags: W
LayerCount: 2
Back
Fore
SplineSet
181 438 m 1,0,-1
 118 513 l 1,1,-1
 118 515 l 1,2,-1
 171 515 l 1,3,-1
 221 438 l 1,4,-1
 181 438 l 1,0,-1
302 354.5 m 128,-1,6
 343 302 343 302 343 200 c 256,7,8
 343 98 343 98 302 45.5 c 128,-1,9
 261 -7 261 -7 186 -7 c 256,10,11
 111 -7 111 -7 69.5 45.5 c 128,-1,12
 28 98 28 98 28 200 c 256,13,14
 28 302 28 302 69.5 354.5 c 128,-1,15
 111 407 111 407 186 407 c 256,16,5
 261 407 261 407 302 354.5 c 128,-1,6
109.5 322.5 m 128,-1,18
 82 286 82 286 82 214 c 2,19,-1
 82 185 l 2,20,21
 82 114 82 114 109.5 77 c 128,-1,22
 137 40 137 40 186 40 c 256,23,24
 235 40 235 40 262 77 c 128,-1,25
 289 114 289 114 289 185 c 2,26,-1
 289 214 l 2,27,28
 289 286 289 286 262 322.5 c 128,-1,29
 235 359 235 359 186 359 c 256,30,17
 137 359 137 359 109.5 322.5 c 128,-1,18
EndSplineSet
Validated: 1
Position2: "'cpsp' Capital Spacing lookup 0 subtable" dx=5 dy=0 dh=10 dv=0
EndChar

StartChar: Ohungarumlaut
Encoding: 336 336 81
Width: 372
VWidth: 659
GlyphClass: 2
Flags: W
LayerCount: 2
Back
Fore
SplineSet
170 438 m 1,0,-1
 130 438 l 1,1,-1
 167 515 l 1,2,-1
 218 515 l 1,3,-1
 219 513 l 1,4,-1
 170 438 l 1,0,-1
246 438 m 1,5,-1
 206 438 l 1,6,-1
 243 515 l 1,7,-1
 295 515 l 1,8,-1
 295 513 l 1,9,-1
 246 438 l 1,5,-1
302 354.5 m 128,-1,11
 343 302 343 302 343 200 c 256,12,13
 343 98 343 98 302 45.5 c 128,-1,14
 261 -7 261 -7 186 -7 c 256,15,16
 111 -7 111 -7 69.5 45.5 c 128,-1,17
 28 98 28 98 28 200 c 256,18,19
 28 302 28 302 69.5 354.5 c 128,-1,20
 111 407 111 407 186 407 c 256,21,10
 261 407 261 407 302 354.5 c 128,-1,11
109.5 322.5 m 128,-1,23
 82 286 82 286 82 214 c 2,24,-1
 82 185 l 2,25,26
 82 114 82 114 109.5 77 c 128,-1,27
 137 40 137 40 186 40 c 256,28,29
 235 40 235 40 262 77 c 128,-1,30
 289 114 289 114 289 185 c 2,31,-1
 289 214 l 2,32,33
 289 286 289 286 262 322.5 c 128,-1,34
 235 359 235 359 186 359 c 256,35,22
 137 359 137 359 109.5 322.5 c 128,-1,23
EndSplineSet
Validated: 1
Position2: "'cpsp' Capital Spacing lookup 0 subtable" dx=5 dy=0 dh=10 dv=0
EndChar

StartChar: Omacron
Encoding: 332 332 82
Width: 372
VWidth: 659
GlyphClass: 2
Flags: W
LayerCount: 2
Back
Fore
SplineSet
113 484 m 1,0,-1
 259 484 l 1,1,-1
 259 442 l 1,2,-1
 113 442 l 1,3,-1
 113 484 l 1,0,-1
302 354.5 m 128,-1,5
 343 302 343 302 343 200 c 256,6,7
 343 98 343 98 302 45.5 c 128,-1,8
 261 -7 261 -7 186 -7 c 256,9,10
 111 -7 111 -7 69.5 45.5 c 128,-1,11
 28 98 28 98 28 200 c 256,12,13
 28 302 28 302 69.5 354.5 c 128,-1,14
 111 407 111 407 186 407 c 256,15,4
 261 407 261 407 302 354.5 c 128,-1,5
109.5 322.5 m 128,-1,17
 82 286 82 286 82 214 c 2,18,-1
 82 185 l 2,19,20
 82 114 82 114 109.5 77 c 128,-1,21
 137 40 137 40 186 40 c 256,22,23
 235 40 235 40 262 77 c 128,-1,24
 289 114 289 114 289 185 c 2,25,-1
 289 214 l 2,26,27
 289 286 289 286 262 322.5 c 128,-1,28
 235 359 235 359 186 359 c 256,29,16
 137 359 137 359 109.5 322.5 c 128,-1,17
EndSplineSet
Validated: 1
Position2: "'cpsp' Capital Spacing lookup 0 subtable" dx=5 dy=0 dh=10 dv=0
EndChar

StartChar: Oslash
Encoding: 216 216 83
Width: 372
VWidth: 659
GlyphClass: 2
Flags: W
AnchorPoint: "Anchor-1" 0 0 basechar 0
AnchorPoint: "Anchor-0" 186 399 basechar 0
LayerCount: 2
Back
Fore
SplineSet
343 200 m 0,1,2
 343 98 343 98 302 45.5 c 128,-1,3
 261 -7 261 -7 186 -7 c 0,4,5
 131 -7 131 -7 93 22 c 1,6,-1
 67 -22 l 1,7,-1
 29 -22 l 1,8,-1
 71 44 l 1,9,10
 28 96 28 96 28 200 c 0,11,12
 28 302 28 302 69.5 354.5 c 128,-1,13
 111 407 111 407 186 407 c 0,14,15
 241 407 241 407 279 378 c 1,16,-1
 306 421 l 1,17,-1
 343 421 l 1,18,-1
 301 355 l 1,19,0
 343 301 343 301 343 200 c 0,1,2
109.5 322.5 m 128,-1,21
 82 286 82 286 82 214 c 2,22,-1
 82 185 l 2,23,24
 82 127 82 127 100 92 c 1,25,-1
 252 334 l 1,26,27
 226 359 226 359 186 359 c 0,28,20
 137 359 137 359 109.5 322.5 c 128,-1,21
186 40 m 0,30,31
 235 40 235 40 262 77 c 128,-1,32
 289 114 289 114 289 185 c 2,33,-1
 289 214 l 2,34,35
 289 271 289 271 272 307 c 1,36,-1
 120 65 l 1,37,29
 145 40 145 40 186 40 c 0,30,31
EndSplineSet
Validated: 1
Position2: "'cpsp' Capital Spacing lookup 0 subtable" dx=5 dy=0 dh=10 dv=0
EndChar

StartChar: Oslashacute
Encoding: 510 510 84
Width: 372
VWidth: 659
GlyphClass: 2
Flags: W
LayerCount: 2
Back
Fore
SplineSet
192 438 m 1,0,-1
 152 438 l 1,1,-1
 202 515 l 1,2,-1
 254 515 l 1,3,-1
 254 513 l 1,4,-1
 192 438 l 1,0,-1
343 200 m 0,6,7
 343 98 343 98 302 45.5 c 128,-1,8
 261 -7 261 -7 186 -7 c 0,9,10
 131 -7 131 -7 93 22 c 1,11,-1
 67 -22 l 1,12,-1
 29 -22 l 1,13,-1
 71 44 l 1,14,15
 28 96 28 96 28 200 c 0,16,17
 28 302 28 302 69.5 354.5 c 128,-1,18
 111 407 111 407 186 407 c 0,19,20
 241 407 241 407 279 378 c 1,21,-1
 306 421 l 1,22,-1
 343 421 l 1,23,-1
 301 355 l 1,24,5
 343 301 343 301 343 200 c 0,6,7
109.5 322.5 m 128,-1,26
 82 286 82 286 82 214 c 2,27,-1
 82 185 l 2,28,29
 82 127 82 127 100 92 c 1,30,-1
 252 334 l 1,31,32
 226 359 226 359 186 359 c 0,33,25
 137 359 137 359 109.5 322.5 c 128,-1,26
186 40 m 0,35,36
 235 40 235 40 262 77 c 128,-1,37
 289 114 289 114 289 185 c 2,38,-1
 289 214 l 2,39,40
 289 271 289 271 272 307 c 1,41,-1
 120 65 l 1,42,34
 145 40 145 40 186 40 c 0,35,36
EndSplineSet
Validated: 1
Position2: "'cpsp' Capital Spacing lookup 0 subtable" dx=5 dy=0 dh=10 dv=0
EndChar

StartChar: Otilde
Encoding: 213 213 85
Width: 372
VWidth: 659
GlyphClass: 2
Flags: W
LayerCount: 2
Back
Fore
SplineSet
258 473 m 128,-1,1
 245 454 245 454 221 454 c 0,2,3
 210 454 210 454 199 458 c 128,-1,4
 188 462 188 462 186 463 c 0,5,6
 168 472 168 472 154 472 c 0,7,8
 137 472 137 472 134 454 c 1,9,-1
 101 454 l 1,10,11
 101 477 101 477 113.5 496 c 128,-1,12
 126 515 126 515 150 515 c 0,13,14
 161 515 161 515 172 511 c 128,-1,15
 183 507 183 507 185 506 c 0,16,17
 203 497 203 497 217 497 c 0,18,19
 234 497 234 497 237 515 c 1,20,-1
 271 515 l 1,21,0
 271 492 271 492 258 473 c 128,-1,1
302 354.5 m 128,-1,23
 343 302 343 302 343 200 c 256,24,25
 343 98 343 98 302 45.5 c 128,-1,26
 261 -7 261 -7 186 -7 c 256,27,28
 111 -7 111 -7 69.5 45.5 c 128,-1,29
 28 98 28 98 28 200 c 256,30,31
 28 302 28 302 69.5 354.5 c 128,-1,32
 111 407 111 407 186 407 c 256,33,22
 261 407 261 407 302 354.5 c 128,-1,23
109.5 322.5 m 128,-1,35
 82 286 82 286 82 214 c 2,36,-1
 82 185 l 2,37,38
 82 114 82 114 109.5 77 c 128,-1,39
 137 40 137 40 186 40 c 256,40,41
 235 40 235 40 262 77 c 128,-1,42
 289 114 289 114 289 185 c 2,43,-1
 289 214 l 2,44,45
 289 286 289 286 262 322.5 c 128,-1,46
 235 359 235 359 186 359 c 256,47,34
 137 359 137 359 109.5 322.5 c 128,-1,35
EndSplineSet
Validated: 1
Position2: "'cpsp' Capital Spacing lookup 0 subtable" dx=5 dy=0 dh=10 dv=0
EndChar

StartChar: OE
Encoding: 338 338 86
Width: 478
VWidth: 659
GlyphClass: 2
Flags: W
AnchorPoint: "Anchor-1" 0 0 basechar 0
AnchorPoint: "Anchor-0" 239 399 basechar 0
LayerCount: 2
Back
Fore
SplineSet
248 360 m 1,1,-1
 248 399 l 1,2,-1
 453 399 l 1,3,-1
 453 353 l 1,4,-1
 299 353 l 1,5,-1
 299 228 l 1,6,-1
 427 228 l 1,7,-1
 427 181 l 1,8,-1
 299 181 l 1,9,-1
 299 47 l 1,10,-1
 457 47 l 1,11,-1
 457 0 l 1,12,-1
 248 0 l 1,13,-1
 248 40 l 1,14,15
 216 -7 216 -7 159 -7 c 0,16,17
 96 -7 96 -7 62 45 c 128,-1,18
 28 97 28 97 28 200 c 256,19,20
 28 303 28 303 62 355 c 128,-1,21
 96 407 96 407 159 407 c 0,22,0
 215 407 215 407 248 360 c 1,1,-1
103.5 322.5 m 128,-1,24
 82 286 82 286 82 214 c 2,25,-1
 82 185 l 2,26,27
 82 113 82 113 103.5 76.5 c 128,-1,28
 125 40 125 40 165 40 c 0,29,30
 204 40 204 40 226 77 c 128,-1,31
 248 114 248 114 248 185 c 2,32,-1
 248 214 l 2,33,34
 248 286 248 286 226 322.5 c 128,-1,35
 204 359 204 359 165 359 c 0,36,23
 125 359 125 359 103.5 322.5 c 128,-1,24
EndSplineSet
Validated: 1
Position2: "'cpsp' Capital Spacing lookup 0 subtable" dx=5 dy=0 dh=10 dv=0
EndChar

StartChar: P
Encoding: 80 80 87
Width: 319
VWidth: 659
GlyphClass: 2
Flags: W
LayerCount: 2
Back
Fore
SplineSet
41 0 m 1,0,-1
 41 399 l 1,1,-1
 183 399 l 2,2,3
 241 399 241 399 272 368 c 128,-1,4
 303 337 303 337 303 283 c 0,5,6
 303 230 303 230 271 197.5 c 128,-1,7
 239 165 239 165 183 165 c 2,8,-1
 92 165 l 1,9,-1
 92 0 l 1,10,-1
 41 0 l 1,0,-1
182 212 m 2,11,12
 213 212 213 212 231 231.5 c 128,-1,13
 249 251 249 251 249 283 c 0,14,15
 249 316 249 316 231.5 334.5 c 128,-1,16
 214 353 214 353 182 353 c 2,17,-1
 92 353 l 1,18,-1
 92 212 l 1,19,-1
 182 212 l 2,11,12
EndSplineSet
Validated: 1
Position2: "'cpsp' Capital Spacing lookup 0 subtable" dx=5 dy=0 dh=10 dv=0
EndChar

StartChar: Thorn
Encoding: 222 222 88
Width: 319
VWidth: 659
GlyphClass: 2
Flags: W
LayerCount: 2
Back
Fore
SplineSet
183 320 m 2,0,1
 241 320 241 320 272 288.5 c 128,-1,2
 303 257 303 257 303 204 c 0,3,4
 303 150 303 150 271 118 c 128,-1,5
 239 86 239 86 183 86 c 2,6,-1
 92 86 l 1,7,-1
 92 0 l 1,8,-1
 41 0 l 1,9,-1
 41 399 l 1,10,-1
 92 399 l 1,11,-1
 92 320 l 1,12,-1
 183 320 l 2,0,1
92 132 m 1,13,-1
 182 132 l 2,14,15
 213 132 213 132 231 152 c 128,-1,16
 249 172 249 172 249 204 c 256,17,18
 249 236 249 236 231.5 254.5 c 128,-1,19
 214 273 214 273 182 273 c 2,20,-1
 92 273 l 1,21,-1
 92 132 l 1,13,-1
EndSplineSet
Validated: 1
Position2: "'cpsp' Capital Spacing lookup 0 subtable" dx=5 dy=0 dh=10 dv=0
EndChar

StartChar: Q
Encoding: 81 81 89
Width: 372
VWidth: 659
GlyphClass: 2
Flags: W
LayerCount: 2
Back
Fore
SplineSet
69.5 354.5 m 128,-1,1
 111 407 111 407 186 407 c 256,2,3
 261 407 261 407 302 354.5 c 128,-1,4
 343 302 343 302 343 200 c 0,5,6
 343 122 343 122 318.5 72 c 128,-1,7
 294 22 294 22 248 4 c 1,8,-1
 331 -72 l 1,9,-1
 262 -72 l 1,10,-1
 193 -7 l 1,11,-1
 186 -7 l 2,12,13
 111 -7 111 -7 69.5 45.5 c 128,-1,14
 28 98 28 98 28 200 c 256,15,0
 28 302 28 302 69.5 354.5 c 128,-1,1
109.5 77 m 128,-1,17
 137 40 137 40 186 40 c 256,18,19
 235 40 235 40 262 77 c 128,-1,20
 289 114 289 114 289 185 c 2,21,-1
 289 214 l 2,22,23
 289 286 289 286 262 322.5 c 128,-1,24
 235 359 235 359 186 359 c 256,25,26
 137 359 137 359 109.5 322.5 c 128,-1,27
 82 286 82 286 82 214 c 2,28,-1
 82 185 l 2,29,16
 82 114 82 114 109.5 77 c 128,-1,17
EndSplineSet
Validated: 1
Position2: "'cpsp' Capital Spacing lookup 0 subtable" dx=5 dy=0 dh=10 dv=0
EndChar

StartChar: R
Encoding: 82 82 90
Width: 345
VWidth: 659
GlyphClass: 2
Flags: W
AnchorPoint: "Anchor-1" 173 0 basechar 0
AnchorPoint: "Anchor-0" 173 399 basechar 0
LayerCount: 2
Back
Fore
SplineSet
290 369.5 m 128,-1,1
 321 340 321 340 321 289 c 0,2,3
 321 251 321 251 302.5 224 c 128,-1,4
 284 197 284 197 250 186 c 1,5,-1
 330 0 l 1,6,-1
 273 0 l 1,7,-1
 199 177 l 1,8,-1
 92 177 l 1,9,-1
 92 0 l 1,10,-1
 41 0 l 1,11,-1
 41 399 l 1,12,-1
 202 399 l 2,13,0
 259 399 259 399 290 369.5 c 128,-1,1
92 223 m 1,14,-1
 200 223 l 2,15,16
 231 223 231 223 249.5 241 c 128,-1,17
 268 259 268 259 268 289 c 256,18,19
 268 319 268 319 250.5 336 c 128,-1,20
 233 353 233 353 200 353 c 2,21,-1
 92 353 l 1,22,-1
 92 223 l 1,14,-1
EndSplineSet
Validated: 1
Position2: "'cpsp' Capital Spacing lookup 0 subtable" dx=5 dy=0 dh=10 dv=0
EndChar

StartChar: Racute
Encoding: 340 340 91
Width: 345
VWidth: 659
GlyphClass: 2
Flags: W
LayerCount: 2
Back
Fore
SplineSet
165 438 m 1,0,-1
 125 438 l 1,1,-1
 175 515 l 1,2,-1
 227 515 l 1,3,-1
 228 513 l 1,4,-1
 165 438 l 1,0,-1
290 369.5 m 128,-1,6
 321 340 321 340 321 289 c 0,7,8
 321 251 321 251 302.5 224 c 128,-1,9
 284 197 284 197 250 186 c 1,10,-1
 330 0 l 1,11,-1
 273 0 l 1,12,-1
 199 177 l 1,13,-1
 92 177 l 1,14,-1
 92 0 l 1,15,-1
 41 0 l 1,16,-1
 41 399 l 1,17,-1
 202 399 l 2,18,5
 259 399 259 399 290 369.5 c 128,-1,6
92 223 m 1,19,-1
 200 223 l 2,20,21
 231 223 231 223 249.5 241 c 128,-1,22
 268 259 268 259 268 289 c 256,23,24
 268 319 268 319 250.5 336 c 128,-1,25
 233 353 233 353 200 353 c 2,26,-1
 92 353 l 1,27,-1
 92 223 l 1,19,-1
EndSplineSet
Validated: 1
Position2: "'cpsp' Capital Spacing lookup 0 subtable" dx=5 dy=0 dh=10 dv=0
EndChar

StartChar: Rcaron
Encoding: 344 344 92
Width: 345
VWidth: 659
GlyphClass: 2
Flags: W
LayerCount: 2
Back
Fore
SplineSet
149 436 m 1,0,-1
 100 515 l 1,1,-1
 146 515 l 1,2,-1
 173 469 l 1,3,-1
 198 515 l 1,4,-1
 245 515 l 1,5,-1
 194 436 l 1,6,-1
 149 436 l 1,0,-1
290 369.5 m 128,-1,8
 321 340 321 340 321 289 c 0,9,10
 321 251 321 251 302.5 224 c 128,-1,11
 284 197 284 197 250 186 c 1,12,-1
 330 0 l 1,13,-1
 273 0 l 1,14,-1
 199 177 l 1,15,-1
 92 177 l 1,16,-1
 92 0 l 1,17,-1
 41 0 l 1,18,-1
 41 399 l 1,19,-1
 202 399 l 2,20,7
 259 399 259 399 290 369.5 c 128,-1,8
92 223 m 1,21,-1
 200 223 l 2,22,23
 231 223 231 223 249.5 241 c 128,-1,24
 268 259 268 259 268 289 c 256,25,26
 268 319 268 319 250.5 336 c 128,-1,27
 233 353 233 353 200 353 c 2,28,-1
 92 353 l 1,29,-1
 92 223 l 1,21,-1
EndSplineSet
Validated: 1
Position2: "'cpsp' Capital Spacing lookup 0 subtable" dx=5 dy=0 dh=10 dv=0
EndChar

StartChar: Rcommaaccent
Encoding: 342 342 93
Width: 345
VWidth: 659
GlyphClass: 2
Flags: W
LayerCount: 2
Back
Fore
SplineSet
290 369.5 m 128,-1,1
 321 340 321 340 321 289 c 0,2,3
 321 251 321 251 302.5 224 c 128,-1,4
 284 197 284 197 250 186 c 1,5,-1
 330 0 l 1,6,-1
 273 0 l 1,7,-1
 199 177 l 1,8,-1
 92 177 l 1,9,-1
 92 0 l 1,10,-1
 41 0 l 1,11,-1
 41 399 l 1,12,-1
 202 399 l 2,13,0
 259 399 259 399 290 369.5 c 128,-1,1
92 223 m 1,14,-1
 200 223 l 2,15,16
 231 223 231 223 249.5 241 c 128,-1,17
 268 259 268 259 268 289 c 256,18,19
 268 319 268 319 250.5 336 c 128,-1,20
 233 353 233 353 200 353 c 2,21,-1
 92 353 l 1,22,-1
 92 223 l 1,14,-1
181 -129 m 1,23,-1
 154 -129 l 1,24,-1
 168 -88 l 1,25,-1
 148 -88 l 1,26,-1
 148 -35 l 1,27,-1
 198 -35 l 1,28,-1
 198 -84 l 1,29,-1
 181 -129 l 1,23,-1
EndSplineSet
Validated: 1
Position2: "'cpsp' Capital Spacing lookup 0 subtable" dx=5 dy=0 dh=10 dv=0
EndChar

StartChar: S
Encoding: 83 83 94
Width: 319
VWidth: 659
GlyphClass: 2
Flags: W
AnchorPoint: "Anchor-1" 159 0 basechar 0
AnchorPoint: "Anchor-0" 159 399 basechar 0
LayerCount: 2
Back
Fore
SplineSet
249.5 379 m 128,-1,1
 284 351 284 351 284 294 c 2,2,-1
 284 287 l 1,3,-1
 231 287 l 1,4,-1
 231 296 l 2,5,6
 231 326 231 326 211 342.5 c 128,-1,7
 191 359 191 359 160 359 c 0,8,9
 127 359 127 359 106.5 345 c 128,-1,10
 86 331 86 331 86 304 c 0,11,12
 86 275 86 275 107.5 261 c 128,-1,13
 129 247 129 247 175 231 c 0,14,15
 213 219 213 219 237 207.5 c 128,-1,16
 261 196 261 196 277.5 173.5 c 128,-1,17
 294 151 294 151 294 115 c 0,18,19
 294 52 294 52 257.5 22.5 c 128,-1,20
 221 -7 221 -7 158 -7 c 0,21,22
 99 -7 99 -7 61.5 22 c 128,-1,23
 24 51 24 51 24 113 c 2,24,-1
 24 125 l 1,25,-1
 78 125 l 1,26,-1
 77 113 l 2,27,28
 77 77 77 77 99 58.5 c 128,-1,29
 121 40 121 40 156 40 c 0,30,31
 197 40 197 40 218.5 57 c 128,-1,32
 240 74 240 74 240 107 c 0,33,34
 240 138 240 138 218 152.5 c 128,-1,35
 196 167 196 167 150 182 c 0,36,37
 111 195 111 195 88 206.5 c 128,-1,38
 65 218 65 218 48.5 240.5 c 128,-1,39
 32 263 32 263 32 299 c 0,40,41
 32 352 32 352 67.5 379.5 c 128,-1,42
 103 407 103 407 159 407 c 256,43,0
 215 407 215 407 249.5 379 c 128,-1,1
EndSplineSet
Validated: 1
Position2: "'cpsp' Capital Spacing lookup 0 subtable" dx=5 dy=0 dh=10 dv=0
EndChar

StartChar: Sacute
Encoding: 346 346 95
Width: 319
VWidth: 659
GlyphClass: 2
Flags: W
LayerCount: 2
Back
Fore
SplineSet
165 438 m 1,0,-1
 125 438 l 1,1,-1
 175 515 l 1,2,-1
 227 515 l 1,3,-1
 228 513 l 1,4,-1
 165 438 l 1,0,-1
249.5 379 m 128,-1,6
 284 351 284 351 284 294 c 2,7,-1
 284 287 l 1,8,-1
 231 287 l 1,9,-1
 231 296 l 2,10,11
 231 326 231 326 211 342.5 c 128,-1,12
 191 359 191 359 160 359 c 0,13,14
 127 359 127 359 106.5 345 c 128,-1,15
 86 331 86 331 86 304 c 0,16,17
 86 275 86 275 107.5 261 c 128,-1,18
 129 247 129 247 175 231 c 0,19,20
 213 219 213 219 237 207.5 c 128,-1,21
 261 196 261 196 277.5 173.5 c 128,-1,22
 294 151 294 151 294 115 c 0,23,24
 294 52 294 52 257.5 22.5 c 128,-1,25
 221 -7 221 -7 158 -7 c 0,26,27
 99 -7 99 -7 61.5 22 c 128,-1,28
 24 51 24 51 24 113 c 2,29,-1
 24 125 l 1,30,-1
 78 125 l 1,31,-1
 77 113 l 2,32,33
 77 77 77 77 99 58.5 c 128,-1,34
 121 40 121 40 156 40 c 0,35,36
 197 40 197 40 218.5 57 c 128,-1,37
 240 74 240 74 240 107 c 0,38,39
 240 138 240 138 218 152.5 c 128,-1,40
 196 167 196 167 150 182 c 0,41,42
 111 195 111 195 88 206.5 c 128,-1,43
 65 218 65 218 48.5 240.5 c 128,-1,44
 32 263 32 263 32 299 c 0,45,46
 32 352 32 352 67.5 379.5 c 128,-1,47
 103 407 103 407 159 407 c 256,48,5
 215 407 215 407 249.5 379 c 128,-1,6
EndSplineSet
Validated: 1
Position2: "'cpsp' Capital Spacing lookup 0 subtable" dx=5 dy=0 dh=10 dv=0
EndChar

StartChar: Scaron
Encoding: 352 352 96
Width: 319
VWidth: 659
GlyphClass: 2
Flags: W
LayerCount: 2
Back
Fore
SplineSet
87 515 m 1,0,-1
 133 515 l 1,1,-1
 159 469 l 1,2,-1
 185 515 l 1,3,-1
 232 515 l 1,4,-1
 182 436 l 1,5,-1
 136 436 l 1,6,-1
 87 515 l 1,0,-1
249.5 379 m 128,-1,8
 284 351 284 351 284 294 c 2,9,-1
 284 287 l 1,10,-1
 231 287 l 1,11,-1
 231 296 l 2,12,13
 231 326 231 326 211 342.5 c 128,-1,14
 191 359 191 359 160 359 c 0,15,16
 127 359 127 359 106.5 345 c 128,-1,17
 86 331 86 331 86 304 c 0,18,19
 86 275 86 275 107.5 261 c 128,-1,20
 129 247 129 247 175 231 c 0,21,22
 213 219 213 219 237 207.5 c 128,-1,23
 261 196 261 196 277.5 173.5 c 128,-1,24
 294 151 294 151 294 115 c 0,25,26
 294 52 294 52 257.5 22.5 c 128,-1,27
 221 -7 221 -7 158 -7 c 0,28,29
 99 -7 99 -7 61.5 22 c 128,-1,30
 24 51 24 51 24 113 c 2,31,-1
 24 125 l 1,32,-1
 78 125 l 1,33,-1
 77 113 l 2,34,35
 77 77 77 77 99 58.5 c 128,-1,36
 121 40 121 40 156 40 c 0,37,38
 197 40 197 40 218.5 57 c 128,-1,39
 240 74 240 74 240 107 c 0,40,41
 240 138 240 138 218 152.5 c 128,-1,42
 196 167 196 167 150 182 c 0,43,44
 111 195 111 195 88 206.5 c 128,-1,45
 65 218 65 218 48.5 240.5 c 128,-1,46
 32 263 32 263 32 299 c 0,47,48
 32 352 32 352 67.5 379.5 c 128,-1,49
 103 407 103 407 159 407 c 256,50,7
 215 407 215 407 249.5 379 c 128,-1,8
EndSplineSet
Validated: 1
Position2: "'cpsp' Capital Spacing lookup 0 subtable" dx=5 dy=0 dh=10 dv=0
EndChar

StartChar: Scedilla
Encoding: 350 350 97
Width: 319
VWidth: 659
GlyphClass: 2
Flags: W
LayerCount: 2
Back
Fore
SplineSet
249.5 379 m 128,-1,1
 284 351 284 351 284 294 c 2,2,-1
 284 287 l 1,3,-1
 231 287 l 1,4,-1
 231 296 l 2,5,6
 231 326 231 326 211 342.5 c 128,-1,7
 191 359 191 359 160 359 c 0,8,9
 127 359 127 359 106.5 345 c 128,-1,10
 86 331 86 331 86 304 c 0,11,12
 86 275 86 275 107.5 261 c 128,-1,13
 129 247 129 247 175 231 c 0,14,15
 213 219 213 219 237 207.5 c 128,-1,16
 261 196 261 196 277.5 173.5 c 128,-1,17
 294 151 294 151 294 115 c 0,18,19
 294 55 294 55 260.5 25.5 c 128,-1,20
 227 -4 227 -4 169 -7 c 1,21,-1
 167 -21 l 1,22,23
 188 -22 188 -22 201 -31 c 128,-1,24
 214 -40 214 -40 214 -59 c 0,25,26
 214 -85 214 -85 195.5 -95.5 c 128,-1,27
 177 -106 177 -106 154 -106 c 0,28,29
 128 -106 128 -106 105 -101 c 1,30,-1
 105 -73 l 1,31,-1
 149 -73 l 2,32,33
 170 -73 170 -73 170 -59 c 0,34,35
 170 -51 170 -51 165.5 -48 c 128,-1,36
 161 -45 161 -45 150 -45 c 2,37,-1
 131 -45 l 1,38,-1
 137 -6 l 1,39,40
 85 -1 85 -1 54.5 28 c 128,-1,41
 24 57 24 57 24 113 c 2,42,-1
 24 125 l 1,43,-1
 78 125 l 1,44,-1
 77 113 l 2,45,46
 77 77 77 77 99 58.5 c 128,-1,47
 121 40 121 40 156 40 c 0,48,49
 197 40 197 40 218.5 57 c 128,-1,50
 240 74 240 74 240 107 c 0,51,52
 240 138 240 138 218 152.5 c 128,-1,53
 196 167 196 167 150 182 c 0,54,55
 111 195 111 195 88 206.5 c 128,-1,56
 65 218 65 218 48.5 240.5 c 128,-1,57
 32 263 32 263 32 299 c 0,58,59
 32 352 32 352 67.5 379.5 c 128,-1,60
 103 407 103 407 159 407 c 256,61,0
 215 407 215 407 249.5 379 c 128,-1,1
EndSplineSet
Validated: 1
Substitution2: "'locl' Localized Forms in Latin lookup 6 subtable" Scommaaccent
Substitution2: "'locl' Localized Forms in Latin lookup 5 subtable" Scommaaccent
Substitution2: "'aalt' Access All Alternates lookup 0 subtable" Scommaaccent
Position2: "'cpsp' Capital Spacing lookup 0 subtable" dx=5 dy=0 dh=10 dv=0
EndChar

StartChar: Scircumflex
Encoding: 348 348 98
Width: 319
VWidth: 659
GlyphClass: 2
Flags: W
LayerCount: 2
Back
Fore
SplineSet
159 481 m 1,0,-1
 133 435 l 1,1,-1
 87 435 l 1,2,-1
 137 514 l 1,3,-1
 183 514 l 1,4,-1
 232 435 l 1,5,-1
 185 435 l 1,6,-1
 159 481 l 1,0,-1
249.5 379 m 128,-1,8
 284 351 284 351 284 294 c 2,9,-1
 284 287 l 1,10,-1
 231 287 l 1,11,-1
 231 296 l 2,12,13
 231 326 231 326 211 342.5 c 128,-1,14
 191 359 191 359 160 359 c 0,15,16
 127 359 127 359 106.5 345 c 128,-1,17
 86 331 86 331 86 304 c 0,18,19
 86 275 86 275 107.5 261 c 128,-1,20
 129 247 129 247 175 231 c 0,21,22
 213 219 213 219 237 207.5 c 128,-1,23
 261 196 261 196 277.5 173.5 c 128,-1,24
 294 151 294 151 294 115 c 0,25,26
 294 52 294 52 257.5 22.5 c 128,-1,27
 221 -7 221 -7 158 -7 c 0,28,29
 99 -7 99 -7 61.5 22 c 128,-1,30
 24 51 24 51 24 113 c 2,31,-1
 24 125 l 1,32,-1
 78 125 l 1,33,-1
 77 113 l 2,34,35
 77 77 77 77 99 58.5 c 128,-1,36
 121 40 121 40 156 40 c 0,37,38
 197 40 197 40 218.5 57 c 128,-1,39
 240 74 240 74 240 107 c 0,40,41
 240 138 240 138 218 152.5 c 128,-1,42
 196 167 196 167 150 182 c 0,43,44
 111 195 111 195 88 206.5 c 128,-1,45
 65 218 65 218 48.5 240.5 c 128,-1,46
 32 263 32 263 32 299 c 0,47,48
 32 352 32 352 67.5 379.5 c 128,-1,49
 103 407 103 407 159 407 c 256,50,7
 215 407 215 407 249.5 379 c 128,-1,8
EndSplineSet
Validated: 1
Position2: "'cpsp' Capital Spacing lookup 0 subtable" dx=5 dy=0 dh=10 dv=0
EndChar

StartChar: T
Encoding: 84 84 100
Width: 292
VWidth: 659
GlyphClass: 2
Flags: W
AnchorPoint: "Anchor-1" 146 0 basechar 0
AnchorPoint: "Anchor-0" 146 399 basechar 0
LayerCount: 2
Back
Fore
SplineSet
171 353 m 1,0,-1
 171 0 l 1,1,-1
 120 0 l 1,2,-1
 120 353 l 1,3,-1
 11 353 l 1,4,-1
 11 399 l 1,5,-1
 280 399 l 1,6,-1
 280 353 l 1,7,-1
 171 353 l 1,0,-1
EndSplineSet
Validated: 1
Position2: "'cpsp' Capital Spacing lookup 0 subtable" dx=5 dy=0 dh=10 dv=0
EndChar

StartChar: Tbar
Encoding: 358 358 101
Width: 292
VWidth: 659
GlyphClass: 2
Flags: W
LayerCount: 2
Back
Fore
SplineSet
171 353 m 1,0,-1
 171 229 l 1,1,-1
 248 229 l 1,2,-1
 248 186 l 1,3,-1
 171 186 l 1,4,-1
 171 0 l 1,5,-1
 120 0 l 1,6,-1
 120 186 l 1,7,-1
 45 186 l 1,8,-1
 45 229 l 1,9,-1
 120 229 l 1,10,-1
 120 353 l 1,11,-1
 11 353 l 1,12,-1
 11 399 l 1,13,-1
 280 399 l 1,14,-1
 280 353 l 1,15,-1
 171 353 l 1,0,-1
EndSplineSet
Validated: 1
Position2: "'cpsp' Capital Spacing lookup 0 subtable" dx=5 dy=0 dh=10 dv=0
EndChar

StartChar: Tcaron
Encoding: 356 356 102
Width: 292
VWidth: 659
GlyphClass: 2
Flags: W
LayerCount: 2
Back
Fore
SplineSet
123 436 m 1,0,-1
 73 515 l 1,1,-1
 120 515 l 1,2,-1
 146 469 l 1,3,-1
 172 515 l 1,4,-1
 218 515 l 1,5,-1
 168 436 l 1,6,-1
 123 436 l 1,0,-1
171 353 m 1,7,-1
 171 0 l 1,8,-1
 120 0 l 1,9,-1
 120 353 l 1,10,-1
 11 353 l 1,11,-1
 11 399 l 1,12,-1
 280 399 l 1,13,-1
 280 353 l 1,14,-1
 171 353 l 1,7,-1
EndSplineSet
Validated: 1
Position2: "'cpsp' Capital Spacing lookup 0 subtable" dx=5 dy=0 dh=10 dv=0
EndChar

StartChar: uni0162
Encoding: 354 354 103
Width: 292
VWidth: 659
GlyphClass: 2
Flags: W
AnchorPoint: "Anchor-1" 146 0 basechar 0
AnchorPoint: "Anchor-0" 146 399 basechar 0
LayerCount: 2
Back
Fore
SplineSet
157 0 m 1,0,-1
 153 -21 l 1,1,2
 174 -22 174 -22 187 -31 c 128,-1,3
 200 -40 200 -40 200 -59 c 0,4,5
 200 -85 200 -85 182 -95.5 c 128,-1,6
 164 -106 164 -106 140 -106 c 0,7,8
 114 -106 114 -106 91 -101 c 1,9,-1
 91 -73 l 1,10,-1
 135 -73 l 2,11,12
 156 -73 156 -73 156 -59 c 0,13,14
 156 -51 156 -51 152 -48 c 128,-1,15
 148 -45 148 -45 137 -45 c 2,16,-1
 117 -45 l 1,17,-1
 124 0 l 1,18,-1
 120 0 l 1,19,-1
 120 353 l 1,20,-1
 11 353 l 1,21,-1
 11 399 l 1,22,-1
 280 399 l 1,23,-1
 280 353 l 1,24,-1
 171 353 l 1,25,-1
 171 0 l 1,26,-1
 157 0 l 1,0,-1
EndSplineSet
Validated: 1
Substitution2: "'locl' Localized Forms in Latin lookup 6 subtable" uni021A
Substitution2: "'locl' Localized Forms in Latin lookup 5 subtable" uni021A
Substitution2: "'aalt' Access All Alternates lookup 0 subtable" uni021A
Position2: "'cpsp' Capital Spacing lookup 0 subtable" dx=5 dy=0 dh=10 dv=0
EndChar

StartChar: uni021A
Encoding: 538 538 104
Width: 292
VWidth: 659
GlyphClass: 2
Flags: W
LayerCount: 2
Back
Fore
SplineSet
171 353 m 1,0,-1
 171 0 l 1,1,-1
 120 0 l 1,2,-1
 120 353 l 1,3,-1
 11 353 l 1,4,-1
 11 399 l 1,5,-1
 280 399 l 1,6,-1
 280 353 l 1,7,-1
 171 353 l 1,0,-1
154 -129 m 1,8,-1
 128 -129 l 1,9,-1
 141 -88 l 1,10,-1
 121 -88 l 1,11,-1
 121 -35 l 1,12,-1
 171 -35 l 1,13,-1
 171 -84 l 1,14,-1
 154 -129 l 1,8,-1
EndSplineSet
Validated: 1
Position2: "'cpsp' Capital Spacing lookup 0 subtable" dx=5 dy=0 dh=10 dv=0
EndChar

StartChar: U
Encoding: 85 85 105
Width: 345
VWidth: 659
GlyphClass: 2
Flags: W
AnchorPoint: "Anchor-1" 0 0 basechar 0
AnchorPoint: "Anchor-0" 173 399 basechar 0
LayerCount: 2
Back
Fore
SplineSet
269.5 28 m 128,-1,1
 235 -7 235 -7 173 -7 c 0,2,3
 110 -7 110 -7 75.5 28 c 128,-1,4
 41 63 41 63 41 130 c 2,5,-1
 41 399 l 1,6,-1
 92 399 l 1,7,-1
 92 127 l 2,8,9
 92 85 92 85 113.5 62.5 c 128,-1,10
 135 40 135 40 173 40 c 256,11,12
 211 40 211 40 232 62.5 c 128,-1,13
 253 85 253 85 253 127 c 2,14,-1
 253 399 l 1,15,-1
 304 399 l 1,16,-1
 304 130 l 2,17,0
 304 63 304 63 269.5 28 c 128,-1,1
EndSplineSet
Validated: 1
Position2: "'cpsp' Capital Spacing lookup 0 subtable" dx=5 dy=0 dh=10 dv=0
EndChar

StartChar: Uacute
Encoding: 218 218 106
Width: 345
VWidth: 659
GlyphClass: 2
Flags: W
LayerCount: 2
Back
Fore
SplineSet
179 438 m 1,0,-1
 138 438 l 1,1,-1
 188 515 l 1,2,-1
 240 515 l 1,3,-1
 241 513 l 1,4,-1
 179 438 l 1,0,-1
269.5 28 m 128,-1,6
 235 -7 235 -7 173 -7 c 0,7,8
 110 -7 110 -7 75.5 28 c 128,-1,9
 41 63 41 63 41 130 c 2,10,-1
 41 399 l 1,11,-1
 92 399 l 1,12,-1
 92 127 l 2,13,14
 92 85 92 85 113.5 62.5 c 128,-1,15
 135 40 135 40 173 40 c 256,16,17
 211 40 211 40 232 62.5 c 128,-1,18
 253 85 253 85 253 127 c 2,19,-1
 253 399 l 1,20,-1
 304 399 l 1,21,-1
 304 130 l 2,22,5
 304 63 304 63 269.5 28 c 128,-1,6
EndSplineSet
Validated: 1
Position2: "'cpsp' Capital Spacing lookup 0 subtable" dx=5 dy=0 dh=10 dv=0
EndChar

StartChar: Ubreve
Encoding: 364 364 107
Width: 345
VWidth: 659
GlyphClass: 2
Flags: W
LayerCount: 2
Back
Fore
SplineSet
224 475.5 m 128,-1,1
 204 458 204 458 173 458 c 0,2,3
 141 458 141 458 120.5 475.5 c 128,-1,4
 100 493 100 493 100 515 c 1,5,-1
 138 515 l 1,6,7
 140 507 140 507 149.5 501 c 128,-1,8
 159 495 159 495 173 495 c 0,9,10
 186 495 186 495 196 501.5 c 128,-1,11
 206 508 206 508 208 515 c 1,12,-1
 244 515 l 1,13,0
 244 493 244 493 224 475.5 c 128,-1,1
269.5 28 m 128,-1,15
 235 -7 235 -7 173 -7 c 0,16,17
 110 -7 110 -7 75.5 28 c 128,-1,18
 41 63 41 63 41 130 c 2,19,-1
 41 399 l 1,20,-1
 92 399 l 1,21,-1
 92 127 l 2,22,23
 92 85 92 85 113.5 62.5 c 128,-1,24
 135 40 135 40 173 40 c 256,25,26
 211 40 211 40 232 62.5 c 128,-1,27
 253 85 253 85 253 127 c 2,28,-1
 253 399 l 1,29,-1
 304 399 l 1,30,-1
 304 130 l 2,31,14
 304 63 304 63 269.5 28 c 128,-1,15
EndSplineSet
Validated: 1
Position2: "'cpsp' Capital Spacing lookup 0 subtable" dx=5 dy=0 dh=10 dv=0
EndChar

StartChar: Ucircumflex
Encoding: 219 219 108
Width: 345
VWidth: 659
GlyphClass: 2
Flags: W
LayerCount: 2
Back
Fore
SplineSet
198 435 m 1,0,-1
 173 481 l 1,1,-1
 146 435 l 1,2,-1
 100 435 l 1,3,-1
 150 514 l 1,4,-1
 195 514 l 1,5,-1
 245 435 l 1,6,-1
 198 435 l 1,0,-1
269.5 28 m 128,-1,8
 235 -7 235 -7 173 -7 c 0,9,10
 110 -7 110 -7 75.5 28 c 128,-1,11
 41 63 41 63 41 130 c 2,12,-1
 41 399 l 1,13,-1
 92 399 l 1,14,-1
 92 127 l 2,15,16
 92 85 92 85 113.5 62.5 c 128,-1,17
 135 40 135 40 173 40 c 256,18,19
 211 40 211 40 232 62.5 c 128,-1,20
 253 85 253 85 253 127 c 2,21,-1
 253 399 l 1,22,-1
 304 399 l 1,23,-1
 304 130 l 2,24,7
 304 63 304 63 269.5 28 c 128,-1,8
EndSplineSet
Validated: 1
Position2: "'cpsp' Capital Spacing lookup 0 subtable" dx=5 dy=0 dh=10 dv=0
EndChar

StartChar: Udieresis
Encoding: 220 220 109
Width: 345
VWidth: 659
GlyphClass: 2
Flags: W
LayerCount: 2
Back
Fore
SplineSet
103 459 m 1,0,-1
 103 515 l 1,1,-1
 154 515 l 1,2,-1
 154 459 l 1,3,-1
 103 459 l 1,0,-1
190 459 m 1,4,-1
 190 515 l 1,5,-1
 242 515 l 1,6,-1
 242 459 l 1,7,-1
 190 459 l 1,4,-1
269.5 28 m 128,-1,9
 235 -7 235 -7 173 -7 c 0,10,11
 110 -7 110 -7 75.5 28 c 128,-1,12
 41 63 41 63 41 130 c 2,13,-1
 41 399 l 1,14,-1
 92 399 l 1,15,-1
 92 127 l 2,16,17
 92 85 92 85 113.5 62.5 c 128,-1,18
 135 40 135 40 173 40 c 256,19,20
 211 40 211 40 232 62.5 c 128,-1,21
 253 85 253 85 253 127 c 2,22,-1
 253 399 l 1,23,-1
 304 399 l 1,24,-1
 304 130 l 2,25,8
 304 63 304 63 269.5 28 c 128,-1,9
EndSplineSet
Validated: 1
Position2: "'cpsp' Capital Spacing lookup 0 subtable" dx=5 dy=0 dh=10 dv=0
EndChar

StartChar: Ugrave
Encoding: 217 217 110
Width: 345
VWidth: 659
GlyphClass: 2
Flags: W
LayerCount: 2
Back
Fore
SplineSet
167 438 m 1,0,-1
 103 513 l 1,1,-1
 104 515 l 1,2,-1
 158 515 l 1,3,-1
 207 438 l 1,4,-1
 167 438 l 1,0,-1
269.5 28 m 128,-1,6
 235 -7 235 -7 173 -7 c 0,7,8
 110 -7 110 -7 75.5 28 c 128,-1,9
 41 63 41 63 41 130 c 2,10,-1
 41 399 l 1,11,-1
 92 399 l 1,12,-1
 92 127 l 2,13,14
 92 85 92 85 113.5 62.5 c 128,-1,15
 135 40 135 40 173 40 c 256,16,17
 211 40 211 40 232 62.5 c 128,-1,18
 253 85 253 85 253 127 c 2,19,-1
 253 399 l 1,20,-1
 304 399 l 1,21,-1
 304 130 l 2,22,5
 304 63 304 63 269.5 28 c 128,-1,6
EndSplineSet
Validated: 1
Position2: "'cpsp' Capital Spacing lookup 0 subtable" dx=5 dy=0 dh=10 dv=0
EndChar

StartChar: Uhungarumlaut
Encoding: 368 368 111
Width: 345
VWidth: 659
GlyphClass: 2
Flags: W
LayerCount: 2
Back
Fore
SplineSet
157 438 m 1,0,-1
 117 438 l 1,1,-1
 153 515 l 1,2,-1
 205 515 l 1,3,-1
 206 513 l 1,4,-1
 157 438 l 1,0,-1
233 438 m 1,5,-1
 193 438 l 1,6,-1
 229 515 l 1,7,-1
 281 515 l 1,8,-1
 281 513 l 1,9,-1
 233 438 l 1,5,-1
269.5 28 m 128,-1,11
 235 -7 235 -7 173 -7 c 0,12,13
 110 -7 110 -7 75.5 28 c 128,-1,14
 41 63 41 63 41 130 c 2,15,-1
 41 399 l 1,16,-1
 92 399 l 1,17,-1
 92 127 l 2,18,19
 92 85 92 85 113.5 62.5 c 128,-1,20
 135 40 135 40 173 40 c 256,21,22
 211 40 211 40 232 62.5 c 128,-1,23
 253 85 253 85 253 127 c 2,24,-1
 253 399 l 1,25,-1
 304 399 l 1,26,-1
 304 130 l 2,27,10
 304 63 304 63 269.5 28 c 128,-1,11
EndSplineSet
Validated: 1
Position2: "'cpsp' Capital Spacing lookup 0 subtable" dx=5 dy=0 dh=10 dv=0
EndChar

StartChar: Umacron
Encoding: 362 362 112
Width: 345
VWidth: 659
GlyphClass: 2
Flags: W
LayerCount: 2
Back
Fore
SplineSet
100 442 m 1,0,-1
 100 484 l 1,1,-1
 245 484 l 1,2,-1
 245 442 l 1,3,-1
 100 442 l 1,0,-1
269.5 28 m 128,-1,5
 235 -7 235 -7 173 -7 c 0,6,7
 110 -7 110 -7 75.5 28 c 128,-1,8
 41 63 41 63 41 130 c 2,9,-1
 41 399 l 1,10,-1
 92 399 l 1,11,-1
 92 127 l 2,12,13
 92 85 92 85 113.5 62.5 c 128,-1,14
 135 40 135 40 173 40 c 256,15,16
 211 40 211 40 232 62.5 c 128,-1,17
 253 85 253 85 253 127 c 2,18,-1
 253 399 l 1,19,-1
 304 399 l 1,20,-1
 304 130 l 2,21,4
 304 63 304 63 269.5 28 c 128,-1,5
EndSplineSet
Validated: 1
Position2: "'cpsp' Capital Spacing lookup 0 subtable" dx=5 dy=0 dh=10 dv=0
EndChar

StartChar: Uogonek
Encoding: 370 370 113
Width: 345
VWidth: 659
GlyphClass: 2
Flags: W
LayerCount: 2
Back
Fore
SplineSet
304 399 m 1,0,-1
 304 130 l 2,1,2
 304 81 304 81 285 49.5 c 128,-1,3
 266 18 266 18 231 3 c 1,4,5
 215 -15 215 -15 215 -36 c 0,6,7
 215 -50 215 -50 222 -59 c 128,-1,8
 229 -68 229 -68 243 -68 c 2,9,-1
 260 -68 l 1,10,-1
 260 -98 l 1,11,12
 241 -106 241 -106 225 -106 c 0,13,14
 203 -106 203 -106 186.5 -93.5 c 128,-1,15
 170 -81 170 -81 170 -53 c 0,16,17
 170 -28 170 -28 186 -7 c 1,18,-1
 173 -7 l 2,19,20
 110 -7 110 -7 75.5 28 c 128,-1,21
 41 63 41 63 41 130 c 2,22,-1
 41 399 l 1,23,-1
 92 399 l 1,24,-1
 92 127 l 2,25,26
 92 85 92 85 113.5 62.5 c 128,-1,27
 135 40 135 40 173 40 c 256,28,29
 211 40 211 40 232 62.5 c 128,-1,30
 253 85 253 85 253 127 c 2,31,-1
 253 399 l 1,32,-1
 304 399 l 1,0,-1
EndSplineSet
Validated: 1
Position2: "'cpsp' Capital Spacing lookup 0 subtable" dx=5 dy=0 dh=10 dv=0
EndChar

StartChar: Uring
Encoding: 366 366 114
Width: 345
VWidth: 659
GlyphClass: 2
Flags: W
LayerCount: 2
Back
Fore
SplineSet
212.5 516.5 m 128,-1,1
 229 500 229 500 229 477 c 256,2,3
 229 454 229 454 212.5 437.5 c 128,-1,4
 196 421 196 421 173 421 c 256,5,6
 150 421 150 421 133.5 437 c 128,-1,7
 117 453 117 453 117 477 c 0,8,9
 117 500 117 500 133.5 516.5 c 128,-1,10
 150 533 150 533 173 533 c 256,11,0
 196 533 196 533 212.5 516.5 c 128,-1,1
151.5 498.5 m 128,-1,13
 143 490 143 490 143 477 c 0,14,15
 143 465 143 465 151.5 456 c 128,-1,16
 160 447 160 447 173 447 c 0,17,18
 184 447 184 447 193 456 c 128,-1,19
 202 465 202 465 202 477 c 0,20,21
 202 490 202 490 193.5 498.5 c 128,-1,22
 185 507 185 507 173 507 c 0,23,12
 160 507 160 507 151.5 498.5 c 128,-1,13
269.5 28 m 128,-1,25
 235 -7 235 -7 173 -7 c 0,26,27
 110 -7 110 -7 75.5 28 c 128,-1,28
 41 63 41 63 41 130 c 2,29,-1
 41 399 l 1,30,-1
 92 399 l 1,31,-1
 92 127 l 2,32,33
 92 85 92 85 113.5 62.5 c 128,-1,34
 135 40 135 40 173 40 c 256,35,36
 211 40 211 40 232 62.5 c 128,-1,37
 253 85 253 85 253 127 c 2,38,-1
 253 399 l 1,39,-1
 304 399 l 1,40,-1
 304 130 l 2,41,24
 304 63 304 63 269.5 28 c 128,-1,25
EndSplineSet
Validated: 1
Position2: "'cpsp' Capital Spacing lookup 0 subtable" dx=5 dy=0 dh=10 dv=0
EndChar

StartChar: Utilde
Encoding: 360 360 115
Width: 345
VWidth: 659
GlyphClass: 2
Flags: W
LayerCount: 2
Back
Fore
SplineSet
245 473 m 128,-1,1
 232 454 232 454 208 454 c 0,2,3
 197 454 197 454 186 458 c 128,-1,4
 175 462 175 462 172 463 c 0,5,6
 154 472 154 472 141 472 c 0,7,8
 124 472 124 472 121 454 c 1,9,-1
 88 454 l 1,10,11
 88 477 88 477 100.5 496 c 128,-1,12
 113 515 113 515 137 515 c 0,13,14
 148 515 148 515 159 511 c 128,-1,15
 170 507 170 507 172 506 c 0,16,17
 190 497 190 497 204 497 c 0,18,19
 222 497 222 497 223 515 c 1,20,-1
 258 515 l 1,21,0
 258 492 258 492 245 473 c 128,-1,1
269.5 28 m 128,-1,23
 235 -7 235 -7 173 -7 c 0,24,25
 110 -7 110 -7 75.5 28 c 128,-1,26
 41 63 41 63 41 130 c 2,27,-1
 41 399 l 1,28,-1
 92 399 l 1,29,-1
 92 127 l 2,30,31
 92 85 92 85 113.5 62.5 c 128,-1,32
 135 40 135 40 173 40 c 256,33,34
 211 40 211 40 232 62.5 c 128,-1,35
 253 85 253 85 253 127 c 2,36,-1
 253 399 l 1,37,-1
 304 399 l 1,38,-1
 304 130 l 2,39,22
 304 63 304 63 269.5 28 c 128,-1,23
EndSplineSet
Validated: 1
Position2: "'cpsp' Capital Spacing lookup 0 subtable" dx=5 dy=0 dh=10 dv=0
EndChar

StartChar: V
Encoding: 86 86 116
Width: 319
VWidth: 659
GlyphClass: 2
Flags: W
LayerCount: 2
Back
Fore
SplineSet
5 399 m 1,0,-1
 61 399 l 1,1,-1
 160 57 l 1,2,-1
 163 57 l 1,3,-1
 264 399 l 1,4,-1
 314 399 l 1,5,-1
 192 0 l 1,6,-1
 127 0 l 1,7,-1
 5 399 l 1,0,-1
EndSplineSet
Validated: 1
Position2: "'cpsp' Capital Spacing lookup 0 subtable" dx=5 dy=0 dh=10 dv=0
EndChar

StartChar: W
Encoding: 87 87 117
Width: 451
VWidth: 659
GlyphClass: 2
Flags: W
AnchorPoint: "Anchor-1" 0 0 basechar 0
AnchorPoint: "Anchor-0" 225 399 basechar 0
LayerCount: 2
Back
Fore
SplineSet
237 271 m 1,0,-1
 226 351 l 1,1,-1
 223 351 l 1,2,3
 222 342 222 342 219 318.5 c 128,-1,4
 216 295 216 295 213 271 c 2,5,-1
 165 0 l 1,6,-1
 98 0 l 1,7,-1
 6 399 l 1,8,-1
 60 399 l 1,9,-1
 121 123 l 2,10,11
 125 109 125 109 128.5 85 c 128,-1,12
 132 61 132 61 133 53 c 1,13,-1
 136 53 l 1,14,15
 137 59 137 59 139.5 78 c 128,-1,16
 142 97 142 97 146 123 c 2,17,-1
 192 399 l 1,18,-1
 263 399 l 1,19,-1
 312 123 l 2,20,21
 317 100 317 100 319.5 80 c 128,-1,22
 322 60 322 60 323 53 c 1,23,-1
 325 53 l 1,24,25
 326 60 326 60 329.5 83.5 c 128,-1,26
 333 107 333 107 337 123 c 2,27,-1
 399 399 l 1,28,-1
 445 399 l 1,29,-1
 353 0 l 1,30,-1
 286 0 l 1,31,-1
 237 271 l 1,0,-1
EndSplineSet
Validated: 1
Position2: "'cpsp' Capital Spacing lookup 0 subtable" dx=5 dy=0 dh=10 dv=0
EndChar

StartChar: Wacute
Encoding: 7810 7810 118
Width: 451
VWidth: 659
GlyphClass: 2
Flags: W
LayerCount: 2
Back
Fore
SplineSet
231 438 m 1,0,-1
 191 438 l 1,1,-1
 241 515 l 1,2,-1
 293 515 l 1,3,-1
 294 513 l 1,4,-1
 231 438 l 1,0,-1
286 0 m 1,5,-1
 237 271 l 1,6,-1
 226 351 l 1,7,-1
 223 351 l 1,8,9
 222 342 222 342 219 318.5 c 128,-1,10
 216 295 216 295 213 271 c 2,11,-1
 165 0 l 1,12,-1
 98 0 l 1,13,-1
 6 399 l 1,14,-1
 60 399 l 1,15,-1
 121 123 l 2,16,17
 125 109 125 109 128.5 85 c 128,-1,18
 132 61 132 61 133 53 c 1,19,-1
 136 53 l 1,20,21
 137 59 137 59 139.5 78 c 128,-1,22
 142 97 142 97 146 123 c 2,23,-1
 192 399 l 1,24,-1
 263 399 l 1,25,-1
 312 123 l 2,26,27
 317 100 317 100 319.5 80 c 128,-1,28
 322 60 322 60 323 53 c 1,29,-1
 325 53 l 1,30,31
 326 60 326 60 329.5 83.5 c 128,-1,32
 333 107 333 107 337 123 c 2,33,-1
 399 399 l 1,34,-1
 445 399 l 1,35,-1
 353 0 l 1,36,-1
 286 0 l 1,5,-1
EndSplineSet
Validated: 1
Position2: "'cpsp' Capital Spacing lookup 0 subtable" dx=5 dy=0 dh=10 dv=0
EndChar

StartChar: Wcircumflex
Encoding: 372 372 119
Width: 451
VWidth: 659
GlyphClass: 2
Flags: W
LayerCount: 2
Back
Fore
SplineSet
226 481 m 1,0,-1
 200 435 l 1,1,-1
 153 435 l 1,2,-1
 204 514 l 1,3,-1
 248 514 l 1,4,-1
 299 435 l 1,5,-1
 252 435 l 1,6,-1
 226 481 l 1,0,-1
237 271 m 1,7,-1
 226 351 l 1,8,-1
 223 351 l 1,9,10
 222 342 222 342 219 318.5 c 128,-1,11
 216 295 216 295 213 271 c 2,12,-1
 165 0 l 1,13,-1
 98 0 l 1,14,-1
 6 399 l 1,15,-1
 60 399 l 1,16,-1
 121 123 l 2,17,18
 125 109 125 109 128.5 85 c 128,-1,19
 132 61 132 61 133 53 c 1,20,-1
 136 53 l 1,21,22
 137 59 137 59 139.5 78 c 128,-1,23
 142 97 142 97 146 123 c 2,24,-1
 192 399 l 1,25,-1
 263 399 l 1,26,-1
 312 123 l 2,27,28
 317 100 317 100 319.5 80 c 128,-1,29
 322 60 322 60 323 53 c 1,30,-1
 325 53 l 1,31,32
 326 60 326 60 329.5 83.5 c 128,-1,33
 333 107 333 107 337 123 c 2,34,-1
 399 399 l 1,35,-1
 445 399 l 1,36,-1
 353 0 l 1,37,-1
 286 0 l 1,38,-1
 237 271 l 1,7,-1
EndSplineSet
Validated: 1
Position2: "'cpsp' Capital Spacing lookup 0 subtable" dx=5 dy=0 dh=10 dv=0
EndChar

StartChar: Wdieresis
Encoding: 7812 7812 120
Width: 451
VWidth: 659
GlyphClass: 2
Flags: W
LayerCount: 2
Back
Fore
SplineSet
157 459 m 1,0,-1
 157 515 l 1,1,-1
 207 515 l 1,2,-1
 207 459 l 1,3,-1
 157 459 l 1,0,-1
244 459 m 1,4,-1
 244 515 l 1,5,-1
 295 515 l 1,6,-1
 295 459 l 1,7,-1
 244 459 l 1,4,-1
286 0 m 1,8,-1
 237 271 l 1,9,-1
 226 351 l 1,10,-1
 223 351 l 1,11,12
 222 342 222 342 219 318.5 c 128,-1,13
 216 295 216 295 213 271 c 2,14,-1
 165 0 l 1,15,-1
 98 0 l 1,16,-1
 6 399 l 1,17,-1
 60 399 l 1,18,-1
 121 123 l 2,19,20
 125 109 125 109 128.5 85 c 128,-1,21
 132 61 132 61 133 53 c 1,22,-1
 136 53 l 1,23,24
 137 59 137 59 139.5 78 c 128,-1,25
 142 97 142 97 146 123 c 2,26,-1
 192 399 l 1,27,-1
 263 399 l 1,28,-1
 312 123 l 2,29,30
 317 100 317 100 319.5 80 c 128,-1,31
 322 60 322 60 323 53 c 1,32,-1
 325 53 l 1,33,34
 326 60 326 60 329.5 83.5 c 128,-1,35
 333 107 333 107 337 123 c 2,36,-1
 399 399 l 1,37,-1
 445 399 l 1,38,-1
 353 0 l 1,39,-1
 286 0 l 1,8,-1
EndSplineSet
Validated: 1
Position2: "'cpsp' Capital Spacing lookup 0 subtable" dx=5 dy=0 dh=10 dv=0
EndChar

StartChar: Wgrave
Encoding: 7808 7808 121
Width: 451
VWidth: 659
GlyphClass: 2
Flags: W
LayerCount: 2
Back
Fore
SplineSet
220 438 m 1,0,-1
 158 513 l 1,1,-1
 158 515 l 1,2,-1
 210 515 l 1,3,-1
 260 438 l 1,4,-1
 220 438 l 1,0,-1
286 0 m 1,5,-1
 237 271 l 1,6,-1
 226 351 l 1,7,-1
 223 351 l 1,8,9
 222 342 222 342 219 318.5 c 128,-1,10
 216 295 216 295 213 271 c 2,11,-1
 165 0 l 1,12,-1
 98 0 l 1,13,-1
 6 399 l 1,14,-1
 60 399 l 1,15,-1
 121 123 l 2,16,17
 125 109 125 109 128.5 85 c 128,-1,18
 132 61 132 61 133 53 c 1,19,-1
 136 53 l 1,20,21
 137 59 137 59 139.5 78 c 128,-1,22
 142 97 142 97 146 123 c 2,23,-1
 192 399 l 1,24,-1
 263 399 l 1,25,-1
 312 123 l 2,26,27
 317 100 317 100 319.5 80 c 128,-1,28
 322 60 322 60 323 53 c 1,29,-1
 325 53 l 1,30,31
 326 60 326 60 329.5 83.5 c 128,-1,32
 333 107 333 107 337 123 c 2,33,-1
 399 399 l 1,34,-1
 445 399 l 1,35,-1
 353 0 l 1,36,-1
 286 0 l 1,5,-1
EndSplineSet
Validated: 1
Position2: "'cpsp' Capital Spacing lookup 0 subtable" dx=5 dy=0 dh=10 dv=0
EndChar

StartChar: X
Encoding: 88 88 122
Width: 319
VWidth: 659
GlyphClass: 2
Flags: W
LayerCount: 2
Back
Fore
SplineSet
256 0 m 1,0,-1
 157 163 l 1,1,-1
 57 0 l 1,2,-1
 3 0 l 1,3,-1
 130 208 l 1,4,-1
 14 399 l 1,5,-1
 74 399 l 1,6,-1
 161 257 l 1,7,-1
 248 399 l 1,8,-1
 304 399 l 1,9,-1
 188 212 l 1,10,-1
 316 0 l 1,11,-1
 256 0 l 1,0,-1
EndSplineSet
Validated: 1
Position2: "'cpsp' Capital Spacing lookup 0 subtable" dx=5 dy=0 dh=10 dv=0
EndChar

StartChar: Y
Encoding: 89 89 123
Width: 319
VWidth: 659
GlyphClass: 2
Flags: W
AnchorPoint: "Anchor-1" 0 0 basechar 0
AnchorPoint: "Anchor-0" 159 399 basechar 0
LayerCount: 2
Back
Fore
SplineSet
134 0 m 1,0,-1
 134 165 l 1,1,-1
 5 399 l 1,2,-1
 61 399 l 1,3,-1
 163 214 l 1,4,-1
 165 214 l 1,5,-1
 264 399 l 1,6,-1
 314 399 l 1,7,-1
 185 165 l 1,8,-1
 185 0 l 1,9,-1
 134 0 l 1,0,-1
EndSplineSet
Validated: 1
Position2: "'cpsp' Capital Spacing lookup 0 subtable" dx=5 dy=0 dh=10 dv=0
EndChar

StartChar: Yacute
Encoding: 221 221 124
Width: 319
VWidth: 659
GlyphClass: 2
Flags: W
LayerCount: 2
Back
Fore
SplineSet
165 438 m 1,0,-1
 125 438 l 1,1,-1
 175 515 l 1,2,-1
 227 515 l 1,3,-1
 228 513 l 1,4,-1
 165 438 l 1,0,-1
185 0 m 1,5,-1
 134 0 l 1,6,-1
 134 165 l 1,7,-1
 5 399 l 1,8,-1
 61 399 l 1,9,-1
 163 214 l 1,10,-1
 165 214 l 1,11,-1
 264 399 l 1,12,-1
 314 399 l 1,13,-1
 185 165 l 1,14,-1
 185 0 l 1,5,-1
EndSplineSet
Validated: 1
Position2: "'cpsp' Capital Spacing lookup 0 subtable" dx=5 dy=0 dh=10 dv=0
EndChar

StartChar: Ycircumflex
Encoding: 374 374 125
Width: 319
VWidth: 659
GlyphClass: 2
Flags: W
LayerCount: 2
Back
Fore
SplineSet
159 481 m 1,0,-1
 133 435 l 1,1,-1
 87 435 l 1,2,-1
 137 514 l 1,3,-1
 183 514 l 1,4,-1
 232 435 l 1,5,-1
 185 435 l 1,6,-1
 159 481 l 1,0,-1
134 0 m 1,7,-1
 134 165 l 1,8,-1
 5 399 l 1,9,-1
 61 399 l 1,10,-1
 163 214 l 1,11,-1
 165 214 l 1,12,-1
 264 399 l 1,13,-1
 314 399 l 1,14,-1
 185 165 l 1,15,-1
 185 0 l 1,16,-1
 134 0 l 1,7,-1
EndSplineSet
Validated: 1
Position2: "'cpsp' Capital Spacing lookup 0 subtable" dx=5 dy=0 dh=10 dv=0
EndChar

StartChar: Ydieresis
Encoding: 376 376 126
Width: 319
VWidth: 659
GlyphClass: 2
Flags: W
LayerCount: 2
Back
Fore
SplineSet
90 459 m 1,0,-1
 90 515 l 1,1,-1
 141 515 l 1,2,-1
 141 459 l 1,3,-1
 90 459 l 1,0,-1
178 459 m 1,4,-1
 178 515 l 1,5,-1
 229 515 l 1,6,-1
 229 459 l 1,7,-1
 178 459 l 1,4,-1
185 0 m 1,8,-1
 134 0 l 1,9,-1
 134 165 l 1,10,-1
 5 399 l 1,11,-1
 61 399 l 1,12,-1
 163 214 l 1,13,-1
 165 214 l 1,14,-1
 264 399 l 1,15,-1
 314 399 l 1,16,-1
 185 165 l 1,17,-1
 185 0 l 1,8,-1
EndSplineSet
Validated: 1
Position2: "'cpsp' Capital Spacing lookup 0 subtable" dx=5 dy=0 dh=10 dv=0
EndChar

StartChar: Ygrave
Encoding: 7922 7922 127
Width: 319
VWidth: 659
GlyphClass: 2
Flags: W
LayerCount: 2
Back
Fore
SplineSet
154 438 m 1,0,-1
 91 513 l 1,1,-1
 92 515 l 1,2,-1
 144 515 l 1,3,-1
 194 438 l 1,4,-1
 154 438 l 1,0,-1
185 0 m 1,5,-1
 134 0 l 1,6,-1
 134 165 l 1,7,-1
 5 399 l 1,8,-1
 61 399 l 1,9,-1
 163 214 l 1,10,-1
 165 214 l 1,11,-1
 264 399 l 1,12,-1
 314 399 l 1,13,-1
 185 165 l 1,14,-1
 185 0 l 1,5,-1
EndSplineSet
Validated: 1
Position2: "'cpsp' Capital Spacing lookup 0 subtable" dx=5 dy=0 dh=10 dv=0
EndChar

StartChar: Z
Encoding: 90 90 128
Width: 292
VWidth: 659
GlyphClass: 2
Flags: W
AnchorPoint: "Anchor-1" 0 0 basechar 0
AnchorPoint: "Anchor-0" 146 399 basechar 0
LayerCount: 2
Back
Fore
SplineSet
84 47 m 1,0,-1
 279 47 l 1,1,-1
 279 0 l 1,2,-1
 12 0 l 1,3,-1
 12 22 l 1,4,-1
 202 353 l 1,5,-1
 24 353 l 1,6,-1
 24 399 l 1,7,-1
 275 399 l 1,8,-1
 275 378 l 1,9,-1
 84 47 l 1,0,-1
EndSplineSet
Validated: 1
Position2: "'cpsp' Capital Spacing lookup 0 subtable" dx=5 dy=0 dh=10 dv=0
EndChar

StartChar: Zacute
Encoding: 377 377 129
Width: 292
VWidth: 659
GlyphClass: 2
Flags: W
LayerCount: 2
Back
Fore
SplineSet
152 438 m 1,0,-1
 111 438 l 1,1,-1
 161 515 l 1,2,-1
 214 515 l 1,3,-1
 214 513 l 1,4,-1
 152 438 l 1,0,-1
84 47 m 1,5,-1
 279 47 l 1,6,-1
 279 0 l 1,7,-1
 12 0 l 1,8,-1
 12 22 l 1,9,-1
 202 353 l 1,10,-1
 24 353 l 1,11,-1
 24 399 l 1,12,-1
 275 399 l 1,13,-1
 275 378 l 1,14,-1
 84 47 l 1,5,-1
EndSplineSet
Validated: 1
Position2: "'cpsp' Capital Spacing lookup 0 subtable" dx=5 dy=0 dh=10 dv=0
EndChar

StartChar: Zcaron
Encoding: 381 381 130
Width: 292
VWidth: 659
GlyphClass: 2
Flags: W
LayerCount: 2
Back
Fore
SplineSet
123 436 m 1,0,-1
 73 515 l 1,1,-1
 120 515 l 1,2,-1
 146 469 l 1,3,-1
 172 515 l 1,4,-1
 218 515 l 1,5,-1
 168 436 l 1,6,-1
 123 436 l 1,0,-1
84 47 m 1,7,-1
 279 47 l 1,8,-1
 279 0 l 1,9,-1
 12 0 l 1,10,-1
 12 22 l 1,11,-1
 202 353 l 1,12,-1
 24 353 l 1,13,-1
 24 399 l 1,14,-1
 275 399 l 1,15,-1
 275 378 l 1,16,-1
 84 47 l 1,7,-1
EndSplineSet
Validated: 1
Position2: "'cpsp' Capital Spacing lookup 0 subtable" dx=5 dy=0 dh=10 dv=0
EndChar

StartChar: Zdotaccent
Encoding: 379 379 131
Width: 292
VWidth: 659
GlyphClass: 2
Flags: W
LayerCount: 2
Back
Fore
SplineSet
121 459 m 1,0,-1
 121 515 l 1,1,-1
 171 515 l 1,2,-1
 171 459 l 1,3,-1
 121 459 l 1,0,-1
84 47 m 1,4,-1
 279 47 l 1,5,-1
 279 0 l 1,6,-1
 12 0 l 1,7,-1
 12 22 l 1,8,-1
 202 353 l 1,9,-1
 24 353 l 1,10,-1
 24 399 l 1,11,-1
 275 399 l 1,12,-1
 275 378 l 1,13,-1
 84 47 l 1,4,-1
EndSplineSet
Validated: 1
Position2: "'cpsp' Capital Spacing lookup 0 subtable" dx=5 dy=0 dh=10 dv=0
EndChar

StartChar: a
Encoding: 97 97 132
Width: 266
VWidth: 659
GlyphClass: 2
Flags: W
AnchorPoint: "Anchor-1" 0 0 basechar 0
AnchorPoint: "Anchor-0" 133 306 basechar 0
LayerCount: 2
Back
Fore
SplineSet
199.5 291.5 m 128,-1,1
 223 269 223 269 223 228 c 2,2,-1
 223 56 l 2,3,4
 223 46 223 46 227.5 41 c 128,-1,5
 232 36 232 36 239 36 c 2,6,-1
 258 36 l 1,7,-1
 258 3 l 1,8,9
 246 -5 246 -5 226 -5 c 0,10,11
 208 -5 208 -5 195 5.5 c 128,-1,12
 182 16 182 16 178 33 c 1,13,-1
 175 33 l 1,14,15
 163 14 163 14 143.5 3.5 c 128,-1,16
 124 -7 124 -7 100 -7 c 0,17,18
 69 -7 69 -7 44.5 11.5 c 128,-1,19
 20 30 20 30 20 79 c 0,20,21
 20 138 20 138 60 160 c 128,-1,22
 100 182 100 182 175 182 c 1,23,-1
 175 221 l 2,24,25
 175 245 175 245 164.5 258 c 128,-1,26
 154 271 154 271 127 271 c 0,27,28
 102 271 102 271 90.5 257 c 128,-1,29
 79 243 79 243 79 223 c 2,30,-1
 79 215 l 1,31,-1
 32 215 l 1,32,-1
 32 229 l 2,33,34
 32 269 32 269 59 291.5 c 128,-1,35
 86 314 86 314 130 314 c 0,36,0
 176 314 176 314 199.5 291.5 c 128,-1,1
96.5 127 m 128,-1,38
 70 115 70 115 70 82 c 0,39,40
 70 57 70 57 80 46.5 c 128,-1,41
 90 36 90 36 111 36 c 0,42,43
 136 36 136 36 155.5 56 c 128,-1,44
 175 76 175 76 175 111 c 2,45,-1
 175 139 l 1,46,37
 123 139 123 139 96.5 127 c 128,-1,38
EndSplineSet
Validated: 1
Substitution2: "Single Substitution lookup 42 subtable" ordfeminine
Substitution2: "'aalt' Access All Alternates lookup 0 subtable" ordfeminine
EndChar

StartChar: aacute
Encoding: 225 225 133
Width: 266
VWidth: 659
GlyphClass: 2
Flags: W
LayerCount: 2
Back
Fore
SplineSet
136 344 m 1,0,-1
 96 344 l 1,1,-1
 146 421 l 1,2,-1
 198 421 l 1,3,-1
 198 419 l 1,4,-1
 136 344 l 1,0,-1
199.5 291.5 m 128,-1,6
 223 269 223 269 223 228 c 2,7,-1
 223 56 l 2,8,9
 223 46 223 46 227.5 41 c 128,-1,10
 232 36 232 36 239 36 c 2,11,-1
 258 36 l 1,12,-1
 258 3 l 1,13,14
 246 -5 246 -5 226 -5 c 0,15,16
 208 -5 208 -5 195 5.5 c 128,-1,17
 182 16 182 16 178 33 c 1,18,-1
 175 33 l 1,19,20
 163 14 163 14 143.5 3.5 c 128,-1,21
 124 -7 124 -7 100 -7 c 0,22,23
 69 -7 69 -7 44.5 11.5 c 128,-1,24
 20 30 20 30 20 79 c 0,25,26
 20 138 20 138 60 160 c 128,-1,27
 100 182 100 182 175 182 c 1,28,-1
 175 221 l 2,29,30
 175 245 175 245 164.5 258 c 128,-1,31
 154 271 154 271 127 271 c 0,32,33
 102 271 102 271 90.5 257 c 128,-1,34
 79 243 79 243 79 223 c 2,35,-1
 79 215 l 1,36,-1
 32 215 l 1,37,-1
 32 229 l 2,38,39
 32 269 32 269 59 291.5 c 128,-1,40
 86 314 86 314 130 314 c 0,41,5
 176 314 176 314 199.5 291.5 c 128,-1,6
96.5 127 m 128,-1,43
 70 115 70 115 70 82 c 0,44,45
 70 57 70 57 80 46.5 c 128,-1,46
 90 36 90 36 111 36 c 0,47,48
 136 36 136 36 155.5 56 c 128,-1,49
 175 76 175 76 175 111 c 2,50,-1
 175 139 l 1,51,42
 123 139 123 139 96.5 127 c 128,-1,43
EndSplineSet
Validated: 1
EndChar

StartChar: abreve
Encoding: 259 259 134
Width: 266
VWidth: 659
GlyphClass: 2
Flags: W
LayerCount: 2
Back
Fore
SplineSet
185 382 m 128,-1,1
 165 364 165 364 133 364 c 256,2,3
 101 364 101 364 81 382 c 128,-1,4
 61 400 61 400 61 421 c 1,5,-1
 98 421 l 1,6,7
 100 414 100 414 109.5 408 c 128,-1,8
 119 402 119 402 133 402 c 256,9,10
 147 402 147 402 157 408 c 128,-1,11
 167 414 167 414 168 421 c 1,12,-1
 205 421 l 1,13,0
 205 400 205 400 185 382 c 128,-1,1
199.5 291.5 m 128,-1,15
 223 269 223 269 223 228 c 2,16,-1
 223 56 l 2,17,18
 223 46 223 46 227.5 41 c 128,-1,19
 232 36 232 36 239 36 c 2,20,-1
 258 36 l 1,21,-1
 258 3 l 1,22,23
 246 -5 246 -5 226 -5 c 0,24,25
 208 -5 208 -5 195 5.5 c 128,-1,26
 182 16 182 16 178 33 c 1,27,-1
 175 33 l 1,28,29
 163 14 163 14 143.5 3.5 c 128,-1,30
 124 -7 124 -7 100 -7 c 0,31,32
 69 -7 69 -7 44.5 11.5 c 128,-1,33
 20 30 20 30 20 79 c 0,34,35
 20 138 20 138 60 160 c 128,-1,36
 100 182 100 182 175 182 c 1,37,-1
 175 221 l 2,38,39
 175 245 175 245 164.5 258 c 128,-1,40
 154 271 154 271 127 271 c 0,41,42
 102 271 102 271 90.5 257 c 128,-1,43
 79 243 79 243 79 223 c 2,44,-1
 79 215 l 1,45,-1
 32 215 l 1,46,-1
 32 229 l 2,47,48
 32 269 32 269 59 291.5 c 128,-1,49
 86 314 86 314 130 314 c 0,50,14
 176 314 176 314 199.5 291.5 c 128,-1,15
96.5 127 m 128,-1,52
 70 115 70 115 70 82 c 0,53,54
 70 57 70 57 80 46.5 c 128,-1,55
 90 36 90 36 111 36 c 0,56,57
 136 36 136 36 155.5 56 c 128,-1,58
 175 76 175 76 175 111 c 2,59,-1
 175 139 l 1,60,51
 123 139 123 139 96.5 127 c 128,-1,52
EndSplineSet
Validated: 1
EndChar

StartChar: acircumflex
Encoding: 226 226 135
Width: 266
VWidth: 659
GlyphClass: 2
Flags: W
LayerCount: 2
Back
Fore
SplineSet
133 388 m 1,0,-1
 107 342 l 1,1,-1
 61 342 l 1,2,-1
 110 420 l 1,3,-1
 156 420 l 1,4,-1
 206 342 l 1,5,-1
 159 342 l 1,6,-1
 133 388 l 1,0,-1
199.5 291.5 m 128,-1,8
 223 269 223 269 223 228 c 2,9,-1
 223 56 l 2,10,11
 223 46 223 46 227.5 41 c 128,-1,12
 232 36 232 36 239 36 c 2,13,-1
 258 36 l 1,14,-1
 258 3 l 1,15,16
 246 -5 246 -5 226 -5 c 0,17,18
 208 -5 208 -5 195 5.5 c 128,-1,19
 182 16 182 16 178 33 c 1,20,-1
 175 33 l 1,21,22
 163 14 163 14 143.5 3.5 c 128,-1,23
 124 -7 124 -7 100 -7 c 0,24,25
 69 -7 69 -7 44.5 11.5 c 128,-1,26
 20 30 20 30 20 79 c 0,27,28
 20 138 20 138 60 160 c 128,-1,29
 100 182 100 182 175 182 c 1,30,-1
 175 221 l 2,31,32
 175 245 175 245 164.5 258 c 128,-1,33
 154 271 154 271 127 271 c 0,34,35
 102 271 102 271 90.5 257 c 128,-1,36
 79 243 79 243 79 223 c 2,37,-1
 79 215 l 1,38,-1
 32 215 l 1,39,-1
 32 229 l 2,40,41
 32 269 32 269 59 291.5 c 128,-1,42
 86 314 86 314 130 314 c 0,43,7
 176 314 176 314 199.5 291.5 c 128,-1,8
96.5 127 m 128,-1,45
 70 115 70 115 70 82 c 0,46,47
 70 57 70 57 80 46.5 c 128,-1,48
 90 36 90 36 111 36 c 0,49,50
 136 36 136 36 155.5 56 c 128,-1,51
 175 76 175 76 175 111 c 2,52,-1
 175 139 l 1,53,44
 123 139 123 139 96.5 127 c 128,-1,45
EndSplineSet
Validated: 1
EndChar

StartChar: adieresis
Encoding: 228 228 136
Width: 266
VWidth: 659
GlyphClass: 2
Flags: W
LayerCount: 2
Back
Fore
SplineSet
63 366 m 1,0,-1
 63 421 l 1,1,-1
 114 421 l 1,2,-1
 114 366 l 1,3,-1
 63 366 l 1,0,-1
151 366 m 1,4,-1
 151 421 l 1,5,-1
 202 421 l 1,6,-1
 202 366 l 1,7,-1
 151 366 l 1,4,-1
199.5 291.5 m 128,-1,9
 223 269 223 269 223 228 c 2,10,-1
 223 56 l 2,11,12
 223 46 223 46 227.5 41 c 128,-1,13
 232 36 232 36 239 36 c 2,14,-1
 258 36 l 1,15,-1
 258 3 l 1,16,17
 246 -5 246 -5 226 -5 c 0,18,19
 208 -5 208 -5 195 5.5 c 128,-1,20
 182 16 182 16 178 33 c 1,21,-1
 175 33 l 1,22,23
 163 14 163 14 143.5 3.5 c 128,-1,24
 124 -7 124 -7 100 -7 c 0,25,26
 69 -7 69 -7 44.5 11.5 c 128,-1,27
 20 30 20 30 20 79 c 0,28,29
 20 138 20 138 60 160 c 128,-1,30
 100 182 100 182 175 182 c 1,31,-1
 175 221 l 2,32,33
 175 245 175 245 164.5 258 c 128,-1,34
 154 271 154 271 127 271 c 0,35,36
 102 271 102 271 90.5 257 c 128,-1,37
 79 243 79 243 79 223 c 2,38,-1
 79 215 l 1,39,-1
 32 215 l 1,40,-1
 32 229 l 2,41,42
 32 269 32 269 59 291.5 c 128,-1,43
 86 314 86 314 130 314 c 0,44,8
 176 314 176 314 199.5 291.5 c 128,-1,9
96.5 127 m 128,-1,46
 70 115 70 115 70 82 c 0,47,48
 70 57 70 57 80 46.5 c 128,-1,49
 90 36 90 36 111 36 c 0,50,51
 136 36 136 36 155.5 56 c 128,-1,52
 175 76 175 76 175 111 c 2,53,-1
 175 139 l 1,54,45
 123 139 123 139 96.5 127 c 128,-1,46
EndSplineSet
Validated: 1
EndChar

StartChar: agrave
Encoding: 224 224 137
Width: 266
VWidth: 659
GlyphClass: 2
Flags: W
LayerCount: 2
Back
Fore
SplineSet
125 344 m 1,0,-1
 62 419 l 1,1,-1
 63 421 l 1,2,-1
 115 421 l 1,3,-1
 165 344 l 1,4,-1
 125 344 l 1,0,-1
199.5 291.5 m 128,-1,6
 223 269 223 269 223 228 c 2,7,-1
 223 56 l 2,8,9
 223 46 223 46 227.5 41 c 128,-1,10
 232 36 232 36 239 36 c 2,11,-1
 258 36 l 1,12,-1
 258 3 l 1,13,14
 246 -5 246 -5 226 -5 c 0,15,16
 208 -5 208 -5 195 5.5 c 128,-1,17
 182 16 182 16 178 33 c 1,18,-1
 175 33 l 1,19,20
 163 14 163 14 143.5 3.5 c 128,-1,21
 124 -7 124 -7 100 -7 c 0,22,23
 69 -7 69 -7 44.5 11.5 c 128,-1,24
 20 30 20 30 20 79 c 0,25,26
 20 138 20 138 60 160 c 128,-1,27
 100 182 100 182 175 182 c 1,28,-1
 175 221 l 2,29,30
 175 245 175 245 164.5 258 c 128,-1,31
 154 271 154 271 127 271 c 0,32,33
 102 271 102 271 90.5 257 c 128,-1,34
 79 243 79 243 79 223 c 2,35,-1
 79 215 l 1,36,-1
 32 215 l 1,37,-1
 32 229 l 2,38,39
 32 269 32 269 59 291.5 c 128,-1,40
 86 314 86 314 130 314 c 0,41,5
 176 314 176 314 199.5 291.5 c 128,-1,6
96.5 127 m 128,-1,43
 70 115 70 115 70 82 c 0,44,45
 70 57 70 57 80 46.5 c 128,-1,46
 90 36 90 36 111 36 c 0,47,48
 136 36 136 36 155.5 56 c 128,-1,49
 175 76 175 76 175 111 c 2,50,-1
 175 139 l 1,51,42
 123 139 123 139 96.5 127 c 128,-1,43
EndSplineSet
Validated: 1
EndChar

StartChar: amacron
Encoding: 257 257 138
Width: 266
VWidth: 659
GlyphClass: 2
Flags: W
LayerCount: 2
Back
Fore
SplineSet
60 391 m 1,0,-1
 206 391 l 1,1,-1
 206 349 l 1,2,-1
 60 349 l 1,3,-1
 60 391 l 1,0,-1
199.5 291.5 m 128,-1,5
 223 269 223 269 223 228 c 2,6,-1
 223 56 l 2,7,8
 223 46 223 46 227.5 41 c 128,-1,9
 232 36 232 36 239 36 c 2,10,-1
 258 36 l 1,11,-1
 258 3 l 1,12,13
 246 -5 246 -5 226 -5 c 0,14,15
 208 -5 208 -5 195 5.5 c 128,-1,16
 182 16 182 16 178 33 c 1,17,-1
 175 33 l 1,18,19
 163 14 163 14 143.5 3.5 c 128,-1,20
 124 -7 124 -7 100 -7 c 0,21,22
 69 -7 69 -7 44.5 11.5 c 128,-1,23
 20 30 20 30 20 79 c 0,24,25
 20 138 20 138 60 160 c 128,-1,26
 100 182 100 182 175 182 c 1,27,-1
 175 221 l 2,28,29
 175 245 175 245 164.5 258 c 128,-1,30
 154 271 154 271 127 271 c 0,31,32
 102 271 102 271 90.5 257 c 128,-1,33
 79 243 79 243 79 223 c 2,34,-1
 79 215 l 1,35,-1
 32 215 l 1,36,-1
 32 229 l 2,37,38
 32 269 32 269 59 291.5 c 128,-1,39
 86 314 86 314 130 314 c 0,40,4
 176 314 176 314 199.5 291.5 c 128,-1,5
96.5 127 m 128,-1,42
 70 115 70 115 70 82 c 0,43,44
 70 57 70 57 80 46.5 c 128,-1,45
 90 36 90 36 111 36 c 0,46,47
 136 36 136 36 155.5 56 c 128,-1,48
 175 76 175 76 175 111 c 2,49,-1
 175 139 l 1,50,41
 123 139 123 139 96.5 127 c 128,-1,42
EndSplineSet
Validated: 1
EndChar

StartChar: aogonek
Encoding: 261 261 139
Width: 266
VWidth: 659
GlyphClass: 2
Flags: W
LayerCount: 2
Back
Fore
SplineSet
252 -106 m 0,1,2
 230 -106 230 -106 213.5 -93.5 c 128,-1,3
 197 -81 197 -81 197 -53 c 256,4,5
 197 -25 197 -25 214 -3 c 1,6,7
 186 3 186 3 178 33 c 1,8,-1
 175 33 l 1,9,10
 163 14 163 14 143.5 3.5 c 128,-1,11
 124 -7 124 -7 100 -7 c 0,12,13
 69 -7 69 -7 44.5 11.5 c 128,-1,14
 20 30 20 30 20 79 c 0,15,16
 20 138 20 138 60 160 c 128,-1,17
 100 182 100 182 175 182 c 1,18,-1
 175 221 l 2,19,20
 175 245 175 245 164.5 258 c 128,-1,21
 154 271 154 271 127 271 c 0,22,23
 102 271 102 271 90.5 257 c 128,-1,24
 79 243 79 243 79 223 c 2,25,-1
 79 215 l 1,26,-1
 32 215 l 1,27,-1
 32 229 l 2,28,29
 32 269 32 269 59 291.5 c 128,-1,30
 86 314 86 314 130 314 c 0,31,32
 176 314 176 314 199.5 291.5 c 128,-1,33
 223 269 223 269 223 228 c 2,34,-1
 223 56 l 2,35,36
 223 46 223 46 227.5 41 c 128,-1,37
 232 36 232 36 239 36 c 2,38,-1
 258 36 l 1,39,-1
 258 3 l 1,40,41
 243 -16 243 -16 243 -36 c 0,42,43
 243 -68 243 -68 269 -68 c 2,44,-1
 287 -68 l 1,45,-1
 287 -98 l 1,46,0
 268 -106 268 -106 252 -106 c 0,1,2
96.5 127 m 128,-1,48
 70 115 70 115 70 82 c 0,49,50
 70 57 70 57 80 46.5 c 128,-1,51
 90 36 90 36 111 36 c 0,52,53
 136 36 136 36 155.5 56 c 128,-1,54
 175 76 175 76 175 111 c 2,55,-1
 175 139 l 1,56,47
 123 139 123 139 96.5 127 c 128,-1,48
EndSplineSet
Validated: 1
EndChar

StartChar: aring
Encoding: 229 229 140
Width: 266
VWidth: 659
GlyphClass: 2
Flags: W
LayerCount: 2
Back
Fore
SplineSet
172 423.5 m 128,-1,1
 188 407 188 407 188 384 c 256,2,3
 188 361 188 361 172 344.5 c 128,-1,4
 156 328 156 328 133 328 c 256,5,6
 110 328 110 328 93.5 344 c 128,-1,7
 77 360 77 360 77 384 c 0,8,9
 77 407 77 407 93.5 423.5 c 128,-1,10
 110 440 110 440 133 440 c 256,11,0
 156 440 156 440 172 423.5 c 128,-1,1
112 404.5 m 128,-1,13
 103 396 103 396 103 384 c 256,14,15
 103 372 103 372 112 363 c 128,-1,16
 121 354 121 354 133 354 c 0,17,18
 144 354 144 354 153.5 363 c 128,-1,19
 163 372 163 372 163 384 c 256,20,21
 163 396 163 396 154 404.5 c 128,-1,22
 145 413 145 413 133 413 c 256,23,12
 121 413 121 413 112 404.5 c 128,-1,13
199.5 291.5 m 128,-1,25
 223 269 223 269 223 228 c 2,26,-1
 223 56 l 2,27,28
 223 46 223 46 227.5 41 c 128,-1,29
 232 36 232 36 239 36 c 2,30,-1
 258 36 l 1,31,-1
 258 3 l 1,32,33
 246 -5 246 -5 226 -5 c 0,34,35
 208 -5 208 -5 195 5.5 c 128,-1,36
 182 16 182 16 178 33 c 1,37,-1
 175 33 l 1,38,39
 163 14 163 14 143.5 3.5 c 128,-1,40
 124 -7 124 -7 100 -7 c 0,41,42
 69 -7 69 -7 44.5 11.5 c 128,-1,43
 20 30 20 30 20 79 c 0,44,45
 20 138 20 138 60 160 c 128,-1,46
 100 182 100 182 175 182 c 1,47,-1
 175 221 l 2,48,49
 175 245 175 245 164.5 258 c 128,-1,50
 154 271 154 271 127 271 c 0,51,52
 102 271 102 271 90.5 257 c 128,-1,53
 79 243 79 243 79 223 c 2,54,-1
 79 215 l 1,55,-1
 32 215 l 1,56,-1
 32 229 l 2,57,58
 32 269 32 269 59 291.5 c 128,-1,59
 86 314 86 314 130 314 c 0,60,24
 176 314 176 314 199.5 291.5 c 128,-1,25
96.5 127 m 128,-1,62
 70 115 70 115 70 82 c 0,63,64
 70 57 70 57 80 46.5 c 128,-1,65
 90 36 90 36 111 36 c 0,66,67
 136 36 136 36 155.5 56 c 128,-1,68
 175 76 175 76 175 111 c 2,69,-1
 175 139 l 1,70,61
 123 139 123 139 96.5 127 c 128,-1,62
EndSplineSet
Validated: 1
EndChar

StartChar: aringacute
Encoding: 507 507 141
Width: 266
VWidth: 659
GlyphClass: 2
Flags: W
LayerCount: 2
Back
Fore
SplineSet
154 447 m 1,0,-1
 114 447 l 1,1,-1
 158 515 l 1,2,-1
 210 515 l 1,3,-1
 211 513 l 1,4,-1
 154 447 l 1,0,-1
172.5 419 m 128,-1,6
 188 404 188 404 188 382 c 256,7,8
 188 360 188 360 172 344.5 c 128,-1,9
 156 329 156 329 133 329 c 256,10,11
 110 329 110 329 93.5 344 c 128,-1,12
 77 359 77 359 77 382 c 0,13,14
 77 404 77 404 93.5 419 c 128,-1,15
 110 434 110 434 133 434 c 0,16,5
 157 434 157 434 172.5 419 c 128,-1,6
112 401 m 128,-1,18
 103 393 103 393 103 382 c 0,19,20
 103 370 103 370 112 362 c 128,-1,21
 121 354 121 354 133 354 c 256,22,23
 145 354 145 354 154 362 c 128,-1,24
 163 370 163 370 163 382 c 0,25,26
 163 393 163 393 154 401 c 128,-1,27
 145 409 145 409 133 409 c 256,28,17
 121 409 121 409 112 401 c 128,-1,18
199.5 291.5 m 128,-1,30
 223 269 223 269 223 228 c 2,31,-1
 223 56 l 2,32,33
 223 46 223 46 227.5 41 c 128,-1,34
 232 36 232 36 239 36 c 2,35,-1
 258 36 l 1,36,-1
 258 3 l 1,37,38
 246 -5 246 -5 226 -5 c 0,39,40
 208 -5 208 -5 195 5.5 c 128,-1,41
 182 16 182 16 178 33 c 1,42,-1
 175 33 l 1,43,44
 163 14 163 14 143.5 3.5 c 128,-1,45
 124 -7 124 -7 100 -7 c 0,46,47
 69 -7 69 -7 44.5 11.5 c 128,-1,48
 20 30 20 30 20 79 c 0,49,50
 20 138 20 138 60 160 c 128,-1,51
 100 182 100 182 175 182 c 1,52,-1
 175 221 l 2,53,54
 175 245 175 245 164.5 258 c 128,-1,55
 154 271 154 271 127 271 c 0,56,57
 102 271 102 271 90.5 257 c 128,-1,58
 79 243 79 243 79 223 c 2,59,-1
 79 215 l 1,60,-1
 32 215 l 1,61,-1
 32 229 l 2,62,63
 32 269 32 269 59 291.5 c 128,-1,64
 86 314 86 314 130 314 c 0,65,29
 176 314 176 314 199.5 291.5 c 128,-1,30
96.5 127 m 128,-1,67
 70 115 70 115 70 82 c 0,68,69
 70 57 70 57 80 46.5 c 128,-1,70
 90 36 90 36 111 36 c 0,71,72
 136 36 136 36 155.5 56 c 128,-1,73
 175 76 175 76 175 111 c 2,74,-1
 175 139 l 1,75,66
 123 139 123 139 96.5 127 c 128,-1,67
EndSplineSet
Validated: 1
EndChar

StartChar: atilde
Encoding: 227 227 142
Width: 266
VWidth: 659
GlyphClass: 2
Flags: W
LayerCount: 2
Back
Fore
SplineSet
205.5 378.5 m 128,-1,1
 193 360 193 360 168 360 c 0,2,3
 155 360 155 360 133 370 c 0,4,5
 110 379 110 379 101 379 c 0,6,7
 83 379 83 379 82 360 c 1,8,-1
 47 360 l 1,9,10
 47 383 47 383 60.5 402 c 128,-1,11
 74 421 74 421 98 421 c 0,12,13
 109 421 109 421 120 417 c 128,-1,14
 131 413 131 413 133 412 c 0,15,16
 151 403 151 403 164 403 c 0,17,18
 183 403 183 403 184 421 c 1,19,-1
 218 421 l 1,20,0
 218 397 218 397 205.5 378.5 c 128,-1,1
199.5 291.5 m 128,-1,22
 223 269 223 269 223 228 c 2,23,-1
 223 56 l 2,24,25
 223 46 223 46 227.5 41 c 128,-1,26
 232 36 232 36 239 36 c 2,27,-1
 258 36 l 1,28,-1
 258 3 l 1,29,30
 246 -5 246 -5 226 -5 c 0,31,32
 208 -5 208 -5 195 5.5 c 128,-1,33
 182 16 182 16 178 33 c 1,34,-1
 175 33 l 1,35,36
 163 14 163 14 143.5 3.5 c 128,-1,37
 124 -7 124 -7 100 -7 c 0,38,39
 69 -7 69 -7 44.5 11.5 c 128,-1,40
 20 30 20 30 20 79 c 0,41,42
 20 138 20 138 60 160 c 128,-1,43
 100 182 100 182 175 182 c 1,44,-1
 175 221 l 2,45,46
 175 245 175 245 164.5 258 c 128,-1,47
 154 271 154 271 127 271 c 0,48,49
 102 271 102 271 90.5 257 c 128,-1,50
 79 243 79 243 79 223 c 2,51,-1
 79 215 l 1,52,-1
 32 215 l 1,53,-1
 32 229 l 2,54,55
 32 269 32 269 59 291.5 c 128,-1,56
 86 314 86 314 130 314 c 0,57,21
 176 314 176 314 199.5 291.5 c 128,-1,22
96.5 127 m 128,-1,59
 70 115 70 115 70 82 c 0,60,61
 70 57 70 57 80 46.5 c 128,-1,62
 90 36 90 36 111 36 c 0,63,64
 136 36 136 36 155.5 56 c 128,-1,65
 175 76 175 76 175 111 c 2,66,-1
 175 139 l 1,67,58
 123 139 123 139 96.5 127 c 128,-1,59
EndSplineSet
Validated: 1
EndChar

StartChar: ae
Encoding: 230 230 143
Width: 424
VWidth: 659
GlyphClass: 2
Flags: W
AnchorPoint: "Anchor-1" 0 0 basechar 0
AnchorPoint: "Anchor-0" 213 306 basechar 0
LayerCount: 2
Back
Fore
SplineSet
369 279.5 m 128,-1,1
 394 245 394 245 394 169 c 2,2,-1
 394 139 l 1,3,-1
 229 139 l 1,4,5
 229 86 229 86 245 61 c 128,-1,6
 261 36 261 36 295 36 c 0,7,8
 318 36 318 36 332.5 54.5 c 128,-1,9
 347 73 347 73 347 104 c 1,10,-1
 394 104 l 1,11,12
 394 53 394 53 366.5 23 c 128,-1,13
 339 -7 339 -7 294 -7 c 0,14,15
 228 -7 228 -7 201 40 c 1,16,17
 184 18 184 18 161.5 5.5 c 128,-1,18
 139 -7 139 -7 113 -7 c 0,19,20
 23 -7 23 -7 23 79 c 0,21,22
 23 138 23 138 63.5 160 c 128,-1,23
 104 182 104 182 179 182 c 1,24,-1
 179 221 l 2,25,26
 179 245 179 245 168 258 c 128,-1,27
 157 271 157 271 130 271 c 0,28,29
 105 271 105 271 94 257 c 128,-1,30
 83 243 83 243 83 223 c 2,31,-1
 83 215 l 1,32,-1
 36 215 l 1,33,34
 35 219 35 219 35 229 c 0,35,36
 35 269 35 269 62 291.5 c 128,-1,37
 89 314 89 314 133 314 c 0,38,39
 190 314 190 314 212 279 c 1,40,41
 241 314 241 314 294 314 c 0,42,0
 344 314 344 314 369 279.5 c 128,-1,1
247 249 m 128,-1,44
 232 227 232 227 229 182 c 1,45,-1
 344 182 l 1,46,47
 344 271 344 271 294 271 c 0,48,43
 262 271 262 271 247 249 c 128,-1,44
99.5 127 m 128,-1,50
 73 115 73 115 73 82 c 0,51,52
 73 57 73 57 83.5 46.5 c 128,-1,53
 94 36 94 36 115 36 c 0,54,55
 140 36 140 36 159.5 54.5 c 128,-1,56
 179 73 179 73 179 107 c 2,57,-1
 179 139 l 1,58,49
 126 139 126 139 99.5 127 c 128,-1,50
EndSplineSet
Validated: 1
EndChar

StartChar: aeacute
Encoding: 509 509 144
Width: 424
VWidth: 659
GlyphClass: 2
Flags: W
LayerCount: 2
Back
Fore
SplineSet
218 344 m 1,0,-1
 178 344 l 1,1,-1
 228 421 l 1,2,-1
 280 421 l 1,3,-1
 281 419 l 1,4,-1
 218 344 l 1,0,-1
369 279.5 m 128,-1,6
 394 245 394 245 394 169 c 2,7,-1
 394 139 l 1,8,-1
 229 139 l 1,9,10
 229 86 229 86 245 61 c 128,-1,11
 261 36 261 36 295 36 c 0,12,13
 318 36 318 36 332.5 54.5 c 128,-1,14
 347 73 347 73 347 104 c 1,15,-1
 394 104 l 1,16,17
 394 53 394 53 366.5 23 c 128,-1,18
 339 -7 339 -7 294 -7 c 0,19,20
 228 -7 228 -7 201 40 c 1,21,22
 184 18 184 18 161.5 5.5 c 128,-1,23
 139 -7 139 -7 113 -7 c 0,24,25
 23 -7 23 -7 23 79 c 0,26,27
 23 138 23 138 63.5 160 c 128,-1,28
 104 182 104 182 179 182 c 1,29,-1
 179 221 l 2,30,31
 179 245 179 245 168 258 c 128,-1,32
 157 271 157 271 130 271 c 0,33,34
 105 271 105 271 94 257 c 128,-1,35
 83 243 83 243 83 223 c 2,36,-1
 83 215 l 1,37,-1
 36 215 l 1,38,39
 35 219 35 219 35 229 c 0,40,41
 35 269 35 269 62 291.5 c 128,-1,42
 89 314 89 314 133 314 c 0,43,44
 190 314 190 314 212 279 c 1,45,46
 241 314 241 314 294 314 c 0,47,5
 344 314 344 314 369 279.5 c 128,-1,6
247 249 m 128,-1,49
 232 227 232 227 229 182 c 1,50,-1
 344 182 l 1,51,52
 344 271 344 271 294 271 c 0,53,48
 262 271 262 271 247 249 c 128,-1,49
99.5 127 m 128,-1,55
 73 115 73 115 73 82 c 0,56,57
 73 57 73 57 83.5 46.5 c 128,-1,58
 94 36 94 36 115 36 c 0,59,60
 140 36 140 36 159.5 54.5 c 128,-1,61
 179 73 179 73 179 107 c 2,62,-1
 179 139 l 1,63,54
 126 139 126 139 99.5 127 c 128,-1,55
EndSplineSet
Validated: 1
EndChar

StartChar: b
Encoding: 98 98 145
Width: 266
VWidth: 659
GlyphClass: 2
Flags: W
LayerCount: 2
Back
Fore
SplineSet
86 277 m 1,0,1
 93 294 93 294 110.5 304 c 128,-1,2
 128 314 128 314 151 314 c 0,3,4
 192 314 192 314 217.5 273.5 c 128,-1,5
 243 233 243 233 243 154 c 0,6,7
 243 72 243 72 218 32.5 c 128,-1,8
 193 -7 193 -7 148 -7 c 0,9,10
 102 -7 102 -7 80 36 c 1,11,-1
 78 36 l 1,12,-1
 71 0 l 1,13,-1
 35 0 l 1,14,-1
 35 421 l 1,15,-1
 83 421 l 1,16,-1
 83 277 l 1,17,-1
 86 277 l 1,0,1
83 162 m 2,19,-1
 83 142 l 2,20,21
 83 36 83 36 138 36 c 0,22,23
 166 36 166 36 179 61 c 128,-1,24
 192 86 192 86 192 142 c 2,25,-1
 192 164 l 2,26,27
 192 221 192 221 179 246 c 128,-1,28
 166 271 166 271 138 271 c 0,29,18
 83 271 83 271 83 162 c 2,19,-1
EndSplineSet
Validated: 1
EndChar

StartChar: c
Encoding: 99 99 146
Width: 239
VWidth: 659
GlyphClass: 2
Flags: W
AnchorPoint: "Anchor-1" 119 0 basechar 0
AnchorPoint: "Anchor-0" 119 306 basechar 0
LayerCount: 2
Back
Fore
SplineSet
196.5 283.5 m 128,-1,1
 219 253 219 253 219 193 c 1,2,-1
 170 193 l 1,3,4
 170 234 170 234 160.5 252.5 c 128,-1,5
 151 271 151 271 126 271 c 0,6,7
 98 271 98 271 84.5 244.5 c 128,-1,8
 71 218 71 218 71 164 c 2,9,-1
 71 142 l 2,10,11
 71 36 71 36 126 36 c 0,12,13
 151 36 151 36 162 55 c 128,-1,14
 173 74 173 74 173 113 c 1,15,-1
 219 113 l 1,16,17
 219 61 219 61 196 27 c 128,-1,18
 173 -7 173 -7 126 -7 c 0,19,20
 71 -7 71 -7 46 31.5 c 128,-1,21
 21 70 21 70 21 153 c 256,22,23
 21 236 21 236 46.5 275 c 128,-1,24
 72 314 72 314 126 314 c 0,25,0
 174 314 174 314 196.5 283.5 c 128,-1,1
EndSplineSet
Validated: 1
EndChar

StartChar: cacute
Encoding: 263 263 147
Width: 239
VWidth: 659
GlyphClass: 2
Flags: W
LayerCount: 2
Back
Fore
SplineSet
131 344 m 1,0,-1
 90 344 l 1,1,-1
 140 421 l 1,2,-1
 193 421 l 1,3,-1
 193 419 l 1,4,-1
 131 344 l 1,0,-1
196.5 283.5 m 128,-1,6
 219 253 219 253 219 193 c 1,7,-1
 170 193 l 1,8,9
 170 234 170 234 160.5 252.5 c 128,-1,10
 151 271 151 271 126 271 c 0,11,12
 98 271 98 271 84.5 244.5 c 128,-1,13
 71 218 71 218 71 164 c 2,14,-1
 71 142 l 2,15,16
 71 36 71 36 126 36 c 0,17,18
 151 36 151 36 162 55 c 128,-1,19
 173 74 173 74 173 113 c 1,20,-1
 219 113 l 1,21,22
 219 61 219 61 196 27 c 128,-1,23
 173 -7 173 -7 126 -7 c 0,24,25
 71 -7 71 -7 46 31.5 c 128,-1,26
 21 70 21 70 21 153 c 256,27,28
 21 236 21 236 46.5 275 c 128,-1,29
 72 314 72 314 126 314 c 0,30,5
 174 314 174 314 196.5 283.5 c 128,-1,6
EndSplineSet
Validated: 1
EndChar

StartChar: ccaron
Encoding: 269 269 148
Width: 239
VWidth: 659
GlyphClass: 2
Flags: W
LayerCount: 2
Back
Fore
SplineSet
47 421 m 1,0,-1
 94 421 l 1,1,-1
 119 375 l 1,2,-1
 146 421 l 1,3,-1
 192 421 l 1,4,-1
 142 343 l 1,5,-1
 97 343 l 1,6,-1
 47 421 l 1,0,-1
196.5 283.5 m 128,-1,8
 219 253 219 253 219 193 c 1,9,-1
 170 193 l 1,10,11
 170 234 170 234 160.5 252.5 c 128,-1,12
 151 271 151 271 126 271 c 0,13,14
 98 271 98 271 84.5 244.5 c 128,-1,15
 71 218 71 218 71 164 c 2,16,-1
 71 142 l 2,17,18
 71 36 71 36 126 36 c 0,19,20
 151 36 151 36 162 55 c 128,-1,21
 173 74 173 74 173 113 c 1,22,-1
 219 113 l 1,23,24
 219 61 219 61 196 27 c 128,-1,25
 173 -7 173 -7 126 -7 c 0,26,27
 71 -7 71 -7 46 31.5 c 128,-1,28
 21 70 21 70 21 153 c 256,29,30
 21 236 21 236 46.5 275 c 128,-1,31
 72 314 72 314 126 314 c 0,32,7
 174 314 174 314 196.5 283.5 c 128,-1,8
EndSplineSet
Validated: 1
EndChar

StartChar: ccedilla
Encoding: 231 231 149
Width: 239
VWidth: 659
GlyphClass: 2
Flags: W
LayerCount: 2
Back
Fore
SplineSet
196.5 283.5 m 128,-1,1
 219 253 219 253 219 193 c 1,2,-1
 170 193 l 1,3,4
 170 234 170 234 160.5 252.5 c 128,-1,5
 151 271 151 271 126 271 c 0,6,7
 98 271 98 271 84.5 244.5 c 128,-1,8
 71 218 71 218 71 164 c 2,9,-1
 71 142 l 2,10,11
 71 36 71 36 126 36 c 0,12,13
 151 36 151 36 162 55 c 128,-1,14
 173 74 173 74 173 113 c 1,15,-1
 219 113 l 1,16,17
 219 62 219 62 197 28 c 128,-1,18
 175 -6 175 -6 129 -7 c 1,19,-1
 127 -21 l 1,20,21
 148 -22 148 -22 161 -31 c 128,-1,22
 174 -40 174 -40 174 -59 c 0,23,24
 174 -85 174 -85 155.5 -95.5 c 128,-1,25
 137 -106 137 -106 113 -106 c 0,26,27
 87 -106 87 -106 65 -101 c 1,28,-1
 65 -73 l 1,29,-1
 109 -73 l 2,30,31
 130 -73 130 -73 130 -59 c 0,32,33
 130 -51 130 -51 125.5 -48 c 128,-1,34
 121 -45 121 -45 110 -45 c 2,35,-1
 91 -45 l 1,36,-1
 98 -3 l 1,37,38
 58 6 58 6 39.5 44 c 128,-1,39
 21 82 21 82 21 153 c 0,40,41
 21 236 21 236 46.5 275 c 128,-1,42
 72 314 72 314 126 314 c 0,43,0
 174 314 174 314 196.5 283.5 c 128,-1,1
EndSplineSet
Validated: 1
EndChar

StartChar: ccircumflex
Encoding: 265 265 150
Width: 239
VWidth: 659
GlyphClass: 2
Flags: W
LayerCount: 2
Back
Fore
SplineSet
120 388 m 1,0,-1
 94 342 l 1,1,-1
 47 342 l 1,2,-1
 98 420 l 1,3,-1
 143 420 l 1,4,-1
 192 342 l 1,5,-1
 146 342 l 1,6,-1
 120 388 l 1,0,-1
196.5 283.5 m 128,-1,8
 219 253 219 253 219 193 c 1,9,-1
 170 193 l 1,10,11
 170 234 170 234 160.5 252.5 c 128,-1,12
 151 271 151 271 126 271 c 0,13,14
 98 271 98 271 84.5 244.5 c 128,-1,15
 71 218 71 218 71 164 c 2,16,-1
 71 142 l 2,17,18
 71 36 71 36 126 36 c 0,19,20
 151 36 151 36 162 55 c 128,-1,21
 173 74 173 74 173 113 c 1,22,-1
 219 113 l 1,23,24
 219 61 219 61 196 27 c 128,-1,25
 173 -7 173 -7 126 -7 c 0,26,27
 71 -7 71 -7 46 31.5 c 128,-1,28
 21 70 21 70 21 153 c 256,29,30
 21 236 21 236 46.5 275 c 128,-1,31
 72 314 72 314 126 314 c 0,32,7
 174 314 174 314 196.5 283.5 c 128,-1,8
EndSplineSet
Validated: 1
EndChar

StartChar: cdotaccent
Encoding: 267 267 151
Width: 239
VWidth: 659
GlyphClass: 2
Flags: W
LayerCount: 2
Back
Fore
SplineSet
94 421 m 1,0,-1
 145 421 l 1,1,-1
 145 366 l 1,2,-1
 94 366 l 1,3,-1
 94 421 l 1,0,-1
196.5 283.5 m 128,-1,5
 219 253 219 253 219 193 c 1,6,-1
 170 193 l 1,7,8
 170 234 170 234 160.5 252.5 c 128,-1,9
 151 271 151 271 126 271 c 0,10,11
 98 271 98 271 84.5 244.5 c 128,-1,12
 71 218 71 218 71 164 c 2,13,-1
 71 142 l 2,14,15
 71 36 71 36 126 36 c 0,16,17
 151 36 151 36 162 55 c 128,-1,18
 173 74 173 74 173 113 c 1,19,-1
 219 113 l 1,20,21
 219 61 219 61 196 27 c 128,-1,22
 173 -7 173 -7 126 -7 c 0,23,24
 71 -7 71 -7 46 31.5 c 128,-1,25
 21 70 21 70 21 153 c 256,26,27
 21 236 21 236 46.5 275 c 128,-1,28
 72 314 72 314 126 314 c 0,29,4
 174 314 174 314 196.5 283.5 c 128,-1,5
EndSplineSet
Validated: 1
EndChar

StartChar: d
Encoding: 100 100 152
Width: 266
VWidth: 659
GlyphClass: 2
Flags: W
LayerCount: 2
Back
Fore
SplineSet
188 36 m 1,0,-1
 185 36 l 1,1,2
 175 15 175 15 157.5 4 c 128,-1,3
 140 -7 140 -7 118 -7 c 0,4,5
 73 -7 73 -7 48 32.5 c 128,-1,6
 23 72 23 72 23 154 c 0,7,8
 23 233 23 233 48.5 273.5 c 128,-1,9
 74 314 74 314 115 314 c 0,10,11
 137 314 137 314 154.5 304 c 128,-1,12
 172 294 172 294 180 277 c 1,13,-1
 183 277 l 1,14,-1
 183 421 l 1,15,-1
 231 421 l 1,16,-1
 231 0 l 1,17,-1
 194 0 l 1,18,-1
 188 36 l 1,0,-1
86.5 245.5 m 128,-1,20
 73 220 73 220 73 164 c 2,21,-1
 73 142 l 2,22,23
 73 86 73 86 86.5 61 c 128,-1,24
 100 36 100 36 128 36 c 0,25,26
 183 36 183 36 183 142 c 2,27,-1
 183 162 l 2,28,29
 183 271 183 271 128 271 c 0,30,19
 100 271 100 271 86.5 245.5 c 128,-1,20
EndSplineSet
Validated: 1
EndChar

StartChar: eth
Encoding: 240 240 153
Width: 266
VWidth: 659
GlyphClass: 2
Flags: W
LayerCount: 2
Back
Fore
SplineSet
243 153 m 0,1,2
 243 -7 243 -7 133 -7 c 256,3,4
 23 -7 23 -7 23 153 c 0,5,6
 23 234 23 234 51 274 c 128,-1,7
 79 314 79 314 127 314 c 0,8,9
 142 314 142 314 156 306 c 1,10,11
 143 330 143 330 123 355 c 1,12,-1
 54 349 l 1,13,-1
 54 384 l 1,14,-1
 96 388 l 1,15,-1
 87 398 l 1,16,-1
 68 419 l 1,17,-1
 69 421 l 1,18,-1
 121 421 l 1,19,-1
 147 393 l 1,20,-1
 215 399 l 1,21,-1
 215 364 l 1,22,-1
 173 360 l 1,23,0
 243 267 243 267 243 153 c 0,1,2
192 164 m 2,24,25
 192 271 192 271 133 271 c 0,26,27
 73 271 73 271 73 164 c 2,28,-1
 73 142 l 2,29,30
 73 36 73 36 133 36 c 0,31,32
 192 36 192 36 192 142 c 2,33,-1
 192 164 l 2,24,25
EndSplineSet
Validated: 1
EndChar

StartChar: dcaron
Encoding: 271 271 154
Width: 294
VWidth: 659
GlyphClass: 2
Flags: W
LayerCount: 2
Back
Fore
SplineSet
188 36 m 1,0,-1
 185 36 l 1,1,2
 175 15 175 15 157.5 4 c 128,-1,3
 140 -7 140 -7 118 -7 c 0,4,5
 73 -7 73 -7 48 32.5 c 128,-1,6
 23 72 23 72 23 154 c 0,7,8
 23 233 23 233 48.5 273.5 c 128,-1,9
 74 314 74 314 115 314 c 0,10,11
 137 314 137 314 154.5 304 c 128,-1,12
 172 294 172 294 180 277 c 1,13,-1
 183 277 l 1,14,-1
 183 421 l 1,15,-1
 231 421 l 1,16,-1
 231 0 l 1,17,-1
 194 0 l 1,18,-1
 188 36 l 1,0,-1
254 264 m 1,19,-1
 277 337 l 1,20,-1
 254 337 l 1,21,-1
 254 399 l 1,22,-1
 312 399 l 1,23,-1
 312 342 l 1,24,-1
 284 264 l 1,25,-1
 254 264 l 1,19,-1
86.5 245.5 m 128,-1,27
 73 220 73 220 73 164 c 2,28,-1
 73 142 l 2,29,30
 73 86 73 86 86.5 61 c 128,-1,31
 100 36 100 36 128 36 c 0,32,33
 183 36 183 36 183 142 c 2,34,-1
 183 162 l 2,35,36
 183 271 183 271 128 271 c 0,37,26
 100 271 100 271 86.5 245.5 c 128,-1,27
EndSplineSet
Validated: 1
EndChar

StartChar: dcroat
Encoding: 273 273 155
Width: 264
VWidth: 659
GlyphClass: 2
Flags: W
LayerCount: 2
Back
Fore
SplineSet
264 379 m 1,0,-1
 264 339 l 1,1,-1
 231 339 l 1,2,-1
 231 0 l 1,3,-1
 194 0 l 1,4,-1
 188 36 l 1,5,-1
 185 36 l 1,6,7
 175 15 175 15 157.5 4 c 128,-1,8
 140 -7 140 -7 118 -7 c 0,9,10
 73 -7 73 -7 48 32.5 c 128,-1,11
 23 72 23 72 23 154 c 0,12,13
 23 233 23 233 48.5 273.5 c 128,-1,14
 74 314 74 314 115 314 c 0,15,16
 137 314 137 314 154.5 304 c 128,-1,17
 172 294 172 294 180 277 c 1,18,-1
 183 277 l 1,19,-1
 183 339 l 1,20,-1
 118 339 l 1,21,-1
 118 379 l 1,22,-1
 183 379 l 1,23,-1
 183 421 l 1,24,-1
 231 421 l 1,25,-1
 231 379 l 1,26,-1
 264 379 l 1,0,-1
86.5 245.5 m 128,-1,28
 73 220 73 220 73 164 c 2,29,-1
 73 142 l 2,30,31
 73 86 73 86 86.5 61 c 128,-1,32
 100 36 100 36 128 36 c 0,33,34
 183 36 183 36 183 142 c 2,35,-1
 183 162 l 2,36,37
 183 271 183 271 128 271 c 0,38,27
 100 271 100 271 86.5 245.5 c 128,-1,28
EndSplineSet
Validated: 1
EndChar

StartChar: e
Encoding: 101 101 156
Width: 266
VWidth: 659
GlyphClass: 2
Flags: W
AnchorPoint: "Anchor-1" 133 0 basechar 0
AnchorPoint: "Anchor-0" 133 306 basechar 0
LayerCount: 2
Back
Fore
SplineSet
216 279.5 m 128,-1,1
 241 245 241 245 241 169 c 2,2,-1
 241 139 l 1,3,-1
 74 139 l 1,4,5
 75 86 75 86 91.5 61 c 128,-1,6
 108 36 108 36 142 36 c 0,7,8
 165 36 165 36 179 54.5 c 128,-1,9
 193 73 193 73 193 104 c 1,10,-1
 241 104 l 1,11,12
 241 53 241 53 213 23 c 128,-1,13
 185 -7 185 -7 140 -7 c 0,14,15
 82 -7 82 -7 53 31.5 c 128,-1,16
 24 70 24 70 24 153 c 0,17,18
 24 235 24 235 53 274.5 c 128,-1,19
 82 314 82 314 140 314 c 0,20,0
 191 314 191 314 216 279.5 c 128,-1,1
93.5 249 m 128,-1,22
 78 227 78 227 75 182 c 1,23,-1
 190 182 l 1,24,25
 190 271 190 271 140 271 c 0,26,21
 109 271 109 271 93.5 249 c 128,-1,22
EndSplineSet
Validated: 1
EndChar

StartChar: eacute
Encoding: 233 233 157
Width: 266
VWidth: 659
GlyphClass: 2
Flags: W
LayerCount: 2
Back
Fore
SplineSet
146 344 m 1,0,-1
 105 344 l 1,1,-1
 155 421 l 1,2,-1
 208 421 l 1,3,-1
 208 419 l 1,4,-1
 146 344 l 1,0,-1
216 279.5 m 128,-1,6
 241 245 241 245 241 169 c 2,7,-1
 241 139 l 1,8,-1
 74 139 l 1,9,10
 75 86 75 86 91.5 61 c 128,-1,11
 108 36 108 36 142 36 c 0,12,13
 165 36 165 36 179 54.5 c 128,-1,14
 193 73 193 73 193 104 c 1,15,-1
 241 104 l 1,16,17
 241 53 241 53 213 23 c 128,-1,18
 185 -7 185 -7 140 -7 c 0,19,20
 82 -7 82 -7 53 31.5 c 128,-1,21
 24 70 24 70 24 153 c 0,22,23
 24 235 24 235 53 274.5 c 128,-1,24
 82 314 82 314 140 314 c 0,25,5
 191 314 191 314 216 279.5 c 128,-1,6
93.5 249 m 128,-1,27
 78 227 78 227 75 182 c 1,28,-1
 190 182 l 1,29,30
 190 271 190 271 140 271 c 0,31,26
 109 271 109 271 93.5 249 c 128,-1,27
EndSplineSet
Validated: 1
EndChar

StartChar: ebreve
Encoding: 277 277 158
Width: 266
VWidth: 659
GlyphClass: 2
Flags: W
LayerCount: 2
Back
Fore
SplineSet
185 382 m 128,-1,1
 165 364 165 364 133 364 c 256,2,3
 101 364 101 364 81 382 c 128,-1,4
 61 400 61 400 61 421 c 1,5,-1
 98 421 l 1,6,7
 100 414 100 414 109.5 408 c 128,-1,8
 119 402 119 402 133 402 c 256,9,10
 147 402 147 402 157 408 c 128,-1,11
 167 414 167 414 168 421 c 1,12,-1
 205 421 l 1,13,0
 205 400 205 400 185 382 c 128,-1,1
216 279.5 m 128,-1,15
 241 245 241 245 241 169 c 2,16,-1
 241 139 l 1,17,-1
 74 139 l 1,18,19
 75 86 75 86 91.5 61 c 128,-1,20
 108 36 108 36 142 36 c 0,21,22
 165 36 165 36 179 54.5 c 128,-1,23
 193 73 193 73 193 104 c 1,24,-1
 241 104 l 1,25,26
 241 53 241 53 213 23 c 128,-1,27
 185 -7 185 -7 140 -7 c 0,28,29
 82 -7 82 -7 53 31.5 c 128,-1,30
 24 70 24 70 24 153 c 0,31,32
 24 235 24 235 53 274.5 c 128,-1,33
 82 314 82 314 140 314 c 0,34,14
 191 314 191 314 216 279.5 c 128,-1,15
93.5 249 m 128,-1,36
 78 227 78 227 75 182 c 1,37,-1
 190 182 l 1,38,39
 190 271 190 271 140 271 c 0,40,35
 109 271 109 271 93.5 249 c 128,-1,36
EndSplineSet
Validated: 1
EndChar

StartChar: ecaron
Encoding: 283 283 159
Width: 266
VWidth: 659
GlyphClass: 2
Flags: W
LayerCount: 2
Back
Fore
SplineSet
61 421 m 1,0,-1
 107 421 l 1,1,-1
 133 375 l 1,2,-1
 159 421 l 1,3,-1
 206 421 l 1,4,-1
 156 343 l 1,5,-1
 109 343 l 1,6,-1
 61 421 l 1,0,-1
216 279.5 m 128,-1,8
 241 245 241 245 241 169 c 2,9,-1
 241 139 l 1,10,-1
 74 139 l 1,11,12
 75 86 75 86 91.5 61 c 128,-1,13
 108 36 108 36 142 36 c 0,14,15
 165 36 165 36 179 54.5 c 128,-1,16
 193 73 193 73 193 104 c 1,17,-1
 241 104 l 1,18,19
 241 53 241 53 213 23 c 128,-1,20
 185 -7 185 -7 140 -7 c 0,21,22
 82 -7 82 -7 53 31.5 c 128,-1,23
 24 70 24 70 24 153 c 0,24,25
 24 235 24 235 53 274.5 c 128,-1,26
 82 314 82 314 140 314 c 0,27,7
 191 314 191 314 216 279.5 c 128,-1,8
93.5 249 m 128,-1,29
 78 227 78 227 75 182 c 1,30,-1
 190 182 l 1,31,32
 190 271 190 271 140 271 c 0,33,28
 109 271 109 271 93.5 249 c 128,-1,29
EndSplineSet
Validated: 1
EndChar

StartChar: ecircumflex
Encoding: 234 234 160
Width: 266
VWidth: 659
GlyphClass: 2
Flags: W
LayerCount: 2
Back
Fore
SplineSet
133 388 m 1,0,-1
 107 342 l 1,1,-1
 61 342 l 1,2,-1
 110 420 l 1,3,-1
 156 420 l 1,4,-1
 206 342 l 1,5,-1
 159 342 l 1,6,-1
 133 388 l 1,0,-1
216 279.5 m 128,-1,8
 241 245 241 245 241 169 c 2,9,-1
 241 139 l 1,10,-1
 74 139 l 1,11,12
 75 86 75 86 91.5 61 c 128,-1,13
 108 36 108 36 142 36 c 0,14,15
 165 36 165 36 179 54.5 c 128,-1,16
 193 73 193 73 193 104 c 1,17,-1
 241 104 l 1,18,19
 241 53 241 53 213 23 c 128,-1,20
 185 -7 185 -7 140 -7 c 0,21,22
 82 -7 82 -7 53 31.5 c 128,-1,23
 24 70 24 70 24 153 c 0,24,25
 24 235 24 235 53 274.5 c 128,-1,26
 82 314 82 314 140 314 c 0,27,7
 191 314 191 314 216 279.5 c 128,-1,8
93.5 249 m 128,-1,29
 78 227 78 227 75 182 c 1,30,-1
 190 182 l 1,31,32
 190 271 190 271 140 271 c 0,33,28
 109 271 109 271 93.5 249 c 128,-1,29
EndSplineSet
Validated: 1
EndChar

StartChar: edieresis
Encoding: 235 235 161
Width: 266
VWidth: 659
GlyphClass: 2
Flags: W
LayerCount: 2
Back
Fore
SplineSet
63 366 m 1,0,-1
 63 421 l 1,1,-1
 114 421 l 1,2,-1
 114 366 l 1,3,-1
 63 366 l 1,0,-1
151 366 m 1,4,-1
 151 421 l 1,5,-1
 202 421 l 1,6,-1
 202 366 l 1,7,-1
 151 366 l 1,4,-1
216 279.5 m 128,-1,9
 241 245 241 245 241 169 c 2,10,-1
 241 139 l 1,11,-1
 74 139 l 1,12,13
 75 86 75 86 91.5 61 c 128,-1,14
 108 36 108 36 142 36 c 0,15,16
 165 36 165 36 179 54.5 c 128,-1,17
 193 73 193 73 193 104 c 1,18,-1
 241 104 l 1,19,20
 241 53 241 53 213 23 c 128,-1,21
 185 -7 185 -7 140 -7 c 0,22,23
 82 -7 82 -7 53 31.5 c 128,-1,24
 24 70 24 70 24 153 c 0,25,26
 24 235 24 235 53 274.5 c 128,-1,27
 82 314 82 314 140 314 c 0,28,8
 191 314 191 314 216 279.5 c 128,-1,9
93.5 249 m 128,-1,30
 78 227 78 227 75 182 c 1,31,-1
 190 182 l 1,32,33
 190 271 190 271 140 271 c 0,34,29
 109 271 109 271 93.5 249 c 128,-1,30
EndSplineSet
Validated: 1
EndChar

StartChar: edotaccent
Encoding: 279 279 162
Width: 266
VWidth: 659
GlyphClass: 2
Flags: W
LayerCount: 2
Back
Fore
SplineSet
108 421 m 1,0,-1
 158 421 l 1,1,-1
 158 366 l 1,2,-1
 108 366 l 1,3,-1
 108 421 l 1,0,-1
216 279.5 m 128,-1,5
 241 245 241 245 241 169 c 2,6,-1
 241 139 l 1,7,-1
 74 139 l 1,8,9
 75 86 75 86 91.5 61 c 128,-1,10
 108 36 108 36 142 36 c 0,11,12
 165 36 165 36 179 54.5 c 128,-1,13
 193 73 193 73 193 104 c 1,14,-1
 241 104 l 1,15,16
 241 53 241 53 213 23 c 128,-1,17
 185 -7 185 -7 140 -7 c 0,18,19
 82 -7 82 -7 53 31.5 c 128,-1,20
 24 70 24 70 24 153 c 0,21,22
 24 235 24 235 53 274.5 c 128,-1,23
 82 314 82 314 140 314 c 0,24,4
 191 314 191 314 216 279.5 c 128,-1,5
93.5 249 m 128,-1,26
 78 227 78 227 75 182 c 1,27,-1
 190 182 l 1,28,29
 190 271 190 271 140 271 c 0,30,25
 109 271 109 271 93.5 249 c 128,-1,26
EndSplineSet
Validated: 1
EndChar

StartChar: egrave
Encoding: 232 232 163
Width: 266
VWidth: 659
GlyphClass: 2
Flags: W
LayerCount: 2
Back
Fore
SplineSet
134 344 m 1,0,-1
 71 419 l 1,1,-1
 72 421 l 1,2,-1
 124 421 l 1,3,-1
 174 344 l 1,4,-1
 134 344 l 1,0,-1
216 279.5 m 128,-1,6
 241 245 241 245 241 169 c 2,7,-1
 241 139 l 1,8,-1
 74 139 l 1,9,10
 75 86 75 86 91.5 61 c 128,-1,11
 108 36 108 36 142 36 c 0,12,13
 165 36 165 36 179 54.5 c 128,-1,14
 193 73 193 73 193 104 c 1,15,-1
 241 104 l 1,16,17
 241 53 241 53 213 23 c 128,-1,18
 185 -7 185 -7 140 -7 c 0,19,20
 82 -7 82 -7 53 31.5 c 128,-1,21
 24 70 24 70 24 153 c 0,22,23
 24 235 24 235 53 274.5 c 128,-1,24
 82 314 82 314 140 314 c 0,25,5
 191 314 191 314 216 279.5 c 128,-1,6
93.5 249 m 128,-1,27
 78 227 78 227 75 182 c 1,28,-1
 190 182 l 1,29,30
 190 271 190 271 140 271 c 0,31,26
 109 271 109 271 93.5 249 c 128,-1,27
EndSplineSet
Validated: 1
EndChar

StartChar: emacron
Encoding: 275 275 164
Width: 266
VWidth: 659
GlyphClass: 2
Flags: W
LayerCount: 2
Back
Fore
SplineSet
60 391 m 1,0,-1
 206 391 l 1,1,-1
 206 349 l 1,2,-1
 60 349 l 1,3,-1
 60 391 l 1,0,-1
216 279.5 m 128,-1,5
 241 245 241 245 241 169 c 2,6,-1
 241 139 l 1,7,-1
 74 139 l 1,8,9
 75 86 75 86 91.5 61 c 128,-1,10
 108 36 108 36 142 36 c 0,11,12
 165 36 165 36 179 54.5 c 128,-1,13
 193 73 193 73 193 104 c 1,14,-1
 241 104 l 1,15,16
 241 53 241 53 213 23 c 128,-1,17
 185 -7 185 -7 140 -7 c 0,18,19
 82 -7 82 -7 53 31.5 c 128,-1,20
 24 70 24 70 24 153 c 0,21,22
 24 235 24 235 53 274.5 c 128,-1,23
 82 314 82 314 140 314 c 0,24,4
 191 314 191 314 216 279.5 c 128,-1,5
93.5 249 m 128,-1,26
 78 227 78 227 75 182 c 1,27,-1
 190 182 l 1,28,29
 190 271 190 271 140 271 c 0,30,25
 109 271 109 271 93.5 249 c 128,-1,26
EndSplineSet
Validated: 1
EndChar

StartChar: eogonek
Encoding: 281 281 165
Width: 266
VWidth: 659
GlyphClass: 2
Flags: W
LayerCount: 2
Back
Fore
SplineSet
241 139 m 1,0,-1
 74 139 l 1,1,2
 75 86 75 86 91.5 61 c 128,-1,3
 108 36 108 36 142 36 c 0,4,5
 165 36 165 36 179 54.5 c 128,-1,6
 193 73 193 73 193 104 c 1,7,-1
 241 104 l 1,8,9
 241 69 241 69 227 43 c 128,-1,10
 213 17 213 17 188 4 c 1,11,12
 171 -15 171 -15 171 -36 c 0,13,14
 171 -50 171 -50 178 -59 c 128,-1,15
 185 -68 185 -68 198 -68 c 2,16,-1
 216 -68 l 1,17,-1
 216 -98 l 1,18,19
 197 -106 197 -106 181 -106 c 0,20,21
 159 -106 159 -106 142.5 -93.5 c 128,-1,22
 126 -81 126 -81 126 -53 c 0,23,24
 126 -28 126 -28 140 -7 c 1,25,26
 82 -7 82 -7 53 31.5 c 128,-1,27
 24 70 24 70 24 153 c 0,28,29
 24 235 24 235 53 274.5 c 128,-1,30
 82 314 82 314 140 314 c 0,31,32
 191 314 191 314 216 279.5 c 128,-1,33
 241 245 241 245 241 169 c 2,34,-1
 241 139 l 1,0,-1
190 182 m 1,35,36
 190 271 190 271 140 271 c 0,37,38
 109 271 109 271 93.5 249 c 128,-1,39
 78 227 78 227 75 182 c 1,40,-1
 190 182 l 1,35,36
EndSplineSet
Validated: 1
EndChar

StartChar: f
Encoding: 102 102 166
Width: 133
VWidth: 659
GlyphClass: 2
Flags: W
LayerCount: 2
Back
Fore
SplineSet
133 419 m 1,1,-1
 133 386 l 1,2,-1
 107 386 l 2,3,4
 80 386 80 386 80 358 c 2,5,-1
 80 306 l 1,6,-1
 133 306 l 1,7,-1
 133 264 l 1,8,-1
 80 264 l 1,9,-1
 80 0 l 1,10,-1
 32 0 l 1,11,-1
 32 264 l 1,12,-1
 5 264 l 1,13,-1
 5 306 l 1,14,-1
 32 306 l 1,15,-1
 32 355 l 2,16,17
 32 385 32 385 46.5 405.5 c 128,-1,18
 61 426 61 426 93 426 c 0,19,0
 110 426 110 426 133 419 c 1,1,-1
EndSplineSet
Validated: 1
EndChar

StartChar: g
Encoding: 103 103 167
Width: 266
VWidth: 659
GlyphClass: 2
Flags: W
AnchorPoint: "Anchor-1" 0 0 basechar 0
AnchorPoint: "Anchor-0" 133 306 basechar 0
LayerCount: 2
Back
Fore
SplineSet
240.5 308.5 m 128,-1,1
 227 289 227 289 203 283 c 1,2,3
 230 253 230 253 230 210 c 0,4,5
 230 163 230 163 203.5 135.5 c 128,-1,6
 177 108 177 108 132 107 c 2,7,-1
 100 107 l 2,8,9
 88 107 88 107 80 99 c 128,-1,10
 72 91 72 91 72 80 c 256,11,12
 72 69 72 69 80.5 61 c 128,-1,13
 89 53 89 53 100 53 c 2,14,-1
 188 53 l 2,15,16
 220 53 220 53 240 32 c 128,-1,17
 260 11 260 11 260 -19 c 0,18,19
 260 -57 260 -57 236.5 -81.5 c 128,-1,20
 213 -106 213 -106 170 -106 c 2,21,-1
 83 -106 l 2,22,23
 47 -106 47 -106 27 -85 c 128,-1,24
 7 -64 7 -64 7 -33 c 0,25,26
 7 -10 7 -10 17.5 7.5 c 128,-1,27
 28 25 28 25 47 32 c 1,28,29
 36 40 36 40 29 52.5 c 128,-1,30
 22 65 22 65 22 78 c 0,31,32
 22 96 22 96 34 110 c 128,-1,33
 46 124 46 124 65 131 c 1,34,35
 30 160 30 160 30 210 c 0,36,37
 30 258 30 258 57 286 c 128,-1,38
 84 314 84 314 130 314 c 0,39,40
 152 314 152 314 174 302 c 1,41,42
 193 312 193 312 201 325.5 c 128,-1,43
 209 339 209 339 212 356 c 1,44,-1
 254 356 l 1,45,0
 254 328 254 328 240.5 308.5 c 128,-1,1
91.5 256.5 m 128,-1,47
 78 240 78 240 78 210 c 0,48,49
 78 179 78 179 91 163 c 128,-1,50
 104 147 104 147 129 147 c 256,51,52
 154 147 154 147 168 163.5 c 128,-1,53
 182 180 182 180 182 210 c 0,54,55
 182 241 182 241 168.5 257 c 128,-1,56
 155 273 155 273 129 273 c 0,57,46
 105 273 105 273 91.5 256.5 c 128,-1,47
64.5 -3 m 128,-1,59
 55 -13 55 -13 55 -28 c 0,60,61
 55 -44 55 -44 64.5 -54.5 c 128,-1,62
 74 -65 74 -65 91 -65 c 2,63,-1
 175 -65 l 2,64,65
 191 -65 191 -65 201.5 -54 c 128,-1,66
 212 -43 212 -43 212 -28 c 256,67,68
 212 -13 212 -13 202.5 -3 c 128,-1,69
 193 7 193 7 175 7 c 2,70,-1
 91 7 l 2,71,58
 74 7 74 7 64.5 -3 c 128,-1,59
EndSplineSet
Validated: 1
EndChar

StartChar: gbreve
Encoding: 287 287 168
Width: 266
VWidth: 659
GlyphClass: 2
Flags: W
LayerCount: 2
Back
Fore
SplineSet
185 382 m 128,-1,1
 165 364 165 364 133 364 c 256,2,3
 101 364 101 364 81 382 c 128,-1,4
 61 400 61 400 61 421 c 1,5,-1
 98 421 l 1,6,7
 100 414 100 414 109.5 408 c 128,-1,8
 119 402 119 402 133 402 c 256,9,10
 147 402 147 402 157 408 c 128,-1,11
 167 414 167 414 168 421 c 1,12,-1
 205 421 l 1,13,0
 205 400 205 400 185 382 c 128,-1,1
240.5 308.5 m 128,-1,15
 227 289 227 289 203 283 c 1,16,17
 230 253 230 253 230 210 c 0,18,19
 230 163 230 163 203.5 135.5 c 128,-1,20
 177 108 177 108 132 107 c 2,21,-1
 100 107 l 2,22,23
 88 107 88 107 80 99 c 128,-1,24
 72 91 72 91 72 80 c 256,25,26
 72 69 72 69 80.5 61 c 128,-1,27
 89 53 89 53 100 53 c 2,28,-1
 188 53 l 2,29,30
 220 53 220 53 240 32 c 128,-1,31
 260 11 260 11 260 -19 c 0,32,33
 260 -57 260 -57 236.5 -81.5 c 128,-1,34
 213 -106 213 -106 170 -106 c 2,35,-1
 83 -106 l 2,36,37
 47 -106 47 -106 27 -85 c 128,-1,38
 7 -64 7 -64 7 -33 c 0,39,40
 7 -10 7 -10 17.5 7.5 c 128,-1,41
 28 25 28 25 47 32 c 1,42,43
 36 40 36 40 29 52.5 c 128,-1,44
 22 65 22 65 22 78 c 0,45,46
 22 96 22 96 34 110 c 128,-1,47
 46 124 46 124 65 131 c 1,48,49
 30 160 30 160 30 210 c 0,50,51
 30 258 30 258 57 286 c 128,-1,52
 84 314 84 314 130 314 c 0,53,54
 152 314 152 314 174 302 c 1,55,56
 193 312 193 312 201 325.5 c 128,-1,57
 209 339 209 339 212 356 c 1,58,-1
 254 356 l 1,59,14
 254 328 254 328 240.5 308.5 c 128,-1,15
91.5 256.5 m 128,-1,61
 78 240 78 240 78 210 c 0,62,63
 78 179 78 179 91 163 c 128,-1,64
 104 147 104 147 129 147 c 256,65,66
 154 147 154 147 168 163.5 c 128,-1,67
 182 180 182 180 182 210 c 0,68,69
 182 241 182 241 168.5 257 c 128,-1,70
 155 273 155 273 129 273 c 0,71,60
 105 273 105 273 91.5 256.5 c 128,-1,61
64.5 -3 m 128,-1,73
 55 -13 55 -13 55 -28 c 0,74,75
 55 -44 55 -44 64.5 -54.5 c 128,-1,76
 74 -65 74 -65 91 -65 c 2,77,-1
 175 -65 l 2,78,79
 191 -65 191 -65 201.5 -54 c 128,-1,80
 212 -43 212 -43 212 -28 c 256,81,82
 212 -13 212 -13 202.5 -3 c 128,-1,83
 193 7 193 7 175 7 c 2,84,-1
 91 7 l 2,85,72
 74 7 74 7 64.5 -3 c 128,-1,73
EndSplineSet
Validated: 1
EndChar

StartChar: gcircumflex
Encoding: 285 285 169
Width: 266
VWidth: 659
GlyphClass: 2
Flags: W
LayerCount: 2
Back
Fore
SplineSet
133 388 m 1,0,-1
 107 342 l 1,1,-1
 61 342 l 1,2,-1
 110 420 l 1,3,-1
 156 420 l 1,4,-1
 206 342 l 1,5,-1
 159 342 l 1,6,-1
 133 388 l 1,0,-1
240.5 308.5 m 128,-1,8
 227 289 227 289 203 283 c 1,9,10
 230 253 230 253 230 210 c 0,11,12
 230 163 230 163 203.5 135.5 c 128,-1,13
 177 108 177 108 132 107 c 2,14,-1
 100 107 l 2,15,16
 88 107 88 107 80 99 c 128,-1,17
 72 91 72 91 72 80 c 256,18,19
 72 69 72 69 80.5 61 c 128,-1,20
 89 53 89 53 100 53 c 2,21,-1
 188 53 l 2,22,23
 220 53 220 53 240 32 c 128,-1,24
 260 11 260 11 260 -19 c 0,25,26
 260 -57 260 -57 236.5 -81.5 c 128,-1,27
 213 -106 213 -106 170 -106 c 2,28,-1
 83 -106 l 2,29,30
 47 -106 47 -106 27 -85 c 128,-1,31
 7 -64 7 -64 7 -33 c 0,32,33
 7 -10 7 -10 17.5 7.5 c 128,-1,34
 28 25 28 25 47 32 c 1,35,36
 36 40 36 40 29 52.5 c 128,-1,37
 22 65 22 65 22 78 c 0,38,39
 22 96 22 96 34 110 c 128,-1,40
 46 124 46 124 65 131 c 1,41,42
 30 160 30 160 30 210 c 0,43,44
 30 258 30 258 57 286 c 128,-1,45
 84 314 84 314 130 314 c 0,46,47
 152 314 152 314 174 302 c 1,48,49
 197 314 197 314 205.5 324.5 c 128,-1,50
 214 335 214 335 215 356 c 1,51,-1
 254 356 l 1,52,7
 254 328 254 328 240.5 308.5 c 128,-1,8
91.5 256.5 m 128,-1,54
 78 240 78 240 78 210 c 0,55,56
 78 179 78 179 91 163 c 128,-1,57
 104 147 104 147 129 147 c 256,58,59
 154 147 154 147 168 163.5 c 128,-1,60
 182 180 182 180 182 210 c 0,61,62
 182 241 182 241 168.5 257 c 128,-1,63
 155 273 155 273 129 273 c 0,64,53
 105 273 105 273 91.5 256.5 c 128,-1,54
64.5 -3 m 128,-1,66
 55 -13 55 -13 55 -28 c 0,67,68
 55 -44 55 -44 64.5 -54.5 c 128,-1,69
 74 -65 74 -65 91 -65 c 2,70,-1
 175 -65 l 2,71,72
 191 -65 191 -65 201.5 -54 c 128,-1,73
 212 -43 212 -43 212 -28 c 256,74,75
 212 -13 212 -13 202.5 -3 c 128,-1,76
 193 7 193 7 175 7 c 2,77,-1
 91 7 l 2,78,65
 74 7 74 7 64.5 -3 c 128,-1,66
EndSplineSet
Validated: 1
EndChar

StartChar: gcommaaccent
Encoding: 291 291 170
Width: 266
VWidth: 659
GlyphClass: 2
Flags: W
LayerCount: 2
Back
Fore
SplineSet
149 399 m 1,0,-1
 149 347 l 1,1,-1
 99 347 l 1,2,-1
 99 395 l 1,3,-1
 117 441 l 1,4,-1
 142 441 l 1,5,-1
 129 399 l 1,6,-1
 149 399 l 1,0,-1
240.5 308.5 m 128,-1,8
 227 289 227 289 203 283 c 1,9,10
 230 253 230 253 230 210 c 0,11,12
 230 163 230 163 203.5 135.5 c 128,-1,13
 177 108 177 108 132 107 c 2,14,-1
 100 107 l 2,15,16
 88 107 88 107 80 99 c 128,-1,17
 72 91 72 91 72 80 c 256,18,19
 72 69 72 69 80.5 61 c 128,-1,20
 89 53 89 53 100 53 c 2,21,-1
 188 53 l 2,22,23
 220 53 220 53 240 32 c 128,-1,24
 260 11 260 11 260 -19 c 0,25,26
 260 -57 260 -57 236.5 -81.5 c 128,-1,27
 213 -106 213 -106 170 -106 c 2,28,-1
 83 -106 l 2,29,30
 47 -106 47 -106 27 -85 c 128,-1,31
 7 -64 7 -64 7 -33 c 0,32,33
 7 -10 7 -10 17.5 7.5 c 128,-1,34
 28 25 28 25 47 32 c 1,35,36
 36 40 36 40 29 52.5 c 128,-1,37
 22 65 22 65 22 78 c 0,38,39
 22 96 22 96 34 110 c 128,-1,40
 46 124 46 124 65 131 c 1,41,42
 30 160 30 160 30 210 c 0,43,44
 30 258 30 258 57 286 c 128,-1,45
 84 314 84 314 130 314 c 0,46,47
 152 314 152 314 174 302 c 1,48,49
 193 312 193 312 201 325.5 c 128,-1,50
 209 339 209 339 212 356 c 1,51,-1
 254 356 l 1,52,7
 254 328 254 328 240.5 308.5 c 128,-1,8
91.5 256.5 m 128,-1,54
 78 240 78 240 78 210 c 0,55,56
 78 179 78 179 91 163 c 128,-1,57
 104 147 104 147 129 147 c 256,58,59
 154 147 154 147 168 163.5 c 128,-1,60
 182 180 182 180 182 210 c 0,61,62
 182 241 182 241 168.5 257 c 128,-1,63
 155 273 155 273 129 273 c 0,64,53
 105 273 105 273 91.5 256.5 c 128,-1,54
64.5 -3 m 128,-1,66
 55 -13 55 -13 55 -28 c 0,67,68
 55 -44 55 -44 64.5 -54.5 c 128,-1,69
 74 -65 74 -65 91 -65 c 2,70,-1
 175 -65 l 2,71,72
 191 -65 191 -65 201.5 -54 c 128,-1,73
 212 -43 212 -43 212 -28 c 256,74,75
 212 -13 212 -13 202.5 -3 c 128,-1,76
 193 7 193 7 175 7 c 2,77,-1
 91 7 l 2,78,65
 74 7 74 7 64.5 -3 c 128,-1,66
EndSplineSet
Validated: 1
EndChar

StartChar: gdotaccent
Encoding: 289 289 171
Width: 266
VWidth: 659
GlyphClass: 2
Flags: W
LayerCount: 2
Back
Fore
SplineSet
108 421 m 1,0,-1
 158 421 l 1,1,-1
 158 366 l 1,2,-1
 108 366 l 1,3,-1
 108 421 l 1,0,-1
240.5 308.5 m 128,-1,5
 227 289 227 289 203 283 c 1,6,7
 230 253 230 253 230 210 c 0,8,9
 230 163 230 163 203.5 135.5 c 128,-1,10
 177 108 177 108 132 107 c 2,11,-1
 100 107 l 2,12,13
 88 107 88 107 80 99 c 128,-1,14
 72 91 72 91 72 80 c 256,15,16
 72 69 72 69 80.5 61 c 128,-1,17
 89 53 89 53 100 53 c 2,18,-1
 188 53 l 2,19,20
 220 53 220 53 240 32 c 128,-1,21
 260 11 260 11 260 -19 c 0,22,23
 260 -57 260 -57 236.5 -81.5 c 128,-1,24
 213 -106 213 -106 170 -106 c 2,25,-1
 83 -106 l 2,26,27
 47 -106 47 -106 27 -85 c 128,-1,28
 7 -64 7 -64 7 -33 c 0,29,30
 7 -10 7 -10 17.5 7.5 c 128,-1,31
 28 25 28 25 47 32 c 1,32,33
 36 40 36 40 29 52.5 c 128,-1,34
 22 65 22 65 22 78 c 0,35,36
 22 96 22 96 34 110 c 128,-1,37
 46 124 46 124 65 131 c 1,38,39
 30 160 30 160 30 210 c 0,40,41
 30 258 30 258 57 286 c 128,-1,42
 84 314 84 314 130 314 c 0,43,44
 152 314 152 314 174 302 c 1,45,46
 193 312 193 312 201 325.5 c 128,-1,47
 209 339 209 339 212 356 c 1,48,-1
 254 356 l 1,49,4
 254 328 254 328 240.5 308.5 c 128,-1,5
91.5 256.5 m 128,-1,51
 78 240 78 240 78 210 c 0,52,53
 78 179 78 179 91 163 c 128,-1,54
 104 147 104 147 129 147 c 256,55,56
 154 147 154 147 168 163.5 c 128,-1,57
 182 180 182 180 182 210 c 0,58,59
 182 241 182 241 168.5 257 c 128,-1,60
 155 273 155 273 129 273 c 0,61,50
 105 273 105 273 91.5 256.5 c 128,-1,51
64.5 -3 m 128,-1,63
 55 -13 55 -13 55 -28 c 0,64,65
 55 -44 55 -44 64.5 -54.5 c 128,-1,66
 74 -65 74 -65 91 -65 c 2,67,-1
 175 -65 l 2,68,69
 191 -65 191 -65 201.5 -54 c 128,-1,70
 212 -43 212 -43 212 -28 c 256,71,72
 212 -13 212 -13 202.5 -3 c 128,-1,73
 193 7 193 7 175 7 c 2,74,-1
 91 7 l 2,75,62
 74 7 74 7 64.5 -3 c 128,-1,63
EndSplineSet
Validated: 1
EndChar

StartChar: h
Encoding: 104 104 172
Width: 266
VWidth: 659
GlyphClass: 2
Flags: W
AnchorPoint: "Anchor-1" 0 0 basechar 0
AnchorPoint: "Anchor-0" 133 306 basechar 0
LayerCount: 2
Back
Fore
SplineSet
155 314 m 0,1,2
 231 314 231 314 231 221 c 2,3,-1
 231 0 l 1,4,-1
 183 0 l 1,5,-1
 183 217 l 2,6,7
 183 247 183 247 172 259 c 128,-1,8
 161 271 161 271 140 271 c 0,9,10
 116 271 116 271 99.5 248 c 128,-1,11
 83 225 83 225 83 187 c 2,12,-1
 83 0 l 1,13,-1
 35 0 l 1,14,-1
 35 421 l 1,15,-1
 83 421 l 1,16,-1
 83 274 l 1,17,-1
 86 274 l 1,18,0
 109 314 109 314 155 314 c 0,1,2
EndSplineSet
Validated: 1
EndChar

StartChar: hbar
Encoding: 295 295 173
Width: 266
VWidth: 659
GlyphClass: 2
Flags: W
LayerCount: 2
Back
Fore
SplineSet
146 379 m 1,0,-1
 146 339 l 1,1,-1
 83 339 l 1,2,-1
 83 274 l 1,3,-1
 86 274 l 1,4,5
 109 314 109 314 155 314 c 0,6,7
 231 314 231 314 231 221 c 2,8,-1
 231 0 l 1,9,-1
 183 0 l 1,10,-1
 183 217 l 2,11,12
 183 247 183 247 172 259 c 128,-1,13
 161 271 161 271 140 271 c 0,14,15
 116 271 116 271 99.5 248 c 128,-1,16
 83 225 83 225 83 187 c 2,17,-1
 83 0 l 1,18,-1
 35 0 l 1,19,-1
 35 339 l 1,20,-1
 0 339 l 1,21,-1
 0 379 l 1,22,-1
 35 379 l 1,23,-1
 35 421 l 1,24,-1
 83 421 l 1,25,-1
 83 379 l 1,26,-1
 146 379 l 1,0,-1
EndSplineSet
Validated: 1
EndChar

StartChar: hcircumflex
Encoding: 293 293 174
Width: 266
VWidth: 659
GlyphClass: 2
Flags: W
LayerCount: 2
Back
Fore
SplineSet
61 481 m 1,0,-1
 34 435 l 1,1,-1
 -13 435 l 1,2,-1
 38 514 l 1,3,-1
 83 514 l 1,4,-1
 133 435 l 1,5,-1
 86 435 l 1,6,-1
 61 481 l 1,0,-1
155 314 m 0,8,9
 231 314 231 314 231 221 c 2,10,-1
 231 0 l 1,11,-1
 183 0 l 1,12,-1
 183 217 l 2,13,14
 183 247 183 247 172 259 c 128,-1,15
 161 271 161 271 140 271 c 0,16,17
 116 271 116 271 99.5 248 c 128,-1,18
 83 225 83 225 83 187 c 2,19,-1
 83 0 l 1,20,-1
 35 0 l 1,21,-1
 35 421 l 1,22,-1
 83 421 l 1,23,-1
 83 274 l 1,24,-1
 86 274 l 1,25,7
 109 314 109 314 155 314 c 0,8,9
EndSplineSet
Validated: 1
EndChar

StartChar: i
Encoding: 105 105 175
Width: 106
VWidth: 659
GlyphClass: 2
Flags: W
LayerCount: 2
Back
Fore
SplineSet
29 421 m 1,0,-1
 77 421 l 1,1,-1
 77 364 l 1,2,-1
 29 364 l 1,3,-1
 29 421 l 1,0,-1
29 306 m 1,4,-1
 77 306 l 1,5,-1
 77 0 l 1,6,-1
 29 0 l 1,7,-1
 29 306 l 1,4,-1
EndSplineSet
Validated: 1
EndChar

StartChar: dotlessi
Encoding: 305 305 176
Width: 133
VWidth: 659
GlyphClass: 2
Flags: W
AnchorPoint: "Anchor-1" 0 0 basechar 0
AnchorPoint: "Anchor-0" 67 306 basechar 0
LayerCount: 2
Back
Fore
SplineSet
43 306 m 1,0,-1
 90 306 l 1,1,-1
 90 0 l 1,2,-1
 43 0 l 1,3,-1
 43 306 l 1,0,-1
EndSplineSet
Validated: 1
EndChar

StartChar: iacute
Encoding: 237 237 177
Width: 133
VWidth: 659
GlyphClass: 2
Flags: W
LayerCount: 2
Back
Fore
SplineSet
72 344 m 1,0,-1
 32 344 l 1,1,-1
 82 421 l 1,2,-1
 134 421 l 1,3,-1
 134 419 l 1,4,-1
 72 344 l 1,0,-1
43 0 m 1,5,-1
 43 306 l 1,6,-1
 90 306 l 1,7,-1
 90 0 l 1,8,-1
 43 0 l 1,5,-1
EndSplineSet
Validated: 1
EndChar

StartChar: ibreve
Encoding: 301 301 178
Width: 133
VWidth: 659
GlyphClass: 2
Flags: W
LayerCount: 2
Back
Fore
SplineSet
118 382 m 128,-1,1
 98 364 98 364 67 364 c 0,2,3
 35 364 35 364 14.5 382 c 128,-1,4
 -6 400 -6 400 -6 421 c 1,5,-1
 32 421 l 1,6,7
 34 414 34 414 43.5 408 c 128,-1,8
 53 402 53 402 67 402 c 0,9,10
 80 402 80 402 90 408 c 128,-1,11
 100 414 100 414 101 421 c 1,12,-1
 138 421 l 1,13,0
 138 400 138 400 118 382 c 128,-1,1
43 306 m 1,14,-1
 90 306 l 1,15,-1
 90 0 l 1,16,-1
 43 0 l 1,17,-1
 43 306 l 1,14,-1
EndSplineSet
Validated: 1
EndChar

StartChar: icircumflex
Encoding: 238 238 179
Width: 133
VWidth: 659
GlyphClass: 2
Flags: W
LayerCount: 2
Back
Fore
SplineSet
67 388 m 1,0,-1
 41 342 l 1,1,-1
 -7 342 l 1,2,-1
 44 420 l 1,3,-1
 90 420 l 1,4,-1
 139 342 l 1,5,-1
 93 342 l 1,6,-1
 67 388 l 1,0,-1
43 306 m 1,7,-1
 90 306 l 1,8,-1
 90 0 l 1,9,-1
 43 0 l 1,10,-1
 43 306 l 1,7,-1
EndSplineSet
Validated: 1
EndChar

StartChar: idieresis
Encoding: 239 239 180
Width: 133
VWidth: 659
GlyphClass: 2
Flags: W
LayerCount: 2
Back
Fore
SplineSet
-3 366 m 1,0,-1
 -3 421 l 1,1,-1
 48 421 l 1,2,-1
 48 366 l 1,3,-1
 -3 366 l 1,0,-1
85 366 m 1,4,-1
 85 421 l 1,5,-1
 136 421 l 1,6,-1
 136 366 l 1,7,-1
 85 366 l 1,4,-1
43 0 m 1,8,-1
 43 306 l 1,9,-1
 90 306 l 1,10,-1
 90 0 l 1,11,-1
 43 0 l 1,8,-1
EndSplineSet
Validated: 1
EndChar

StartChar: igrave
Encoding: 236 236 181
Width: 133
VWidth: 659
GlyphClass: 2
Flags: W
LayerCount: 2
Back
Fore
SplineSet
61 344 m 1,0,-1
 -2 419 l 1,1,-1
 -1 421 l 1,2,-1
 51 421 l 1,3,-1
 101 344 l 1,4,-1
 61 344 l 1,0,-1
43 0 m 1,5,-1
 43 306 l 1,6,-1
 90 306 l 1,7,-1
 90 0 l 1,8,-1
 43 0 l 1,5,-1
EndSplineSet
Validated: 1
EndChar

StartChar: ij
Encoding: 307 307 182
Width: 212
VWidth: 659
GlyphClass: 2
Flags: W
LayerCount: 2
Back
Fore
SplineSet
29 364 m 1,0,-1
 29 421 l 1,1,-1
 77 421 l 1,2,-1
 77 364 l 1,3,-1
 29 364 l 1,0,-1
135 364 m 1,4,-1
 135 421 l 1,5,-1
 183 421 l 1,6,-1
 183 364 l 1,7,-1
 135 364 l 1,4,-1
29 0 m 1,8,-1
 29 306 l 1,9,-1
 77 306 l 1,10,-1
 77 0 l 1,11,-1
 29 0 l 1,8,-1
169 -86 m 128,-1,13
 155 -106 155 -106 123 -106 c 0,14,15
 100 -106 100 -106 82 -99 c 1,16,-1
 82 -66 l 1,17,-1
 108 -66 l 2,18,19
 135 -66 135 -66 135 -38 c 2,20,-1
 135 306 l 1,21,-1
 183 306 l 1,22,-1
 183 -36 l 2,23,12
 183 -66 183 -66 169 -86 c 128,-1,13
EndSplineSet
Validated: 1
EndChar

StartChar: imacron
Encoding: 299 299 183
Width: 133
VWidth: 659
GlyphClass: 2
Flags: W
LayerCount: 2
Back
Fore
SplineSet
-7 391 m 1,0,-1
 140 391 l 1,1,-1
 140 349 l 1,2,-1
 -7 349 l 1,3,-1
 -7 391 l 1,0,-1
43 306 m 1,4,-1
 90 306 l 1,5,-1
 90 0 l 1,6,-1
 43 0 l 1,7,-1
 43 306 l 1,4,-1
EndSplineSet
Validated: 1
EndChar

StartChar: iogonek
Encoding: 303 303 184
Width: 106
VWidth: 659
GlyphClass: 2
Flags: W
LayerCount: 2
Back
Fore
SplineSet
28 366 m 1,0,-1
 28 421 l 1,1,-1
 79 421 l 1,2,-1
 79 366 l 1,3,-1
 28 366 l 1,0,-1
63 -36 m 0,5,6
 63 -50 63 -50 69.5 -59 c 128,-1,7
 76 -68 76 -68 89 -68 c 2,8,-1
 108 -68 l 1,9,-1
 108 -98 l 1,10,11
 89 -106 89 -106 72 -106 c 0,12,13
 50 -106 50 -106 34 -93.5 c 128,-1,14
 18 -81 18 -81 18 -53 c 0,15,16
 18 -23 18 -23 39 0 c 1,17,-1
 29 0 l 1,18,-1
 29 306 l 1,19,-1
 77 306 l 1,20,-1
 77 0 l 1,21,4
 63 -21 63 -21 63 -36 c 0,5,6
EndSplineSet
Validated: 1
EndChar

StartChar: itilde
Encoding: 297 297 185
Width: 133
VWidth: 659
GlyphClass: 2
Flags: W
LayerCount: 2
Back
Fore
SplineSet
139 379 m 128,-1,1
 126 360 126 360 102 360 c 0,2,3
 89 360 89 360 67 370 c 0,4,5
 45 379 45 379 35 379 c 0,6,7
 18 379 18 379 15 360 c 1,8,-1
 -18 360 l 1,9,10
 -18 383 -18 383 -5.5 402 c 128,-1,11
 7 421 7 421 31 421 c 0,12,13
 42 421 42 421 53 417 c 128,-1,14
 64 413 64 413 66 412 c 0,15,16
 84 403 84 403 98 403 c 0,17,18
 115 403 115 403 118 421 c 1,19,-1
 152 421 l 1,20,0
 152 398 152 398 139 379 c 128,-1,1
43 306 m 1,21,-1
 90 306 l 1,22,-1
 90 0 l 1,23,-1
 43 0 l 1,24,-1
 43 306 l 1,21,-1
EndSplineSet
Validated: 1
EndChar

StartChar: j
Encoding: 106 106 186
Width: 106
VWidth: 659
GlyphClass: 2
Flags: W
LayerCount: 2
Back
Fore
SplineSet
29 421 m 1,0,-1
 77 421 l 1,1,-1
 77 364 l 1,2,-1
 29 364 l 1,3,-1
 29 421 l 1,0,-1
62.5 -86 m 128,-1,5
 48 -106 48 -106 16 -106 c 0,6,7
 -6 -106 -6 -106 -24 -99 c 1,8,-1
 -24 -66 l 1,9,-1
 2 -66 l 2,10,11
 29 -66 29 -66 29 -38 c 2,12,-1
 29 306 l 1,13,-1
 77 306 l 1,14,-1
 77 -36 l 2,15,4
 77 -66 77 -66 62.5 -86 c 128,-1,5
EndSplineSet
Validated: 1
EndChar

StartChar: jcircumflex
Encoding: 309 309 187
Width: 106
VWidth: 659
GlyphClass: 2
Flags: W
LayerCount: 2
Back
Fore
SplineSet
53 388 m 1,0,-1
 27 342 l 1,1,-1
 -20 342 l 1,2,-1
 30 420 l 1,3,-1
 76 420 l 1,4,-1
 126 342 l 1,5,-1
 79 342 l 1,6,-1
 53 388 l 1,0,-1
62.5 -86 m 128,-1,8
 48 -106 48 -106 16 -106 c 0,9,10
 -6 -106 -6 -106 -24 -99 c 1,11,-1
 -24 -66 l 1,12,-1
 2 -66 l 2,13,14
 29 -66 29 -66 29 -38 c 2,15,-1
 29 306 l 1,16,-1
 77 306 l 1,17,-1
 77 -36 l 2,18,7
 77 -66 77 -66 62.5 -86 c 128,-1,8
EndSplineSet
Validated: 1
EndChar

StartChar: k
Encoding: 107 107 188
Width: 239
VWidth: 659
GlyphClass: 2
Flags: W
AnchorPoint: "Anchor-1" 119 0 basechar 0
AnchorPoint: "Anchor-0" 0 0 basechar 0
LayerCount: 2
Back
Fore
SplineSet
235 306 m 1,0,-1
 144 181 l 1,1,-1
 239 0 l 1,2,-1
 185 0 l 1,3,-1
 115 140 l 1,4,-1
 83 104 l 1,5,-1
 83 0 l 1,6,-1
 35 0 l 1,7,-1
 35 421 l 1,8,-1
 83 421 l 1,9,-1
 83 164 l 1,10,-1
 182 306 l 1,11,-1
 235 306 l 1,0,-1
EndSplineSet
Validated: 1
EndChar

StartChar: kcommaaccent
Encoding: 311 311 189
Width: 239
VWidth: 659
GlyphClass: 2
Flags: W
LayerCount: 2
Back
Fore
SplineSet
235 306 m 1,0,-1
 144 181 l 1,1,-1
 239 0 l 1,2,-1
 185 0 l 1,3,-1
 115 140 l 1,4,-1
 83 104 l 1,5,-1
 83 0 l 1,6,-1
 35 0 l 1,7,-1
 35 421 l 1,8,-1
 83 421 l 1,9,-1
 83 164 l 1,10,-1
 182 306 l 1,11,-1
 235 306 l 1,0,-1
101 -129 m 1,12,-1
 115 -88 l 1,13,-1
 95 -88 l 1,14,-1
 95 -35 l 1,15,-1
 144 -35 l 1,16,-1
 144 -84 l 1,17,-1
 128 -129 l 1,18,-1
 101 -129 l 1,12,-1
EndSplineSet
Validated: 1
EndChar

StartChar: kgreenlandic
Encoding: 312 312 190
Width: 238
VWidth: 659
GlyphClass: 2
Flags: W
LayerCount: 2
Back
Fore
SplineSet
185 0 m 1,0,-1
 115 140 l 1,1,-1
 83 104 l 1,2,-1
 83 0 l 1,3,-1
 35 0 l 1,4,-1
 35 306 l 1,5,-1
 83 306 l 1,6,-1
 83 164 l 1,7,-1
 182 306 l 1,8,-1
 235 306 l 1,9,-1
 144 181 l 1,10,-1
 239 0 l 1,11,-1
 185 0 l 1,0,-1
EndSplineSet
Validated: 1
EndChar

StartChar: l
Encoding: 108 108 191
Width: 106
VWidth: 659
GlyphClass: 2
Flags: W
AnchorPoint: "Anchor-1" 53 0 basechar 0
AnchorPoint: "Anchor-0" 53 306 basechar 0
LayerCount: 2
Back
Fore
SplineSet
29 421 m 1,0,-1
 77 421 l 1,1,-1
 77 0 l 1,2,-1
 29 0 l 1,3,-1
 29 421 l 1,0,-1
EndSplineSet
Validated: 1
EndChar

StartChar: lacute
Encoding: 314 314 192
Width: 106
VWidth: 659
GlyphClass: 2
Flags: W
LayerCount: 2
Back
Fore
SplineSet
59 438 m 1,0,-1
 18 438 l 1,1,-1
 69 515 l 1,2,-1
 121 515 l 1,3,-1
 121 513 l 1,4,-1
 59 438 l 1,0,-1
29 0 m 1,5,-1
 29 421 l 1,6,-1
 77 421 l 1,7,-1
 77 0 l 1,8,-1
 29 0 l 1,5,-1
EndSplineSet
Validated: 1
EndChar

StartChar: lcaron
Encoding: 318 318 193
Width: 139
VWidth: 659
GlyphClass: 2
Flags: W
LayerCount: 2
Back
Fore
SplineSet
29 421 m 1,0,-1
 77 421 l 1,1,-1
 77 0 l 1,2,-1
 29 0 l 1,3,-1
 29 421 l 1,0,-1
100 264 m 1,4,-1
 123 337 l 1,5,-1
 100 337 l 1,6,-1
 100 399 l 1,7,-1
 158 399 l 1,8,-1
 158 342 l 1,9,-1
 130 264 l 1,10,-1
 100 264 l 1,4,-1
EndSplineSet
Validated: 1
EndChar

StartChar: lcommaaccent
Encoding: 316 316 194
Width: 106
VWidth: 659
GlyphClass: 2
Flags: W
LayerCount: 2
Back
Fore
SplineSet
29 421 m 1,0,-1
 77 421 l 1,1,-1
 77 0 l 1,2,-1
 29 0 l 1,3,-1
 29 421 l 1,0,-1
36 -129 m 1,4,-1
 48 -88 l 1,5,-1
 28 -88 l 1,6,-1
 28 -35 l 1,7,-1
 78 -35 l 1,8,-1
 78 -84 l 1,9,-1
 61 -129 l 1,10,-1
 36 -129 l 1,4,-1
EndSplineSet
Validated: 1
EndChar

StartChar: ldot
Encoding: 320 320 195
Width: 188
VWidth: 659
GlyphClass: 2
Flags: W
LayerCount: 2
Back
Fore
SplineSet
29 421 m 1,0,-1
 77 421 l 1,1,-1
 77 0 l 1,2,-1
 29 0 l 1,3,-1
 29 421 l 1,0,-1
100 233 m 1,4,-1
 159 233 l 1,5,-1
 159 168 l 1,6,-1
 100 168 l 1,7,-1
 100 233 l 1,4,-1
EndSplineSet
Validated: 1
Ligature2: "Ligature Substitution lookup 41 subtable" l periodcentered
EndChar

StartChar: lslash
Encoding: 322 322 196
Width: 106
VWidth: 659
GlyphClass: 2
Flags: W
LayerCount: 2
Back
Fore
SplineSet
128 231 m 1,0,-1
 77 186 l 1,1,-1
 77 0 l 1,2,-1
 29 0 l 1,3,-1
 29 143 l 1,4,-1
 -13 107 l 1,5,-1
 -13 148 l 1,6,-1
 29 185 l 1,7,-1
 29 421 l 1,8,-1
 77 421 l 1,9,-1
 77 228 l 1,10,-1
 128 273 l 1,11,-1
 128 231 l 1,0,-1
EndSplineSet
Validated: 1
EndChar

StartChar: m
Encoding: 109 109 197
Width: 398
VWidth: 659
GlyphClass: 2
Flags: W
LayerCount: 2
Back
Fore
SplineSet
363 221 m 2,1,-1
 363 0 l 1,2,-1
 315 0 l 1,3,-1
 315 217 l 2,4,5
 315 247 315 247 305 259 c 128,-1,6
 295 271 295 271 275 271 c 0,7,8
 253 271 253 271 238 248 c 128,-1,9
 223 225 223 225 223 187 c 2,10,-1
 223 0 l 1,11,-1
 175 0 l 1,12,-1
 175 217 l 2,13,14
 175 247 175 247 164.5 259 c 128,-1,15
 154 271 154 271 136 271 c 0,16,17
 113 271 113 271 98 248.5 c 128,-1,18
 83 226 83 226 83 187 c 2,19,-1
 83 0 l 1,20,-1
 35 0 l 1,21,-1
 35 306 l 1,22,-1
 71 306 l 1,23,-1
 78 271 l 1,24,-1
 81 271 l 1,25,26
 105 314 105 314 151 314 c 0,27,28
 201 314 201 314 216 269 c 1,29,30
 228 291 228 291 248.5 302.5 c 128,-1,31
 269 314 269 314 291 314 c 0,32,0
 363 314 363 314 363 221 c 2,1,-1
EndSplineSet
Validated: 1
EndChar

StartChar: n
Encoding: 110 110 198
Width: 266
VWidth: 659
GlyphClass: 2
Flags: W
AnchorPoint: "Anchor-1" 133 0 basechar 0
AnchorPoint: "Anchor-0" 133 306 basechar 0
LayerCount: 2
Back
Fore
SplineSet
231 221 m 2,1,-1
 231 0 l 1,2,-1
 183 0 l 1,3,-1
 183 217 l 2,4,5
 183 247 183 247 172 259 c 128,-1,6
 161 271 161 271 140 271 c 0,7,8
 116 271 116 271 99.5 248 c 128,-1,9
 83 225 83 225 83 187 c 2,10,-1
 83 0 l 1,11,-1
 35 0 l 1,12,-1
 35 306 l 1,13,-1
 71 306 l 1,14,-1
 78 271 l 1,15,-1
 81 271 l 1,16,17
 105 314 105 314 155 314 c 0,18,0
 231 314 231 314 231 221 c 2,1,-1
EndSplineSet
Validated: 1
Substitution2: "'sups' Superscript lookup 11 subtable" uni207F
Substitution2: "'aalt' Access All Alternates lookup 0 subtable" uni207F
EndChar

StartChar: nacute
Encoding: 324 324 199
Width: 266
VWidth: 659
GlyphClass: 2
Flags: W
LayerCount: 2
Back
Fore
SplineSet
138 344 m 1,0,-1
 98 344 l 1,1,-1
 148 421 l 1,2,-1
 200 421 l 1,3,-1
 201 419 l 1,4,-1
 138 344 l 1,0,-1
231 221 m 2,6,-1
 231 0 l 1,7,-1
 183 0 l 1,8,-1
 183 217 l 2,9,10
 183 247 183 247 172 259 c 128,-1,11
 161 271 161 271 140 271 c 0,12,13
 116 271 116 271 99.5 248 c 128,-1,14
 83 225 83 225 83 187 c 2,15,-1
 83 0 l 1,16,-1
 35 0 l 1,17,-1
 35 306 l 1,18,-1
 71 306 l 1,19,-1
 78 271 l 1,20,-1
 81 271 l 1,21,22
 105 314 105 314 155 314 c 0,23,5
 231 314 231 314 231 221 c 2,6,-1
EndSplineSet
Validated: 1
EndChar

StartChar: napostrophe
Encoding: 329 329 200
Width: 334
VWidth: 659
GlyphClass: 2
Flags: W
LayerCount: 2
Back
Fore
SplineSet
61 304 m 1,0,-1
 34 304 l 1,1,-1
 47 346 l 1,2,-1
 28 346 l 1,3,-1
 28 399 l 1,4,-1
 78 399 l 1,5,-1
 78 350 l 1,6,-1
 61 304 l 1,0,-1
299 221 m 2,8,-1
 299 0 l 1,9,-1
 251 0 l 1,10,-1
 251 217 l 2,11,12
 251 247 251 247 240 259 c 128,-1,13
 229 271 229 271 208 271 c 0,14,15
 184 271 184 271 167.5 248 c 128,-1,16
 151 225 151 225 151 187 c 2,17,-1
 151 0 l 1,18,-1
 103 0 l 1,19,-1
 103 306 l 1,20,-1
 139 306 l 1,21,-1
 146 271 l 1,22,-1
 149 271 l 1,23,24
 173 314 173 314 223 314 c 0,25,7
 299 314 299 314 299 221 c 2,8,-1
EndSplineSet
Validated: 1
EndChar

StartChar: ncaron
Encoding: 328 328 201
Width: 266
VWidth: 659
GlyphClass: 2
Flags: W
LayerCount: 2
Back
Fore
SplineSet
61 421 m 1,0,-1
 107 421 l 1,1,-1
 133 375 l 1,2,-1
 159 421 l 1,3,-1
 206 421 l 1,4,-1
 156 343 l 1,5,-1
 109 343 l 1,6,-1
 61 421 l 1,0,-1
231 221 m 2,8,-1
 231 0 l 1,9,-1
 183 0 l 1,10,-1
 183 217 l 2,11,12
 183 247 183 247 172 259 c 128,-1,13
 161 271 161 271 140 271 c 0,14,15
 116 271 116 271 99.5 248 c 128,-1,16
 83 225 83 225 83 187 c 2,17,-1
 83 0 l 1,18,-1
 35 0 l 1,19,-1
 35 306 l 1,20,-1
 71 306 l 1,21,-1
 78 271 l 1,22,-1
 81 271 l 1,23,24
 105 314 105 314 155 314 c 0,25,7
 231 314 231 314 231 221 c 2,8,-1
EndSplineSet
Validated: 1
EndChar

StartChar: ncommaaccent
Encoding: 326 326 202
Width: 266
VWidth: 659
GlyphClass: 2
Flags: W
LayerCount: 2
Back
Fore
SplineSet
231 221 m 2,1,-1
 231 0 l 1,2,-1
 183 0 l 1,3,-1
 183 217 l 2,4,5
 183 247 183 247 172 259 c 128,-1,6
 161 271 161 271 140 271 c 0,7,8
 116 271 116 271 99.5 248 c 128,-1,9
 83 225 83 225 83 187 c 2,10,-1
 83 0 l 1,11,-1
 35 0 l 1,12,-1
 35 306 l 1,13,-1
 71 306 l 1,14,-1
 78 271 l 1,15,-1
 81 271 l 1,16,17
 105 314 105 314 155 314 c 0,18,0
 231 314 231 314 231 221 c 2,1,-1
115 -129 m 1,19,-1
 128 -88 l 1,20,-1
 108 -88 l 1,21,-1
 108 -35 l 1,22,-1
 158 -35 l 1,23,-1
 158 -84 l 1,24,-1
 141 -129 l 1,25,-1
 115 -129 l 1,19,-1
EndSplineSet
Validated: 1
EndChar

StartChar: eng
Encoding: 331 331 203
Width: 266
VWidth: 659
GlyphClass: 2
Flags: W
LayerCount: 2
Back
Fore
SplineSet
231 221 m 2,1,-1
 231 -36 l 2,2,3
 231 -66 231 -66 217 -86 c 128,-1,4
 203 -106 203 -106 170 -106 c 0,5,6
 148 -106 148 -106 130 -99 c 1,7,-1
 130 -66 l 1,8,-1
 156 -66 l 2,9,10
 169 -66 169 -66 176 -58.5 c 128,-1,11
 183 -51 183 -51 183 -38 c 2,12,-1
 183 217 l 2,13,14
 183 247 183 247 172 259 c 128,-1,15
 161 271 161 271 140 271 c 0,16,17
 116 271 116 271 99.5 248 c 128,-1,18
 83 225 83 225 83 187 c 2,19,-1
 83 0 l 1,20,-1
 35 0 l 1,21,-1
 35 306 l 1,22,-1
 71 306 l 1,23,-1
 78 271 l 1,24,-1
 81 271 l 1,25,26
 105 314 105 314 155 314 c 0,27,0
 231 314 231 314 231 221 c 2,1,-1
EndSplineSet
Validated: 1
EndChar

StartChar: ntilde
Encoding: 241 241 204
Width: 266
VWidth: 659
GlyphClass: 2
Flags: W
LayerCount: 2
Back
Fore
SplineSet
205.5 378.5 m 128,-1,1
 193 360 193 360 168 360 c 0,2,3
 155 360 155 360 133 370 c 0,4,5
 110 379 110 379 101 379 c 0,6,7
 83 379 83 379 82 360 c 1,8,-1
 47 360 l 1,9,10
 47 383 47 383 60.5 402 c 128,-1,11
 74 421 74 421 98 421 c 0,12,13
 109 421 109 421 120 417 c 128,-1,14
 131 413 131 413 133 412 c 0,15,16
 151 403 151 403 164 403 c 0,17,18
 183 403 183 403 184 421 c 1,19,-1
 218 421 l 1,20,0
 218 397 218 397 205.5 378.5 c 128,-1,1
231 221 m 2,22,-1
 231 0 l 1,23,-1
 183 0 l 1,24,-1
 183 217 l 2,25,26
 183 247 183 247 172 259 c 128,-1,27
 161 271 161 271 140 271 c 0,28,29
 116 271 116 271 99.5 248 c 128,-1,30
 83 225 83 225 83 187 c 2,31,-1
 83 0 l 1,32,-1
 35 0 l 1,33,-1
 35 306 l 1,34,-1
 71 306 l 1,35,-1
 78 271 l 1,36,-1
 81 271 l 1,37,38
 105 314 105 314 155 314 c 0,39,21
 231 314 231 314 231 221 c 2,22,-1
EndSplineSet
Validated: 1
EndChar

StartChar: o
Encoding: 111 111 205
Width: 266
VWidth: 659
GlyphClass: 2
Flags: W
AnchorPoint: "Anchor-1" 0 0 basechar 0
AnchorPoint: "Anchor-0" 133 306 basechar 0
LayerCount: 2
Back
Fore
SplineSet
243 153 m 0,1,2
 243 -7 243 -7 133 -7 c 256,3,4
 23 -7 23 -7 23 153 c 0,5,6
 23 314 23 314 133 314 c 256,7,0
 243 314 243 314 243 153 c 0,1,2
73 164 m 2,9,-1
 73 142 l 2,10,11
 73 36 73 36 133 36 c 0,12,13
 192 36 192 36 192 142 c 2,14,-1
 192 164 l 2,15,16
 192 271 192 271 133 271 c 0,17,8
 73 271 73 271 73 164 c 2,9,-1
EndSplineSet
Validated: 1
Substitution2: "Single Substitution lookup 42 subtable" ordmasculine
Substitution2: "'aalt' Access All Alternates lookup 0 subtable" ordmasculine
EndChar

StartChar: oacute
Encoding: 243 243 206
Width: 266
VWidth: 659
GlyphClass: 2
Flags: W
LayerCount: 2
Back
Fore
SplineSet
138 344 m 1,0,-1
 98 344 l 1,1,-1
 148 421 l 1,2,-1
 200 421 l 1,3,-1
 201 419 l 1,4,-1
 138 344 l 1,0,-1
243 153 m 0,6,7
 243 -7 243 -7 133 -7 c 256,8,9
 23 -7 23 -7 23 153 c 0,10,11
 23 314 23 314 133 314 c 256,12,5
 243 314 243 314 243 153 c 0,6,7
73 164 m 2,14,-1
 73 142 l 2,15,16
 73 36 73 36 133 36 c 0,17,18
 192 36 192 36 192 142 c 2,19,-1
 192 164 l 2,20,21
 192 271 192 271 133 271 c 0,22,13
 73 271 73 271 73 164 c 2,14,-1
EndSplineSet
Validated: 1
EndChar

StartChar: obreve
Encoding: 335 335 207
Width: 266
VWidth: 659
GlyphClass: 2
Flags: W
LayerCount: 2
Back
Fore
SplineSet
185 382 m 128,-1,1
 165 364 165 364 133 364 c 256,2,3
 101 364 101 364 81 382 c 128,-1,4
 61 400 61 400 61 421 c 1,5,-1
 98 421 l 1,6,7
 100 414 100 414 109.5 408 c 128,-1,8
 119 402 119 402 133 402 c 256,9,10
 147 402 147 402 157 408 c 128,-1,11
 167 414 167 414 168 421 c 1,12,-1
 205 421 l 1,13,0
 205 400 205 400 185 382 c 128,-1,1
243 153 m 0,15,16
 243 -7 243 -7 133 -7 c 256,17,18
 23 -7 23 -7 23 153 c 0,19,20
 23 314 23 314 133 314 c 256,21,14
 243 314 243 314 243 153 c 0,15,16
73 164 m 2,23,-1
 73 142 l 2,24,25
 73 36 73 36 133 36 c 0,26,27
 192 36 192 36 192 142 c 2,28,-1
 192 164 l 2,29,30
 192 271 192 271 133 271 c 0,31,22
 73 271 73 271 73 164 c 2,23,-1
EndSplineSet
Validated: 1
EndChar

StartChar: ocircumflex
Encoding: 244 244 208
Width: 266
VWidth: 659
GlyphClass: 2
Flags: W
LayerCount: 2
Back
Fore
SplineSet
133 388 m 1,0,-1
 107 342 l 1,1,-1
 61 342 l 1,2,-1
 110 420 l 1,3,-1
 156 420 l 1,4,-1
 206 342 l 1,5,-1
 159 342 l 1,6,-1
 133 388 l 1,0,-1
243 153 m 0,8,9
 243 -7 243 -7 133 -7 c 256,10,11
 23 -7 23 -7 23 153 c 0,12,13
 23 314 23 314 133 314 c 256,14,7
 243 314 243 314 243 153 c 0,8,9
73 164 m 2,16,-1
 73 142 l 2,17,18
 73 36 73 36 133 36 c 0,19,20
 192 36 192 36 192 142 c 2,21,-1
 192 164 l 2,22,23
 192 271 192 271 133 271 c 0,24,15
 73 271 73 271 73 164 c 2,16,-1
EndSplineSet
Validated: 1
EndChar

StartChar: odieresis
Encoding: 246 246 209
Width: 266
VWidth: 659
GlyphClass: 2
Flags: W
LayerCount: 2
Back
Fore
SplineSet
63 366 m 1,0,-1
 63 421 l 1,1,-1
 114 421 l 1,2,-1
 114 366 l 1,3,-1
 63 366 l 1,0,-1
151 366 m 1,4,-1
 151 421 l 1,5,-1
 202 421 l 1,6,-1
 202 366 l 1,7,-1
 151 366 l 1,4,-1
243 153 m 0,9,10
 243 -7 243 -7 133 -7 c 256,11,12
 23 -7 23 -7 23 153 c 0,13,14
 23 314 23 314 133 314 c 256,15,8
 243 314 243 314 243 153 c 0,9,10
73 164 m 2,17,-1
 73 142 l 2,18,19
 73 36 73 36 133 36 c 0,20,21
 192 36 192 36 192 142 c 2,22,-1
 192 164 l 2,23,24
 192 271 192 271 133 271 c 0,25,16
 73 271 73 271 73 164 c 2,17,-1
EndSplineSet
Validated: 1
EndChar

StartChar: ograve
Encoding: 242 242 210
Width: 266
VWidth: 659
GlyphClass: 2
Flags: W
LayerCount: 2
Back
Fore
SplineSet
128 344 m 1,0,-1
 64 419 l 1,1,-1
 65 421 l 1,2,-1
 118 421 l 1,3,-1
 168 344 l 1,4,-1
 128 344 l 1,0,-1
243 153 m 0,6,7
 243 -7 243 -7 133 -7 c 256,8,9
 23 -7 23 -7 23 153 c 0,10,11
 23 314 23 314 133 314 c 256,12,5
 243 314 243 314 243 153 c 0,6,7
73 164 m 2,14,-1
 73 142 l 2,15,16
 73 36 73 36 133 36 c 0,17,18
 192 36 192 36 192 142 c 2,19,-1
 192 164 l 2,20,21
 192 271 192 271 133 271 c 0,22,13
 73 271 73 271 73 164 c 2,14,-1
EndSplineSet
Validated: 1
EndChar

StartChar: ohungarumlaut
Encoding: 337 337 211
Width: 266
VWidth: 659
GlyphClass: 2
Flags: W
LayerCount: 2
Back
Fore
SplineSet
77 344 m 1,0,-1
 113 421 l 1,1,-1
 165 421 l 1,2,-1
 166 419 l 1,3,-1
 117 344 l 1,4,-1
 77 344 l 1,0,-1
153 344 m 1,5,-1
 189 421 l 1,6,-1
 242 421 l 1,7,-1
 243 419 l 1,8,-1
 193 344 l 1,9,-1
 153 344 l 1,5,-1
243 153 m 0,11,12
 243 -7 243 -7 133 -7 c 256,13,14
 23 -7 23 -7 23 153 c 0,15,16
 23 314 23 314 133 314 c 256,17,10
 243 314 243 314 243 153 c 0,11,12
73 164 m 2,19,-1
 73 142 l 2,20,21
 73 36 73 36 133 36 c 0,22,23
 192 36 192 36 192 142 c 2,24,-1
 192 164 l 2,25,26
 192 271 192 271 133 271 c 0,27,18
 73 271 73 271 73 164 c 2,19,-1
EndSplineSet
Validated: 1
EndChar

StartChar: omacron
Encoding: 333 333 212
Width: 266
VWidth: 659
GlyphClass: 2
Flags: W
LayerCount: 2
Back
Fore
SplineSet
60 391 m 1,0,-1
 206 391 l 1,1,-1
 206 349 l 1,2,-1
 60 349 l 1,3,-1
 60 391 l 1,0,-1
243 153 m 0,5,6
 243 -7 243 -7 133 -7 c 256,7,8
 23 -7 23 -7 23 153 c 0,9,10
 23 314 23 314 133 314 c 256,11,4
 243 314 243 314 243 153 c 0,5,6
73 164 m 2,13,-1
 73 142 l 2,14,15
 73 36 73 36 133 36 c 0,16,17
 192 36 192 36 192 142 c 2,18,-1
 192 164 l 2,19,20
 192 271 192 271 133 271 c 0,21,12
 73 271 73 271 73 164 c 2,13,-1
EndSplineSet
Validated: 1
EndChar

StartChar: oslash
Encoding: 248 248 213
Width: 292
VWidth: 659
GlyphClass: 2
Flags: W
AnchorPoint: "Anchor-1" 0 0 basechar 0
AnchorPoint: "Anchor-0" 146 306 basechar 0
LayerCount: 2
Back
Fore
SplineSet
255 153 m 0,1,2
 255 -7 255 -7 146 -7 c 0,3,4
 108 -7 108 -7 84 11 c 1,5,-1
 68 -18 l 1,6,-1
 36 -18 l 1,7,-1
 63 32 l 1,8,9
 36 71 36 71 36 153 c 0,10,11
 36 314 36 314 146 314 c 0,12,13
 182 314 182 314 207 295 c 1,14,-1
 223 325 l 1,15,-1
 255 325 l 1,16,-1
 227 274 l 1,17,0
 255 236 255 236 255 153 c 0,1,2
86 164 m 2,19,-1
 86 142 l 2,20,21
 86 108 86 108 92 84 c 1,22,-1
 184 254 l 1,23,24
 169 271 169 271 146 271 c 0,25,18
 86 271 86 271 86 164 c 2,19,-1
146 36 m 0,27,28
 205 36 205 36 205 142 c 2,29,-1
 205 164 l 2,30,31
 205 200 205 200 198 221 c 1,32,-1
 107 53 l 1,33,26
 122 36 122 36 146 36 c 0,27,28
EndSplineSet
Validated: 1
EndChar

StartChar: oslashacute
Encoding: 511 511 214
Width: 292
VWidth: 659
GlyphClass: 2
Flags: W
LayerCount: 2
Back
Fore
SplineSet
152 344 m 1,0,-1
 111 344 l 1,1,-1
 161 421 l 1,2,-1
 214 421 l 1,3,-1
 214 419 l 1,4,-1
 152 344 l 1,0,-1
255 153 m 0,6,7
 255 -7 255 -7 146 -7 c 0,8,9
 108 -7 108 -7 84 11 c 1,10,-1
 68 -18 l 1,11,-1
 36 -18 l 1,12,-1
 63 32 l 1,13,14
 36 71 36 71 36 153 c 0,15,16
 36 314 36 314 146 314 c 0,17,18
 182 314 182 314 207 295 c 1,19,-1
 223 325 l 1,20,-1
 255 325 l 1,21,-1
 227 274 l 1,22,5
 255 236 255 236 255 153 c 0,6,7
86 164 m 2,24,-1
 86 142 l 2,25,26
 86 108 86 108 92 84 c 1,27,-1
 184 254 l 1,28,29
 169 271 169 271 146 271 c 0,30,23
 86 271 86 271 86 164 c 2,24,-1
146 36 m 0,32,33
 205 36 205 36 205 142 c 2,34,-1
 205 164 l 2,35,36
 205 200 205 200 198 221 c 1,37,-1
 107 53 l 1,38,31
 122 36 122 36 146 36 c 0,32,33
EndSplineSet
Validated: 1
EndChar

StartChar: otilde
Encoding: 245 245 215
Width: 266
VWidth: 659
GlyphClass: 2
Flags: W
LayerCount: 2
Back
Fore
SplineSet
205.5 378.5 m 128,-1,1
 193 360 193 360 168 360 c 0,2,3
 155 360 155 360 133 370 c 0,4,5
 110 379 110 379 101 379 c 0,6,7
 83 379 83 379 82 360 c 1,8,-1
 47 360 l 1,9,10
 47 383 47 383 60.5 402 c 128,-1,11
 74 421 74 421 98 421 c 0,12,13
 109 421 109 421 120 417 c 128,-1,14
 131 413 131 413 133 412 c 0,15,16
 151 403 151 403 164 403 c 0,17,18
 183 403 183 403 184 421 c 1,19,-1
 218 421 l 1,20,0
 218 397 218 397 205.5 378.5 c 128,-1,1
243 153 m 0,22,23
 243 -7 243 -7 133 -7 c 256,24,25
 23 -7 23 -7 23 153 c 0,26,27
 23 314 23 314 133 314 c 256,28,21
 243 314 243 314 243 153 c 0,22,23
73 164 m 2,30,-1
 73 142 l 2,31,32
 73 36 73 36 133 36 c 0,33,34
 192 36 192 36 192 142 c 2,35,-1
 192 164 l 2,36,37
 192 271 192 271 133 271 c 0,38,29
 73 271 73 271 73 164 c 2,30,-1
EndSplineSet
Validated: 1
EndChar

StartChar: oe
Encoding: 339 339 216
Width: 451
VWidth: 659
GlyphClass: 2
Flags: W
AnchorPoint: "Anchor-1" 0 0 basechar 0
AnchorPoint: "Anchor-0" 225 306 basechar 0
LayerCount: 2
Back
Fore
SplineSet
392.5 279.5 m 128,-1,1
 417 245 417 245 417 169 c 2,2,-1
 417 139 l 1,3,-1
 251 139 l 1,4,5
 252 86 252 86 268 61 c 128,-1,6
 284 36 284 36 318 36 c 0,7,8
 341 36 341 36 355.5 54.5 c 128,-1,9
 370 73 370 73 370 104 c 1,10,-1
 417 104 l 1,11,12
 417 53 417 53 389.5 23 c 128,-1,13
 362 -7 362 -7 317 -7 c 0,14,15
 253 -7 253 -7 225 38 c 1,16,17
 200 -7 200 -7 140 -7 c 0,18,19
 31 -7 31 -7 31 153 c 0,20,21
 31 314 31 314 140 314 c 0,22,23
 199 314 199 314 225 269 c 1,24,25
 253 314 253 314 316 314 c 0,26,0
 368 314 368 314 392.5 279.5 c 128,-1,1
81 164 m 2,28,-1
 81 142 l 2,29,30
 81 36 81 36 140 36 c 0,31,32
 200 36 200 36 200 142 c 2,33,-1
 200 164 l 2,34,35
 200 271 200 271 140 271 c 0,36,27
 81 271 81 271 81 164 c 2,28,-1
270 249.5 m 128,-1,38
 255 228 255 228 252 182 c 1,39,-1
 367 182 l 1,40,41
 367 225 367 225 354 248 c 128,-1,42
 341 271 341 271 316 271 c 0,43,37
 285 271 285 271 270 249.5 c 128,-1,38
EndSplineSet
Validated: 1
EndChar

StartChar: p
Encoding: 112 112 217
Width: 266
VWidth: 659
GlyphClass: 2
Flags: W
LayerCount: 2
Back
Fore
SplineSet
218 274.5 m 128,-1,1
 243 235 243 235 243 153 c 0,2,3
 243 74 243 74 217.5 33.5 c 128,-1,4
 192 -7 192 -7 151 -7 c 0,5,6
 128 -7 128 -7 110.5 2 c 128,-1,7
 93 11 93 11 86 27 c 1,8,-1
 83 27 l 1,9,-1
 83 -101 l 1,10,-1
 35 -101 l 1,11,-1
 35 306 l 1,12,-1
 71 306 l 1,13,-1
 78 271 l 1,14,-1
 80 271 l 1,15,16
 103 314 103 314 148 314 c 256,17,0
 193 314 193 314 218 274.5 c 128,-1,1
83 164 m 2,19,-1
 83 142 l 2,20,21
 83 36 83 36 138 36 c 0,22,23
 166 36 166 36 179 61 c 128,-1,24
 192 86 192 86 192 142 c 2,25,-1
 192 164 l 2,26,27
 192 221 192 221 179 246 c 128,-1,28
 166 271 166 271 138 271 c 0,29,18
 83 271 83 271 83 164 c 2,19,-1
EndSplineSet
Validated: 1
EndChar

StartChar: thorn
Encoding: 254 254 218
Width: 266
VWidth: 659
GlyphClass: 2
Flags: W
LayerCount: 2
Back
Fore
SplineSet
85 279 m 1,0,1
 95 295 95 295 111.5 304.5 c 128,-1,2
 128 314 128 314 148 314 c 0,3,4
 193 314 193 314 218 274.5 c 128,-1,5
 243 235 243 235 243 153 c 0,6,7
 243 74 243 74 217.5 33.5 c 128,-1,8
 192 -7 192 -7 151 -7 c 0,9,10
 128 -7 128 -7 110.5 2 c 128,-1,11
 93 11 93 11 86 27 c 1,12,-1
 83 27 l 1,13,-1
 83 -101 l 1,14,-1
 35 -101 l 1,15,-1
 35 421 l 1,16,-1
 83 421 l 1,17,-1
 83 279 l 1,18,-1
 85 279 l 1,0,1
83 164 m 2,20,-1
 83 142 l 2,21,22
 83 36 83 36 138 36 c 0,23,24
 166 36 166 36 179 61 c 128,-1,25
 192 86 192 86 192 142 c 2,26,-1
 192 164 l 2,27,28
 192 221 192 221 179 246 c 128,-1,29
 166 271 166 271 138 271 c 0,30,19
 83 271 83 271 83 164 c 2,20,-1
EndSplineSet
Validated: 1
EndChar

StartChar: q
Encoding: 113 113 219
Width: 266
VWidth: 659
GlyphClass: 2
Flags: W
LayerCount: 2
Back
Fore
SplineSet
157 303 m 128,-1,1
 175 292 175 292 185 271 c 1,2,-1
 188 271 l 1,3,-1
 194 306 l 1,4,-1
 231 306 l 1,5,-1
 231 -101 l 1,6,-1
 183 -101 l 1,7,-1
 183 27 l 1,8,-1
 180 27 l 1,9,10
 172 11 172 11 154.5 2 c 128,-1,11
 137 -7 137 -7 115 -7 c 0,12,13
 74 -7 74 -7 48.5 33.5 c 128,-1,14
 23 74 23 74 23 153 c 0,15,16
 23 235 23 235 48 274.5 c 128,-1,17
 73 314 73 314 118 314 c 0,18,0
 139 314 139 314 157 303 c 128,-1,1
86.5 245.5 m 128,-1,20
 73 220 73 220 73 164 c 2,21,-1
 73 142 l 2,22,23
 73 86 73 86 86.5 61 c 128,-1,24
 100 36 100 36 128 36 c 0,25,26
 183 36 183 36 183 142 c 2,27,-1
 183 164 l 2,28,29
 183 271 183 271 128 271 c 0,30,19
 100 271 100 271 86.5 245.5 c 128,-1,20
EndSplineSet
Validated: 1
EndChar

StartChar: r
Encoding: 114 114 220
Width: 159
VWidth: 659
GlyphClass: 2
Flags: W
AnchorPoint: "Anchor-1" 80 0 basechar 0
AnchorPoint: "Anchor-0" 80 306 basechar 0
LayerCount: 2
Back
Fore
SplineSet
147.5 312 m 128,-1,1
 154 310 154 310 156 309 c 2,2,-1
 156 259 l 1,3,-1
 140 259 l 2,4,5
 114 259 114 259 98.5 242 c 128,-1,6
 83 225 83 225 83 187 c 2,7,-1
 83 0 l 1,8,-1
 35 0 l 1,9,-1
 35 306 l 1,10,-1
 71 306 l 1,11,-1
 78 266 l 1,12,-1
 81 266 l 1,13,14
 96 314 96 314 133 314 c 0,15,0
 141 314 141 314 147.5 312 c 128,-1,1
EndSplineSet
Validated: 1
EndChar

StartChar: racute
Encoding: 341 341 221
Width: 159
VWidth: 659
GlyphClass: 2
Flags: W
LayerCount: 2
Back
Fore
SplineSet
60 344 m 1,0,-1
 19 344 l 1,1,-1
 69 421 l 1,2,-1
 122 421 l 1,3,-1
 123 419 l 1,4,-1
 60 344 l 1,0,-1
147.5 312 m 128,-1,6
 154 310 154 310 156 309 c 2,7,-1
 156 259 l 1,8,-1
 140 259 l 2,9,10
 114 259 114 259 98.5 242 c 128,-1,11
 83 225 83 225 83 187 c 2,12,-1
 83 0 l 1,13,-1
 35 0 l 1,14,-1
 35 306 l 1,15,-1
 71 306 l 1,16,-1
 78 266 l 1,17,-1
 81 266 l 1,18,19
 96 314 96 314 133 314 c 0,20,5
 141 314 141 314 147.5 312 c 128,-1,6
EndSplineSet
Validated: 1
EndChar

StartChar: rcaron
Encoding: 345 345 222
Width: 159
VWidth: 659
GlyphClass: 2
Flags: W
LayerCount: 2
Back
Fore
SplineSet
-2 421 m 1,0,-1
 45 421 l 1,1,-1
 71 375 l 1,2,-1
 98 421 l 1,3,-1
 144 421 l 1,4,-1
 94 343 l 1,5,-1
 48 343 l 1,6,-1
 -2 421 l 1,0,-1
147.5 312 m 128,-1,8
 154 310 154 310 156 309 c 2,9,-1
 156 259 l 1,10,-1
 140 259 l 2,11,12
 114 259 114 259 98.5 242 c 128,-1,13
 83 225 83 225 83 187 c 2,14,-1
 83 0 l 1,15,-1
 35 0 l 1,16,-1
 35 306 l 1,17,-1
 71 306 l 1,18,-1
 78 266 l 1,19,-1
 81 266 l 1,20,21
 96 314 96 314 133 314 c 0,22,7
 141 314 141 314 147.5 312 c 128,-1,8
EndSplineSet
Validated: 1
EndChar

StartChar: rcommaaccent
Encoding: 343 343 223
Width: 159
VWidth: 659
GlyphClass: 2
Flags: W
LayerCount: 2
Back
Fore
SplineSet
147.5 312 m 128,-1,1
 154 310 154 310 156 309 c 2,2,-1
 156 259 l 1,3,-1
 140 259 l 2,4,5
 114 259 114 259 98.5 242 c 128,-1,6
 83 225 83 225 83 187 c 2,7,-1
 83 0 l 1,8,-1
 35 0 l 1,9,-1
 35 306 l 1,10,-1
 71 306 l 1,11,-1
 78 266 l 1,12,-1
 81 266 l 1,13,14
 96 314 96 314 133 314 c 0,15,0
 141 314 141 314 147.5 312 c 128,-1,1
45 -129 m 1,16,-1
 59 -88 l 1,17,-1
 38 -88 l 1,18,-1
 38 -35 l 1,19,-1
 88 -35 l 1,20,-1
 88 -84 l 1,21,-1
 72 -129 l 1,22,-1
 45 -129 l 1,16,-1
EndSplineSet
Validated: 1
EndChar

StartChar: s
Encoding: 115 115 224
Width: 239
VWidth: 659
GlyphClass: 2
Flags: W
AnchorPoint: "Anchor-1" 119 0 basechar 0
AnchorPoint: "Anchor-0" 119 306 basechar 0
LayerCount: 2
Back
Fore
SplineSet
186.5 289.5 m 128,-1,1
 210 265 210 265 210 229 c 0,2,3
 210 223 210 223 209 220 c 2,4,-1
 209 218 l 1,5,-1
 159 218 l 1,6,-1
 159 223 l 2,7,8
 159 272 159 272 117 272 c 0,9,10
 94 272 94 272 85 259 c 128,-1,11
 76 246 76 246 76 229 c 0,12,13
 76 210 76 210 88.5 201 c 128,-1,14
 101 192 101 192 131 181 c 0,15,16
 158 172 158 172 174.5 163 c 128,-1,17
 191 154 191 154 203 136 c 128,-1,18
 215 118 215 118 215 88 c 0,19,20
 215 40 215 40 188.5 16.5 c 128,-1,21
 162 -7 162 -7 118 -7 c 0,22,23
 68 -7 68 -7 43.5 19 c 128,-1,24
 19 45 19 45 19 83 c 0,25,26
 19 91 19 91 20 94 c 2,27,-1
 20 96 l 1,28,-1
 70 96 l 1,29,-1
 70 90 l 2,30,31
 70 62 70 62 84 48.5 c 128,-1,32
 98 35 98 35 120 35 c 0,33,34
 140 35 140 35 153 47 c 128,-1,35
 166 59 166 59 166 80 c 0,36,37
 166 104 166 104 151.5 115 c 128,-1,38
 137 126 137 126 105 138 c 0,39,40
 67 151 67 151 46.5 168.5 c 128,-1,41
 26 186 26 186 26 226 c 0,42,43
 26 267 26 267 52 290.5 c 128,-1,44
 78 314 78 314 122 314 c 0,45,0
 163 314 163 314 186.5 289.5 c 128,-1,1
EndSplineSet
Validated: 1
EndChar

StartChar: sacute
Encoding: 347 347 225
Width: 239
VWidth: 659
GlyphClass: 2
Flags: W
LayerCount: 2
Back
Fore
SplineSet
125 344 m 1,0,-1
 85 344 l 1,1,-1
 134 421 l 1,2,-1
 187 421 l 1,3,-1
 188 419 l 1,4,-1
 125 344 l 1,0,-1
186.5 289.5 m 128,-1,6
 210 265 210 265 210 229 c 0,7,8
 210 223 210 223 209 220 c 2,9,-1
 209 218 l 1,10,-1
 159 218 l 1,11,-1
 159 223 l 2,12,13
 159 272 159 272 117 272 c 0,14,15
 94 272 94 272 85 259 c 128,-1,16
 76 246 76 246 76 229 c 0,17,18
 76 210 76 210 88.5 201 c 128,-1,19
 101 192 101 192 131 181 c 0,20,21
 158 172 158 172 174.5 163 c 128,-1,22
 191 154 191 154 203 136 c 128,-1,23
 215 118 215 118 215 88 c 0,24,25
 215 40 215 40 188.5 16.5 c 128,-1,26
 162 -7 162 -7 118 -7 c 0,27,28
 68 -7 68 -7 43.5 19 c 128,-1,29
 19 45 19 45 19 83 c 0,30,31
 19 91 19 91 20 94 c 2,32,-1
 20 96 l 1,33,-1
 70 96 l 1,34,-1
 70 90 l 2,35,36
 70 62 70 62 84 48.5 c 128,-1,37
 98 35 98 35 120 35 c 0,38,39
 140 35 140 35 153 47 c 128,-1,40
 166 59 166 59 166 80 c 0,41,42
 166 104 166 104 151.5 115 c 128,-1,43
 137 126 137 126 105 138 c 0,44,45
 67 151 67 151 46.5 168.5 c 128,-1,46
 26 186 26 186 26 226 c 0,47,48
 26 267 26 267 52 290.5 c 128,-1,49
 78 314 78 314 122 314 c 0,50,5
 163 314 163 314 186.5 289.5 c 128,-1,6
EndSplineSet
Validated: 1
EndChar

StartChar: scaron
Encoding: 353 353 226
Width: 239
VWidth: 659
GlyphClass: 2
Flags: W
LayerCount: 2
Back
Fore
SplineSet
97 343 m 1,0,-1
 47 421 l 1,1,-1
 94 421 l 1,2,-1
 119 375 l 1,3,-1
 146 421 l 1,4,-1
 192 421 l 1,5,-1
 142 343 l 1,6,-1
 97 343 l 1,0,-1
186.5 289.5 m 128,-1,8
 210 265 210 265 210 229 c 0,9,10
 210 223 210 223 209 220 c 2,11,-1
 209 218 l 1,12,-1
 159 218 l 1,13,-1
 159 223 l 2,14,15
 159 272 159 272 117 272 c 0,16,17
 94 272 94 272 85 259 c 128,-1,18
 76 246 76 246 76 229 c 0,19,20
 76 210 76 210 88.5 201 c 128,-1,21
 101 192 101 192 131 181 c 0,22,23
 158 172 158 172 174.5 163 c 128,-1,24
 191 154 191 154 203 136 c 128,-1,25
 215 118 215 118 215 88 c 0,26,27
 215 40 215 40 188.5 16.5 c 128,-1,28
 162 -7 162 -7 118 -7 c 0,29,30
 68 -7 68 -7 43.5 19 c 128,-1,31
 19 45 19 45 19 83 c 0,32,33
 19 91 19 91 20 94 c 2,34,-1
 20 96 l 1,35,-1
 70 96 l 1,36,-1
 70 90 l 2,37,38
 70 62 70 62 84 48.5 c 128,-1,39
 98 35 98 35 120 35 c 0,40,41
 140 35 140 35 153 47 c 128,-1,42
 166 59 166 59 166 80 c 0,43,44
 166 104 166 104 151.5 115 c 128,-1,45
 137 126 137 126 105 138 c 0,46,47
 67 151 67 151 46.5 168.5 c 128,-1,48
 26 186 26 186 26 226 c 0,49,50
 26 267 26 267 52 290.5 c 128,-1,51
 78 314 78 314 122 314 c 0,52,7
 163 314 163 314 186.5 289.5 c 128,-1,8
EndSplineSet
Validated: 1
EndChar

StartChar: scedilla
Encoding: 351 351 227
Width: 239
VWidth: 659
GlyphClass: 2
Flags: W
LayerCount: 2
Back
Fore
SplineSet
186.5 289.5 m 128,-1,1
 210 265 210 265 210 229 c 0,2,3
 210 223 210 223 209 220 c 2,4,-1
 209 218 l 1,5,-1
 159 218 l 1,6,-1
 159 223 l 2,7,8
 159 272 159 272 117 272 c 0,9,10
 94 272 94 272 85 259 c 128,-1,11
 76 246 76 246 76 229 c 0,12,13
 76 210 76 210 88.5 201 c 128,-1,14
 101 192 101 192 131 181 c 0,15,16
 158 172 158 172 174.5 163 c 128,-1,17
 191 154 191 154 203 136 c 128,-1,18
 215 118 215 118 215 88 c 0,19,20
 215 43 215 43 192 19.5 c 128,-1,21
 169 -4 169 -4 129 -7 c 1,22,-1
 127 -21 l 1,23,24
 148 -22 148 -22 161 -31 c 128,-1,25
 174 -40 174 -40 174 -59 c 0,26,27
 174 -85 174 -85 155.5 -95.5 c 128,-1,28
 137 -106 137 -106 113 -106 c 0,29,30
 87 -106 87 -106 65 -101 c 1,31,-1
 65 -73 l 1,32,-1
 109 -73 l 2,33,34
 130 -73 130 -73 130 -59 c 0,35,36
 130 -51 130 -51 125.5 -48 c 128,-1,37
 121 -45 121 -45 110 -45 c 2,38,-1
 91 -45 l 1,39,-1
 97 -6 l 1,40,41
 58 0 58 0 38.5 25 c 128,-1,42
 19 50 19 50 19 83 c 0,43,44
 19 91 19 91 20 94 c 2,45,-1
 20 96 l 1,46,-1
 70 96 l 1,47,-1
 70 90 l 2,48,49
 70 62 70 62 84 48.5 c 128,-1,50
 98 35 98 35 120 35 c 0,51,52
 140 35 140 35 153 47 c 128,-1,53
 166 59 166 59 166 80 c 0,54,55
 166 104 166 104 151.5 115 c 128,-1,56
 137 126 137 126 105 138 c 0,57,58
 67 151 67 151 46.5 168.5 c 128,-1,59
 26 186 26 186 26 226 c 0,60,61
 26 267 26 267 52 290.5 c 128,-1,62
 78 314 78 314 122 314 c 0,63,0
 163 314 163 314 186.5 289.5 c 128,-1,1
EndSplineSet
Validated: 1
Substitution2: "'locl' Localized Forms in Latin lookup 6 subtable" scommaaccent
Substitution2: "'locl' Localized Forms in Latin lookup 5 subtable" scommaaccent
Substitution2: "'aalt' Access All Alternates lookup 0 subtable" scommaaccent
EndChar

StartChar: scircumflex
Encoding: 349 349 228
Width: 239
VWidth: 659
GlyphClass: 2
Flags: W
LayerCount: 2
Back
Fore
SplineSet
146 342 m 1,0,-1
 120 388 l 1,1,-1
 94 342 l 1,2,-1
 47 342 l 1,3,-1
 98 420 l 1,4,-1
 143 420 l 1,5,-1
 192 342 l 1,6,-1
 146 342 l 1,0,-1
186.5 289.5 m 128,-1,8
 210 265 210 265 210 229 c 0,9,10
 210 223 210 223 209 220 c 2,11,-1
 209 218 l 1,12,-1
 159 218 l 1,13,-1
 159 223 l 2,14,15
 159 272 159 272 117 272 c 0,16,17
 94 272 94 272 85 259 c 128,-1,18
 76 246 76 246 76 229 c 0,19,20
 76 210 76 210 88.5 201 c 128,-1,21
 101 192 101 192 131 181 c 0,22,23
 158 172 158 172 174.5 163 c 128,-1,24
 191 154 191 154 203 136 c 128,-1,25
 215 118 215 118 215 88 c 0,26,27
 215 40 215 40 188.5 16.5 c 128,-1,28
 162 -7 162 -7 118 -7 c 0,29,30
 68 -7 68 -7 43.5 19 c 128,-1,31
 19 45 19 45 19 83 c 0,32,33
 19 91 19 91 20 94 c 2,34,-1
 20 96 l 1,35,-1
 70 96 l 1,36,-1
 70 90 l 2,37,38
 70 62 70 62 84 48.5 c 128,-1,39
 98 35 98 35 120 35 c 0,40,41
 140 35 140 35 153 47 c 128,-1,42
 166 59 166 59 166 80 c 0,43,44
 166 104 166 104 151.5 115 c 128,-1,45
 137 126 137 126 105 138 c 0,46,47
 67 151 67 151 46.5 168.5 c 128,-1,48
 26 186 26 186 26 226 c 0,49,50
 26 267 26 267 52 290.5 c 128,-1,51
 78 314 78 314 122 314 c 0,52,7
 163 314 163 314 186.5 289.5 c 128,-1,8
EndSplineSet
Validated: 1
EndChar

StartChar: germandbls
Encoding: 223 223 230
Width: 292
VWidth: 659
GlyphClass: 2
Flags: W
LayerCount: 2
Back
Fore
SplineSet
227 398.5 m 128,-1,1
 258 369 258 369 258 319 c 0,2,3
 258 290 258 290 242.5 265 c 128,-1,4
 227 240 227 240 202 230 c 1,5,-1
 202 228 l 1,6,7
 232 218 232 218 251 188 c 128,-1,8
 270 158 270 158 270 125 c 0,9,10
 270 69 270 69 236.5 34.5 c 128,-1,11
 203 0 203 0 153 0 c 2,12,-1
 109 0 l 1,13,-1
 109 43 l 1,14,-1
 148 43 l 2,15,16
 178 43 178 43 199.5 67 c 128,-1,17
 221 91 221 91 221 125 c 0,18,19
 221 157 221 157 199.5 180.5 c 128,-1,20
 178 204 178 204 148 204 c 2,21,-1
 109 204 l 1,22,-1
 109 246 l 1,23,-1
 144 246 l 2,24,25
 170 246 170 246 189 267.5 c 128,-1,26
 208 289 208 289 208 318 c 0,27,28
 208 349 208 349 191.5 367.5 c 128,-1,29
 175 386 175 386 145 386 c 0,30,31
 113 386 113 386 95 364.5 c 128,-1,32
 77 343 77 343 77 302 c 2,33,-1
 77 0 l 1,34,-1
 29 0 l 1,35,-1
 29 301 l 2,36,37
 29 365 29 365 62 396.5 c 128,-1,38
 95 428 95 428 148 428 c 0,39,0
 196 428 196 428 227 398.5 c 128,-1,1
EndSplineSet
Validated: 1
EndChar

StartChar: longs
Encoding: 383 383 231
Width: 106
VWidth: 659
GlyphClass: 2
Flags: W
LayerCount: 2
Back
Fore
SplineSet
133 419 m 1,1,-1
 133 386 l 1,2,-1
 107 386 l 2,3,4
 80 386 80 386 80 358 c 2,5,-1
 80 0 l 1,6,-1
 32 0 l 1,7,-1
 32 264 l 1,8,-1
 5 264 l 1,9,-1
 5 306 l 1,10,-1
 32 306 l 1,11,-1
 32 355 l 2,12,13
 32 385 32 385 46.5 405.5 c 128,-1,14
 61 426 61 426 93 426 c 0,15,0
 110 426 110 426 133 419 c 1,1,-1
EndSplineSet
Validated: 1
EndChar

StartChar: t
Encoding: 116 116 232
Width: 133
VWidth: 659
GlyphClass: 2
Flags: W
AnchorPoint: "Anchor-1" 78 0 basechar 0
AnchorPoint: "Anchor-0" 0 0 basechar 0
LayerCount: 2
Back
Fore
SplineSet
123 264 m 1,0,-1
 82 264 l 1,1,-1
 82 63 l 2,2,3
 82 36 82 36 109 36 c 2,4,-1
 123 36 l 1,5,-1
 123 3 l 1,6,7
 111 -6 111 -6 89 -6 c 0,8,9
 60 -6 60 -6 47 14.5 c 128,-1,10
 34 35 34 35 34 65 c 2,11,-1
 34 264 l 1,12,-1
 8 264 l 1,13,-1
 8 306 l 1,14,-1
 34 306 l 1,15,-1
 45 391 l 1,16,-1
 82 391 l 1,17,-1
 82 306 l 1,18,-1
 123 306 l 1,19,-1
 123 264 l 1,0,-1
EndSplineSet
Validated: 1
EndChar

StartChar: tbar
Encoding: 359 359 233
Width: 133
VWidth: 659
GlyphClass: 2
Flags: W
LayerCount: 2
Back
Fore
SplineSet
123 306 m 1,0,-1
 123 264 l 1,1,-1
 82 264 l 1,2,-1
 82 204 l 1,3,-1
 121 204 l 1,4,-1
 121 163 l 1,5,-1
 82 163 l 1,6,-1
 82 63 l 2,7,8
 82 36 82 36 109 36 c 2,9,-1
 123 36 l 1,10,-1
 123 3 l 1,11,12
 111 -6 111 -6 89 -6 c 0,13,14
 60 -6 60 -6 47 14.5 c 128,-1,15
 34 35 34 35 34 65 c 2,16,-1
 34 163 l 1,17,-1
 9 163 l 1,18,-1
 9 204 l 1,19,-1
 34 204 l 1,20,-1
 34 264 l 1,21,-1
 8 264 l 1,22,-1
 8 306 l 1,23,-1
 34 306 l 1,24,-1
 45 391 l 1,25,-1
 82 391 l 1,26,-1
 82 306 l 1,27,-1
 123 306 l 1,0,-1
EndSplineSet
Validated: 1
EndChar

StartChar: tcaron
Encoding: 357 357 234
Width: 179
VWidth: 659
GlyphClass: 2
Flags: W
LayerCount: 2
Back
Fore
SplineSet
147 264 m 1,0,-1
 170 337 l 1,1,-1
 147 337 l 1,2,-1
 147 399 l 1,3,-1
 206 399 l 1,4,-1
 206 342 l 1,5,-1
 177 264 l 1,6,-1
 147 264 l 1,0,-1
123 264 m 1,7,-1
 82 264 l 1,8,-1
 82 63 l 2,9,10
 82 36 82 36 109 36 c 2,11,-1
 123 36 l 1,12,-1
 123 3 l 1,13,14
 111 -6 111 -6 89 -6 c 0,15,16
 60 -6 60 -6 47 14.5 c 128,-1,17
 34 35 34 35 34 65 c 2,18,-1
 34 264 l 1,19,-1
 8 264 l 1,20,-1
 8 306 l 1,21,-1
 34 306 l 1,22,-1
 45 391 l 1,23,-1
 82 391 l 1,24,-1
 82 306 l 1,25,-1
 123 306 l 1,26,-1
 123 264 l 1,7,-1
EndSplineSet
Validated: 1
EndChar

StartChar: uni0163
Encoding: 355 355 235
Width: 133
VWidth: 659
GlyphClass: 2
Flags: W
AnchorPoint: "Anchor-1" 78 0 basechar 0
AnchorPoint: "Anchor-0" 0 0 basechar 0
LayerCount: 2
Back
Fore
SplineSet
119 -31 m 128,-1,1
 132 -40 132 -40 132 -59 c 0,2,3
 132 -85 132 -85 114 -95.5 c 128,-1,4
 96 -106 96 -106 72 -106 c 0,5,6
 46 -106 46 -106 23 -101 c 1,7,-1
 23 -73 l 1,8,-1
 67 -73 l 2,9,10
 88 -73 88 -73 88 -59 c 0,11,12
 88 -51 88 -51 84 -48 c 128,-1,13
 80 -45 80 -45 69 -45 c 2,14,-1
 49 -45 l 1,15,-1
 57 4 l 1,16,17
 34 22 34 22 34 65 c 2,18,-1
 34 264 l 1,19,-1
 8 264 l 1,20,-1
 8 306 l 1,21,-1
 34 306 l 1,22,-1
 45 391 l 1,23,-1
 82 391 l 1,24,-1
 82 306 l 1,25,-1
 123 306 l 1,26,-1
 123 264 l 1,27,-1
 82 264 l 1,28,-1
 82 63 l 2,29,30
 82 36 82 36 109 36 c 2,31,-1
 123 36 l 1,32,-1
 123 3 l 1,33,34
 111 -6 111 -6 88 -6 c 1,35,-1
 85 -21 l 1,36,0
 106 -22 106 -22 119 -31 c 128,-1,1
EndSplineSet
Validated: 1
Substitution2: "'locl' Localized Forms in Latin lookup 6 subtable" uni021B
Substitution2: "'locl' Localized Forms in Latin lookup 5 subtable" uni021B
Substitution2: "'aalt' Access All Alternates lookup 0 subtable" uni021B
EndChar

StartChar: uni021B
Encoding: 539 539 236
Width: 133
VWidth: 659
GlyphClass: 2
Flags: W
LayerCount: 2
Back
Fore
SplineSet
123 264 m 1,0,-1
 82 264 l 1,1,-1
 82 63 l 2,2,3
 82 36 82 36 109 36 c 2,4,-1
 123 36 l 1,5,-1
 123 3 l 1,6,7
 111 -6 111 -6 89 -6 c 0,8,9
 60 -6 60 -6 47 14.5 c 128,-1,10
 34 35 34 35 34 65 c 2,11,-1
 34 264 l 1,12,-1
 8 264 l 1,13,-1
 8 306 l 1,14,-1
 34 306 l 1,15,-1
 45 391 l 1,16,-1
 82 391 l 1,17,-1
 82 306 l 1,18,-1
 123 306 l 1,19,-1
 123 264 l 1,0,-1
48 -129 m 1,20,-1
 62 -88 l 1,21,-1
 42 -88 l 1,22,-1
 42 -35 l 1,23,-1
 92 -35 l 1,24,-1
 92 -84 l 1,25,-1
 74 -129 l 1,26,-1
 48 -129 l 1,20,-1
EndSplineSet
Validated: 1
EndChar

StartChar: u
Encoding: 117 117 237
Width: 266
VWidth: 659
GlyphClass: 2
Flags: W
AnchorPoint: "Anchor-1" 0 0 basechar 0
AnchorPoint: "Anchor-0" 133 306 basechar 0
LayerCount: 2
Back
Fore
SplineSet
188 36 m 1,0,-1
 185 36 l 1,1,2
 161 -7 161 -7 111 -7 c 0,3,4
 35 -7 35 -7 35 86 c 2,5,-1
 35 306 l 1,6,-1
 83 306 l 1,7,-1
 83 89 l 2,8,9
 83 59 83 59 94 47.5 c 128,-1,10
 105 36 105 36 126 36 c 0,11,12
 150 36 150 36 166.5 58.5 c 128,-1,13
 183 81 183 81 183 119 c 2,14,-1
 183 306 l 1,15,-1
 231 306 l 1,16,-1
 231 0 l 1,17,-1
 194 0 l 1,18,-1
 188 36 l 1,0,-1
EndSplineSet
Validated: 1
EndChar

StartChar: uacute
Encoding: 250 250 238
Width: 266
VWidth: 659
GlyphClass: 2
Flags: W
LayerCount: 2
Back
Fore
SplineSet
138 344 m 1,0,-1
 98 344 l 1,1,-1
 148 421 l 1,2,-1
 200 421 l 1,3,-1
 201 419 l 1,4,-1
 138 344 l 1,0,-1
194 0 m 1,5,-1
 188 36 l 1,6,-1
 185 36 l 1,7,8
 161 -7 161 -7 111 -7 c 0,9,10
 35 -7 35 -7 35 86 c 2,11,-1
 35 306 l 1,12,-1
 83 306 l 1,13,-1
 83 89 l 2,14,15
 83 59 83 59 94 47.5 c 128,-1,16
 105 36 105 36 126 36 c 0,17,18
 150 36 150 36 166.5 58.5 c 128,-1,19
 183 81 183 81 183 119 c 2,20,-1
 183 306 l 1,21,-1
 231 306 l 1,22,-1
 231 0 l 1,23,-1
 194 0 l 1,5,-1
EndSplineSet
Validated: 1
EndChar

StartChar: ubreve
Encoding: 365 365 239
Width: 266
VWidth: 659
GlyphClass: 2
Flags: W
LayerCount: 2
Back
Fore
SplineSet
185 382 m 128,-1,1
 165 364 165 364 133 364 c 256,2,3
 101 364 101 364 81 382 c 128,-1,4
 61 400 61 400 61 421 c 1,5,-1
 98 421 l 1,6,7
 100 414 100 414 109.5 408 c 128,-1,8
 119 402 119 402 133 402 c 256,9,10
 147 402 147 402 157 408 c 128,-1,11
 167 414 167 414 168 421 c 1,12,-1
 205 421 l 1,13,0
 205 400 205 400 185 382 c 128,-1,1
188 36 m 1,14,-1
 185 36 l 1,15,16
 161 -7 161 -7 111 -7 c 0,17,18
 35 -7 35 -7 35 86 c 2,19,-1
 35 306 l 1,20,-1
 83 306 l 1,21,-1
 83 89 l 2,22,23
 83 59 83 59 94 47.5 c 128,-1,24
 105 36 105 36 126 36 c 0,25,26
 150 36 150 36 166.5 58.5 c 128,-1,27
 183 81 183 81 183 119 c 2,28,-1
 183 306 l 1,29,-1
 231 306 l 1,30,-1
 231 0 l 1,31,-1
 194 0 l 1,32,-1
 188 36 l 1,14,-1
EndSplineSet
Validated: 1
EndChar

